<?xml version="1.0" encoding="UTF-8" standalone="no"?>
<svg
   width="256"
   height="256"
   viewBox="0 0 256 256"
   fill="none"
   version="1.1"
   id="svg88"
   sodipodi:docname="folder-cookies-small.svg"
   inkscape:version="1.4.2 (f4327f4, 2025-05-13)"
   xmlns:inkscape="http://www.inkscape.org/namespaces/inkscape"
   xmlns:sodipodi="http://sodipodi.sourceforge.net/DTD/sodipodi-0.dtd"
   xmlns:xlink="http://www.w3.org/1999/xlink"
   xmlns="http://www.w3.org/2000/svg"
   xmlns:svg="http://www.w3.org/2000/svg">
  <sodipodi:namedview
     id="namedview88"
     pagecolor="#ffffff"
     bordercolor="#000000"
     borderopacity="0.25"
     inkscape:showpageshadow="2"
     inkscape:pageopacity="0.0"
     inkscape:pagecheckerboard="0"
     inkscape:deskcolor="#d1d1d1"
     inkscape:zoom="3.1523438"
     inkscape:cx="128"
     inkscape:cy="128"
     inkscape:window-width="1920"
     inkscape:window-height="1009"
     inkscape:window-x="-8"
     inkscape:window-y="-8"
     inkscape:window-maximized="1"
     inkscape:current-layer="svg88" />
  <mask
     id="mask0_1141_27809"
     style="mask-type:alpha"
     maskUnits="userSpaceOnUse"
     x="17"
     y="34"
     width="224"
     height="138">
    <path
       fill-rule="evenodd"
       clip-rule="evenodd"
       d="M104.425 42.3784C100.056 37.0733 93.5437 34 86.6712 34H29C22.3726 34 17 39.3726 17 46V58.1371V68.2V160C17 166.627 22.3726 172 29 172H229C235.627 172 241 166.627 241 160V70.1371C241 63.5097 235.627 58.1371 229 58.1371H117.404L104.425 42.3784Z"
       fill="url(#paint0_linear_1141_27809)"
       id="path2" />
  </mask>
  <g
     filter="url(#filter1_d_1141_27809)"
     id="g6"
     style="display:inline">
    <g
       filter="url(#filter2_ii_1141_27809)"
       id="g5">
      <path
         fill-rule="evenodd"
         clip-rule="evenodd"
         d="m 229,62 c 6.627,0 12,5.3726 12,12 v 34 90 c 0,6.627 -5.373,12 -12,12 H 29 c -6.6274,0 -12,-5.373 -12,-12 V 108 74 c 0,-6.6274 5.3726,-12 12,-12 z"
         fill="url(#paint1_linear_1141_27809)"
         id="path4"
         sodipodi:nodetypes="sscsssscsss" />
    </g>
  </g>
  <path
     d="m 214.808,82 c 5.077,0 9.192,4.1154 9.192,9.1919 v 85.9831 c 0,5.076 -4.115,9.192 -9.192,9.192 l -171.6161,1 C 38.1153,187.367 34,183.251 34,178.175 V 91.384 C 34,86.3073 38.1154,82 43.1919,82 c 4.21895,0 171.6161,0 171.6161,0 z"
     fill="url(#paint2_linear_1141_27809)"
     id="path6"
     style="display:inline;fill:url(#paint2_linear_1141_27809);stroke:url(#linearGradient3)"
     sodipodi:nodetypes="sssccssss" />
  <g
     id="g1"
     style="display:inline">
    <path
       d="m 121,68 c 1.657,0 3,1.0553 3,2.3571 v 6.2858 C 124,77.9447 122.657,79 121,79 c -1.657,0 -3,-1.0553 -3,-2.3571 V 70.3571 C 118,69.0553 119.343,68 121,68 Z"
       fill="#f2be6b"
       id="path7" />
    <path
       d="m 108,68 c 1.657,0 3,1.0553 3,2.3571 v 6.2858 C 111,77.9447 109.657,79 108,79 c -1.657,0 -3,-1.0553 -3,-2.3571 V 70.3571 C 105,69.0553 106.343,68 108,68 Z"
       fill="#f2be6b"
       id="path8" />
    <path
       d="M 137,70.3571 C 137,69.0553 135.657,68 134,68 c -1.657,0 -3,1.0553 -3,2.3571 v 6.2858 c 0,1.3018 1.343,2.3571 3,2.3571 1.657,0 3,-1.0553 3,-2.3571 z"
       fill="#f2be6b"
       id="path9" />
    <path
       d="m 147,68 c 1.657,0 3,1.0553 3,2.3571 v 6.2858 C 150,77.9447 148.657,79 147,79 c -1.657,0 -3,-1.0553 -3,-2.3571 V 70.3571 C 144,69.0553 145.343,68 147,68 Z"
       fill="#f2be6b"
       id="path10" />
    <path
       d="M 163,70.3571 C 163,69.0553 161.657,68 160,68 c -1.657,0 -3,1.0553 -3,2.3571 v 6.2858 c 0,1.3018 1.343,2.3571 3,2.3571 1.657,0 3,-1.0553 3,-2.3571 z"
       fill="#f2be6b"
       id="path11" />
    <path
       d="m 173,68 c 1.657,0 3,1.0553 3,2.3571 v 6.2858 C 176,77.9447 174.657,79 173,79 c -1.657,0 -3,-1.0553 -3,-2.3571 V 70.3571 C 170,69.0553 171.343,68 173,68 Z"
       fill="#f2be6b"
       id="path12" />
    <path
       d="M 189,70.3571 C 189,69.0553 187.657,68 186,68 c -1.657,0 -3,1.0553 -3,2.3571 v 6.2858 c 0,1.3018 1.343,2.3571 3,2.3571 1.657,0 3,-1.0553 3,-2.3571 z"
       fill="#f2be6b"
       id="path13" />
    <path
       d="m 199,68 c 1.657,0 3,1.0553 3,2.3571 v 6.2858 C 202,77.9447 200.657,79 199,79 c -1.657,0 -3,-1.0553 -3,-2.3571 V 70.3571 C 196,69.0553 197.343,68 199,68 Z"
       fill="#f2be6b"
       id="path14" />
    <path
       d="m 124,192.357 c 0,-1.302 -1.343,-2.357 -3,-2.357 -1.657,0 -3,1.055 -3,2.357 v 6.286 c 0,1.302 1.343,2.357 3,2.357 1.657,0 3,-1.055 3,-2.357 z"
       fill="#f2be6b"
       id="path15" />
    <path
       d="m 108,190 c 1.657,0 3,1.055 3,2.357 v 6.286 c 0,1.302 -1.343,2.357 -3,2.357 -1.657,0 -3,-1.055 -3,-2.357 v -6.286 c 0,-1.302 1.343,-2.357 3,-2.357 z"
       fill="#f2be6b"
       id="path16" />
    <path
       d="m 97.9997,192.357 c 0,-1.302 -1.3432,-2.357 -3,-2.357 -1.6569,0 -3,1.055 -3,2.357 v 6.286 c 0,1.302 1.3431,2.357 3,2.357 1.6568,0 3,-1.055 3,-2.357 z"
       fill="#f2be6b"
       id="path17" />
    <path
       d="m 81.9997,190 c 1.6568,0 3,1.055 3,2.357 v 6.286 c 0,1.302 -1.3432,2.357 -3,2.357 -1.6569,0 -3,-1.055 -3,-2.357 v -6.286 c 0,-1.302 1.3431,-2.357 3,-2.357 z"
       fill="#f2be6b"
       id="path18" />
    <path
       d="m 71.9997,192.357 c 0,-1.302 -1.3432,-2.357 -3,-2.357 -1.6569,0 -3,1.055 -3,2.357 v 6.286 c 0,1.302 1.3431,2.357 3,2.357 1.6568,0 3,-1.055 3,-2.357 z"
       fill="#f2be6b"
       id="path19" />
    <path
       d="m 55.9997,190 c 1.6568,0 3,1.055 3,2.357 v 6.286 c 0,1.302 -1.3432,2.357 -3,2.357 -1.6569,0 -3,-1.055 -3,-2.357 v -6.286 c 0,-1.302 1.3431,-2.357 3,-2.357 z"
       fill="#f2be6b"
       id="path20" />
    <path
       d="m 97.9997,70.3571 c 0,-1.3018 -1.3432,-2.3571 -3,-2.3571 -1.6569,0 -3,1.0553 -3,2.3571 v 6.2858 c 0,1.3018 1.3431,2.3571 3,2.3571 1.6568,0 3,-1.0553 3,-2.3571 z"
       fill="#f2be6b"
       id="path21" />
    <path
       d="m 81.9997,68 c 1.6568,0 3,1.0553 3,2.3571 v 6.2858 c 0,1.3018 -1.3432,2.3571 -3,2.3571 -1.6569,0 -3,-1.0553 -3,-2.3571 v -6.2858 c 0,-1.3018 1.3431,-2.3571 3,-2.3571 z"
       fill="#f2be6b"
       id="path22" />
    <path
       d="m 71.9997,70.3571 c 0,-1.3018 -1.3432,-2.3571 -3,-2.3571 -1.6569,0 -3,1.0553 -3,2.3571 v 6.2858 c 0,1.3018 1.3431,2.3571 3,2.3571 1.6568,0 3,-1.0553 3,-2.3571 z"
       fill="#f2be6b"
       id="path23" />
    <path
       d="m 55.9997,68 c 1.6568,0 3,1.0553 3,2.3571 v 6.2858 c 0,1.3018 -1.3432,2.3571 -3,2.3571 -1.6569,0 -3,-1.0553 -3,-2.3571 v -6.2858 c 0,-1.3018 1.3431,-2.3571 3,-2.3571 z"
       fill="#f2be6b"
       id="path24" />
    <path
       d="m 137,192.357 c 0,-1.302 -1.343,-2.357 -3,-2.357 -1.657,0 -3,1.055 -3,2.357 v 6.286 c 0,1.302 1.343,2.357 3,2.357 1.657,0 3,-1.055 3,-2.357 z"
       fill="#f2be6b"
       id="path25" />
    <path
       d="m 147,190 c 1.657,0 3,1.055 3,2.357 v 6.286 c 0,1.302 -1.343,2.357 -3,2.357 -1.657,0 -3,-1.055 -3,-2.357 v -6.286 c 0,-1.302 1.343,-2.357 3,-2.357 z"
       fill="#f2be6b"
       id="path26" />
    <path
       d="m 163,192.357 c 0,-1.302 -1.343,-2.357 -3,-2.357 -1.657,0 -3,1.055 -3,2.357 v 6.286 c 0,1.302 1.343,2.357 3,2.357 1.657,0 3,-1.055 3,-2.357 z"
       fill="#f2be6b"
       id="path27" />
    <path
       d="m 173,190 c 1.657,0 3,1.055 3,2.357 v 6.286 c 0,1.302 -1.343,2.357 -3,2.357 -1.657,0 -3,-1.055 -3,-2.357 v -6.286 c 0,-1.302 1.343,-2.357 3,-2.357 z"
       fill="#f2be6b"
       id="path28" />
    <path
       d="m 189,192.357 c 0,-1.302 -1.343,-2.357 -3,-2.357 -1.657,0 -3,1.055 -3,2.357 v 6.286 c 0,1.302 1.343,2.357 3,2.357 1.657,0 3,-1.055 3,-2.357 z"
       fill="#f2be6b"
       id="path29" />
    <path
       d="m 199,190 c 1.657,0 3,1.055 3,2.357 v 6.286 c 0,1.302 -1.343,2.357 -3,2.357 -1.657,0 -3,-1.055 -3,-2.357 v -6.286 c 0,-1.302 1.343,-2.357 3,-2.357 z"
       fill="#f2be6b"
       id="path30" />
    <path
       d="m 217.9,72.5141 c 0.508,-1.1983 -0.316,-2.6945 -1.841,-3.3419 -1.525,-0.6474 -3.174,-0.2008 -3.682,0.9976 l -2.457,5.786 c -0.508,1.1983 0.316,2.6946 1.841,3.3419 1.525,0.6474 3.174,0.2008 3.683,-0.9975 z"
       fill="#f2be6b"
       id="path31" />
    <path
       d="m 230.899,73.1213 c 1.172,1.1716 1.375,2.8676 0.455,3.7881 l -4.445,4.4447 c -0.92,0.9205 -2.616,0.717 -3.788,-0.4546 -1.171,-1.1716 -1.375,-2.8676 -0.454,-3.7881 l 4.444,-4.4446 c 0.921,-0.9206 2.617,-0.7171 3.788,0.4545 z"
       fill="#f2be6b"
       id="path32" />
    <path
       d="m 235.77,91.3765 c 1.269,-0.2929 1.995,-1.839 1.622,-3.4534 -0.372,-1.6144 -1.703,-2.6857 -2.971,-2.3929 l -6.125,1.414 c -1.268,0.2929 -1.994,1.839 -1.622,3.4534 0.373,1.6144 1.703,2.6857 2.972,2.3928 z"
       fill="#f2be6b"
       id="path33" />
    <path
       d="m 238.148,180.06 c -0.648,1.525 -2.144,2.349 -3.342,1.84 l -5.786,-2.456 c -1.199,-0.509 -1.645,-2.157 -0.998,-3.682 0.648,-1.526 2.144,-2.35 3.342,-1.841 l 5.786,2.456 c 1.199,0.509 1.645,2.157 0.998,3.683 z"
       fill="#f2be6b"
       id="path34" />
    <path
       d="m 227.111,196.353 c 0.92,0.921 2.616,0.717 3.788,-0.454 1.171,-1.172 1.375,-2.868 0.454,-3.788 l -4.444,-4.445 c -0.921,-0.921 -2.617,-0.717 -3.788,0.454 -1.172,1.172 -1.375,2.868 -0.455,3.789 z"
       fill="#f2be6b"
       id="path35" />
    <path
       d="m 215.397,200.394 c -1.615,0.372 -3.161,-0.354 -3.453,-1.622 l -1.414,-6.125 c -0.293,-1.268 0.778,-2.599 2.392,-2.971 1.615,-0.373 3.161,0.353 3.454,1.621 l 1.414,6.125 c 0.293,1.268 -0.779,2.599 -2.393,2.972 z"
       fill="#f2be6b"
       id="path36" />
    <path
       d="m 23.5138,88.490209 c -1.1983,-0.5084 -2.6946,0.316 -3.3419,1.841 -0.6474,1.525 -0.2008,3.174 0.9975,3.682 l 5.7861,2.456 c 1.1983,0.509 2.6945,-0.315 3.3419,-1.84 0.6474,-1.525 0.2008,-3.174 -0.9976,-3.683 z"
       fill="#f2be6b"
       id="path37" />
    <path
       d="m 24.121,75.490709 c 1.1716,-1.1715 2.8675,-1.3751 3.7881,-0.4545 l 4.4446,4.4446 c 0.9206,0.9206 0.717,2.6165 -0.4545,3.7881 -1.1716,1.1716 -2.8676,1.3751 -3.7881,0.4546 l -4.4447,-4.4447 c -0.9205,-0.9205 -0.717,-2.6165 0.4546,-3.7881 z"
       fill="#f2be6b"
       id="path38" />
    <path
       d="m 42.3761,70.619609 c -0.2928,-1.2684 -1.8389,-1.9946 -3.4533,-1.6219 -1.6144,0.3728 -2.6857,1.7032 -2.3929,2.9716 l 1.414,6.1246 c 0.2928,1.2685 1.839,1.9946 3.4533,1.6219 1.6144,-0.3727 2.6858,-1.7031 2.3929,-2.9716 z"
       fill="#f2be6b"
       id="path39" />
    <path
       d="m 36.7624,200.299 c -1.5252,-0.648 -2.3492,-2.144 -1.8405,-3.342 l 2.456,-5.786 c 0.5087,-1.199 2.1574,-1.645 3.6825,-0.998 1.5252,0.647 2.3492,2.144 1.8405,3.342 l -2.456,5.786 c -0.5087,1.198 -2.1574,1.645 -3.6825,0.998 z"
       fill="#f2be6b"
       id="path40" />
    <path
       d="m 23.6668,190.112 c -0.9205,0.921 -0.717,2.617 0.4546,3.788 1.1716,1.172 2.8675,1.375 3.7881,0.455 l 4.4446,-4.445 c 0.9206,-0.92 0.717,-2.616 -0.4545,-3.788 -1.1716,-1.172 -2.8676,-1.375 -3.7881,-0.455 z"
       fill="#f2be6b"
       id="path41" />
    <path
       d="m 20.6753,180.397 c -0.3727,-1.614 0.3534,-3.16 1.6219,-3.453 l 6.1246,-1.414 c 1.2684,-0.293 2.5988,0.778 2.9716,2.393 0.3727,1.614 -0.3535,3.16 -1.6219,3.453 l -6.1246,1.414 c -1.2685,0.293 -2.5989,-0.778 -2.9716,-2.393 z"
       fill="#f2be6b"
       id="path42" />
    <path
       d="m 235.643,105 c 1.301,0 2.357,-1.343 2.357,-3 0,-1.657 -1.056,-3 -2.357,-3 h -6.286 c -1.302,0 -2.357,1.343 -2.357,3 0,1.657 1.055,3 2.357,3 z"
       fill="#f2be6b"
       id="path43" />
    <path
       d="m 238,115 c 0,1.657 -1.056,3 -2.357,3 h -6.286 c -1.302,0 -2.357,-1.343 -2.357,-3 0,-1.657 1.055,-3 2.357,-3 h 6.286 c 1.301,0 2.357,1.343 2.357,3 z"
       fill="#f2be6b"
       id="path44" />
    <path
       d="m 235.643,131 c 1.301,0 2.357,-1.343 2.357,-3 0,-1.657 -1.056,-3 -2.357,-3 h -6.286 c -1.302,0 -2.357,1.343 -2.357,3 0,1.657 1.055,3 2.357,3 z"
       fill="#f2be6b"
       id="path45" />
    <path
       d="m 238,141 c 0,1.657 -1.056,3 -2.357,3 h -6.286 c -1.302,0 -2.357,-1.343 -2.357,-3 0,-1.657 1.055,-3 2.357,-3 h 6.286 c 1.301,0 2.357,1.343 2.357,3 z"
       fill="#f2be6b"
       id="path46" />
    <path
       d="m 235.643,157 c 1.301,0 2.357,-1.343 2.357,-3 0,-1.657 -1.056,-3 -2.357,-3 h -6.286 c -1.302,0 -2.357,1.343 -2.357,3 0,1.657 1.055,3 2.357,3 z"
       fill="#f2be6b"
       id="path47" />
    <path
       d="m 238,166 c 0,1.657 -1.056,3 -2.357,3 h -6.286 c -1.302,0 -2.357,-1.343 -2.357,-3 0,-1.657 1.055,-3 2.357,-3 h 6.286 c 1.301,0 2.357,1.343 2.357,3 z"
       fill="#f2be6b"
       id="path48" />
    <path
       d="m 28.6425,118 c 1.3018,0 2.3572,-1.343 2.3572,-3 0,-1.657 -1.0554,-3 -2.3572,-3 h -6.2857 c -1.3018,0 -2.3571,1.343 -2.3571,3 0,1.657 1.0553,3 2.3571,3 z"
       fill="#f2be6b"
       id="path49" />
    <path
       d="m 30.9997,128 c 0,1.657 -1.0554,3 -2.3572,3 h -6.2857 c -1.3018,0 -2.3571,-1.343 -2.3571,-3 0,-1.657 1.0553,-3 2.3571,-3 h 6.2857 c 1.3018,0 2.3572,1.343 2.3572,3 z"
       fill="#f2be6b"
       id="path50" />
    <path
       d="m 28.6425,144 c 1.3018,0 2.3572,-1.343 2.3572,-3 0,-1.657 -1.0554,-3 -2.3572,-3 h -6.2857 c -1.3018,0 -2.3571,1.343 -2.3571,3 0,1.657 1.0553,3 2.3571,3 z"
       fill="#f2be6b"
       id="path51" />
    <path
       d="m 30.9997,154 c 0,1.657 -1.0554,3 -2.3572,3 h -6.2857 c -1.3018,0 -2.3571,-1.343 -2.3571,-3 0,-1.657 1.0553,-3 2.3571,-3 h 6.2857 c 1.3018,0 2.3572,1.343 2.3572,3 z"
       fill="#f2be6b"
       id="path52"
       inkscape:label="path52" />
    <path
       d="m 28.6425,170 c 1.3018,0 2.3572,-1.343 2.3572,-3 0,-1.657 -1.0554,-3 -2.3572,-3 h -6.2857 c -1.3018,0 -2.3571,1.343 -2.3571,3 0,1.657 1.0553,3 2.3571,3 z"
       fill="#f2be6b"
       id="path53" />
    <path
       d="m 28.6425,107 c 1.3018,0 2.3572,-1.343 2.3572,-3 0,-1.657 -1.0554,-3 -2.3572,-3 h -6.2857 c -1.3018,0 -2.3571,1.343 -2.3571,3 0,1.657 1.0553,3 2.3571,3 z"
       fill="#f2be6b"
       id="path3" />
  </g>
  <g
     filter="url(#filter3_i_1141_27809)"
     id="g74"
     style="display:inline"
     transform="translate(0,3)">
    <path
       d="m 141.9,123.6 c 1.822,0 3.3,-1.477 3.3,-3.3 0,-1.823 -1.478,-3.3 -3.3,-3.3 -1.823,0 -3.3,1.477 -3.3,3.3 0,1.823 1.477,3.3 3.3,3.3 z"
       fill="#a07044"
       id="path54" />
    <path
       d="m 145.2,142.1 c 0,1.823 -1.478,3.3 -3.3,3.3 -1.823,0 -3.3,-1.477 -3.3,-3.3 0,-1.823 1.477,-3.3 3.3,-3.3 1.822,0 3.3,1.477 3.3,3.3 z"
       fill="#a07044"
       id="path55" />
    <path
       d="m 141.9,167.2 c 1.822,0 3.3,-1.477 3.3,-3.3 0,-1.823 -1.478,-3.3 -3.3,-3.3 -1.823,0 -3.3,1.477 -3.3,3.3 0,1.823 1.477,3.3 3.3,3.3 z"
       fill="#a07044"
       id="path56" />
    <path
       d="m 117.4,120.3 c 0,1.823 -1.478,3.3 -3.3,3.3 -1.823,0 -3.3,-1.477 -3.3,-3.3 0,-1.823 1.477,-3.3 3.3,-3.3 1.822,0 3.3,1.477 3.3,3.3 z"
       fill="#a07044"
       id="path57" />
    <path
       d="m 114.1,145.4 c 1.822,0 3.3,-1.477 3.3,-3.3 0,-1.823 -1.478,-3.3 -3.3,-3.3 -1.823,0 -3.3,1.477 -3.3,3.3 0,1.823 1.477,3.3 3.3,3.3 z"
       fill="#a07044"
       id="path58" />
    <path
       d="m 117.4,163.9 c 0,1.823 -1.478,3.3 -3.3,3.3 -1.823,0 -3.3,-1.477 -3.3,-3.3 0,-1.823 1.477,-3.3 3.3,-3.3 1.822,0 3.3,1.477 3.3,3.3 z"
       fill="#a07044"
       id="path59" />
    <path
       d="m 86.2998,123.6 c 1.8225,0 3.3,-1.477 3.3,-3.3 0,-1.823 -1.4775,-3.3 -3.3,-3.3 -1.8225,0 -3.3,1.477 -3.3,3.3 0,1.823 1.4775,3.3 3.3,3.3 z"
       fill="#a07044"
       id="path60" />
    <path
       d="m 89.5998,142.1 c 0,1.823 -1.4775,3.3 -3.3,3.3 -1.8225,0 -3.3,-1.477 -3.3,-3.3 0,-1.823 1.4775,-3.3 3.3,-3.3 1.8225,0 3.3,1.477 3.3,3.3 z"
       fill="#a07044"
       id="path61" />
    <path
       d="m 86.2998,167.2 c 1.8225,0 3.3,-1.477 3.3,-3.3 0,-1.823 -1.4775,-3.3 -3.3,-3.3 -1.8225,0 -3.3,1.477 -3.3,3.3 0,1.823 1.4775,3.3 3.3,3.3 z"
       fill="#a07044"
       id="path62" />
    <path
       d="m 63.3998,120.3 c 0,1.823 -1.4775,3.3 -3.3,3.3 -1.8225,0 -3.3,-1.477 -3.3,-3.3 0,-1.823 1.4775,-3.3 3.3,-3.3 1.8225,0 3.3,1.477 3.3,3.3 z"
       fill="#a07044"
       id="path63" />
    <path
       d="m 60.0998,145.4 c 1.8225,0 3.3,-1.477 3.3,-3.3 0,-1.823 -1.4775,-3.3 -3.3,-3.3 -1.8225,0 -3.3,1.477 -3.3,3.3 0,1.823 1.4775,3.3 3.3,3.3 z"
       fill="#a07044"
       id="path64" />
    <path
       d="m 63.3998,163.9 c 0,1.823 -1.4775,3.3 -3.3,3.3 -1.8225,0 -3.3,-1.477 -3.3,-3.3 0,-1.823 1.4775,-3.3 3.3,-3.3 1.8225,0 3.3,1.477 3.3,3.3 z"
       fill="#a07044"
       id="path65" />
    <path
       d="m 198.9,123.6 c 1.822,0 3.3,-1.477 3.3,-3.3 0,-1.823 -1.478,-3.3 -3.3,-3.3 -1.823,0 -3.3,1.477 -3.3,3.3 0,1.823 1.477,3.3 3.3,3.3 z"
       fill="#a07044"
       id="path66" />
    <path
       d="m 202.2,142.1 c 0,1.823 -1.478,3.3 -3.3,3.3 -1.823,0 -3.3,-1.477 -3.3,-3.3 0,-1.823 1.477,-3.3 3.3,-3.3 1.822,0 3.3,1.477 3.3,3.3 z"
       fill="#a07044"
       id="path67" />
    <path
       d="m 198.9,167.2 c 1.822,0 3.3,-1.477 3.3,-3.3 0,-1.823 -1.478,-3.3 -3.3,-3.3 -1.823,0 -3.3,1.477 -3.3,3.3 0,1.823 1.477,3.3 3.3,3.3 z"
       fill="#a07044"
       id="path68" />
    <path
       d="m 174.4,120.3 c 0,1.823 -1.478,3.3 -3.3,3.3 -1.823,0 -3.3,-1.477 -3.3,-3.3 0,-1.823 1.477,-3.3 3.3,-3.3 1.822,0 3.3,1.477 3.3,3.3 z"
       fill="#a07044"
       id="path69" />
    <path
       d="m 171.1,145.4 c 1.822,0 3.3,-1.477 3.3,-3.3 0,-1.823 -1.478,-3.3 -3.3,-3.3 -1.823,0 -3.3,1.477 -3.3,3.3 0,1.823 1.477,3.3 3.3,3.3 z"
       fill="#a07044"
       id="path70" />
    <path
       d="m 174.4,163.9 c 0,1.823 -1.478,3.3 -3.3,3.3 -1.823,0 -3.3,-1.477 -3.3,-3.3 0,-1.823 1.477,-3.3 3.3,-3.3 1.822,0 3.3,1.477 3.3,3.3 z"
       fill="#a07044"
       id="path71" />
    <path
       d="m 141.9,103.6 c 1.822,0 3.3,-1.477 3.3,-3.3 0,-1.8225 -1.478,-3.3 -3.3,-3.3 -1.823,0 -3.3,1.4775 -3.3,3.3 0,1.823 1.477,3.3 3.3,3.3 z"
       fill="#a07044"
       id="path72" />
    <path
       d="m 198.9,103.6 c 1.822,0 3.3,-1.477 3.3,-3.3 0,-1.8225 -1.478,-3.3 -3.3,-3.3 -1.823,0 -3.3,1.4775 -3.3,3.3 0,1.823 1.477,3.3 3.3,3.3 z"
       fill="#a07044"
       id="path73" />
    <path
       d="m 174.4,100.3 c 0,1.823 -1.478,3.3 -3.3,3.3 -1.823,0 -3.3,-1.477 -3.3,-3.3 0,-1.8225 1.477,-3.3 3.3,-3.3 1.822,0 3.3,1.4775 3.3,3.3 z"
       fill="#a07044"
       id="path74" />
    <path
       d="m 60.1,103.6 c 1.822,0 3.3,-1.477 3.3,-3.3 0,-1.8225 -1.478,-3.3 -3.3,-3.3 -1.823,0 -3.3,1.4775 -3.3,3.3 0,1.823 1.477,3.3 3.3,3.3 z"
       fill="#a07044"
       id="path76" />
    <path
       d="m 113.8,103.6 c 1.822,0 3.3,-1.477 3.3,-3.3 0,-1.8225 -1.478,-3.3 -3.3,-3.3 -1.823,0 -3.3,1.4775 -3.3,3.3 0,1.823 1.477,3.3 3.3,3.3 z"
       fill="#a07044"
       id="path77" />
    <path
       d="m 89.3,100.3 c 0,1.823 -1.478,3.3 -3.3,3.3 -1.823,0 -3.3,-1.477 -3.3,-3.3 0,-1.8225 1.477,-3.3 3.3,-3.3 1.822,0 3.3,1.4775 3.3,3.3 z"
       fill="#a07044"
       id="path78" />
  </g>
  <defs
     id="defs88">
    <linearGradient
       id="linearGradient2"
       inkscape:collect="always">
      <stop
         style="stop-color:#e29632;stop-opacity:1;"
         offset="0"
         id="stop2" />
      <stop
         style="stop-color:#f3c379;stop-opacity:1;"
         offset="1"
         id="stop3" />
    </linearGradient>
    <filter
       id="filter0_f_1141_27809"
       x="-20"
       y="25"
       width="298"
       height="184"
       filterUnits="userSpaceOnUse"
       color-interpolation-filters="sRGB">
      <feFlood
         flood-opacity="0"
         result="BackgroundImageFix"
         id="feFlood74" />
      <feBlend
         mode="normal"
         in="SourceGraphic"
         in2="BackgroundImageFix"
         result="shape"
         id="feBlend74" />
      <feGaussianBlur
         stdDeviation="18.5"
         result="effect1_foregroundBlur_1141_27809"
         id="feGaussianBlur74" />
    </filter>
    <filter
       id="filter1_d_1141_27809"
       x="13"
       y="62"
       width="232"
       height="156"
       filterUnits="userSpaceOnUse"
       color-interpolation-filters="sRGB">
      <feFlood
         flood-opacity="0"
         result="BackgroundImageFix"
         id="feFlood75" />
      <feColorMatrix
         type="matrix"
         values="0 0 0 0 0 0 0 0 0 0 0 0 0 0 0 0 0 0 127 0"
         result="hardAlpha"
         id="feColorMatrix75"
         in="SourceAlpha" />
      <feOffset
         dy="4"
         id="feOffset75" />
      <feGaussianBlur
         stdDeviation="2"
         id="feGaussianBlur75" />
      <feComposite
         in2="hardAlpha"
         operator="out"
         id="feComposite75" />
      <feColorMatrix
         type="matrix"
         values="0 0 0 0 0 0 0 0 0 0 0 0 0 0 0 0 0 0 0.25 0"
         id="feColorMatrix76" />
      <feBlend
         mode="normal"
         in2="BackgroundImageFix"
         result="effect1_dropShadow_1141_27809"
         id="feBlend76" />
      <feBlend
         mode="normal"
         in="SourceGraphic"
         in2="effect1_dropShadow_1141_27809"
         result="shape"
         id="feBlend77" />
    </filter>
    <filter
       id="filter2_ii_1141_27809"
       x="17"
       y="62"
       width="224"
       height="148"
       filterUnits="userSpaceOnUse"
       color-interpolation-filters="sRGB">
      <feFlood
         flood-opacity="0"
         result="BackgroundImageFix"
         id="feFlood77"
         flood-color="rgb(0,0,0)" />
      <feBlend
         mode="luminosity"
         in="SourceGraphic"
         in2="BackgroundImageFix"
         result="shape"
         id="feBlend78" />
      <feColorMatrix
         in="SourceAlpha"
         type="matrix"
         values="0 0 0 0 0 0 0 0 0 0 0 0 0 0 0 0 0 0 127 0"
         result="hardAlpha"
         id="feColorMatrix78" />
      <feOffset
         dy="5"
         id="feOffset78" />
      <feGaussianBlur
         stdDeviation="2"
         id="feGaussianBlur2" />
      <feComposite
         operator="arithmetic"
         k2="-1"
         k3="1"
         id="feComposite78"
         in2="hardAlpha" />
      <feColorMatrix
         type="matrix"
         values="0 0 0 0 1 0 0 0 0 1 0 0 0 0 1 0 0 0 0.25 0"
         id="feColorMatrix79" />
      <feBlend
         mode="normal"
         in2="shape"
         result="effect1_innerShadow_1141_27809"
         id="feBlend79" />
      <feColorMatrix
         in="SourceAlpha"
         type="matrix"
         values="0 0 0 0 0 0 0 0 0 0 0 0 0 0 0 0 0 0 127 0"
         result="hardAlpha"
         id="feColorMatrix80" />
      <feOffset
         dy="-5"
         id="feOffset80"
         preserveAlpha="false" />
      <feGaussianBlur
         stdDeviation="2"
         id="feGaussianBlur1" />
      <feComposite
         in2="hardAlpha"
         operator="arithmetic"
         k2="-1"
         k3="1"
         id="feComposite80" />
      <feColorMatrix
         type="matrix"
         values="0 0 0 0 0.8 0 0 0 0 0.52549 0 0 0 0 0.227451 0 0 0 1 0"
         id="feColorMatrix81" />
      <feBlend
         mode="luminosity"
         in2="effect1_innerShadow_1141_27809"
         result="effect2_innerShadow_1141_27809"
         id="feBlend81" />
    </filter>
    <filter
       id="filter3_i_1141_27809"
       x="56.7998"
       y="97"
       width="145.4"
       height="70.1992"
       filterUnits="userSpaceOnUse"
       color-interpolation-filters="sRGB">
      <feFlood
         flood-opacity="0"
         result="BackgroundImageFix"
         id="feFlood81" />
      <feBlend
         mode="normal"
         in="SourceGraphic"
         in2="BackgroundImageFix"
         result="shape"
         id="feBlend82" />
      <feColorMatrix
         in="SourceAlpha"
         type="matrix"
         values="0 0 0 0 0 0 0 0 0 0 0 0 0 0 0 0 0 0 127 0"
         result="hardAlpha"
         id="feColorMatrix82" />
      <feOffset
         dy="0.942857"
         id="feOffset82" />
      <feComposite
         in2="hardAlpha"
         operator="arithmetic"
         k2="-1"
         k3="1"
         id="feComposite82" />
      <feColorMatrix
         type="matrix"
         values="0 0 0 0 0.886275 0 0 0 0 0.611765 0 0 0 0 0.25098 0 0 0 1 0"
         id="feColorMatrix83" />
      <feBlend
         mode="normal"
         in2="shape"
         result="effect1_innerShadow_1141_27809"
         id="feBlend83" />
    </filter>
    <linearGradient
       id="paint0_linear_1141_27809"
       x1="17"
       y1="34"
       x2="197.768"
       y2="215.142"
       gradientUnits="userSpaceOnUse">
      <stop
         stop-color="#05815D"
         id="stop83" />
      <stop
         offset="1"
         stop-color="#0C575F"
         id="stop84" />
    </linearGradient>
    <linearGradient
       id="paint1_linear_1141_27809"
       x1="17"
       y1="62"
       x2="241"
       y2="210"
       gradientUnits="userSpaceOnUse">
      <stop
         stop-color="#EEAA51"
         id="stop85" />
      <stop
         offset="1"
         stop-color="#E19530"
         id="stop86" />
    </linearGradient>
    <linearGradient
       id="paint2_linear_1141_27809"
       x1="65.928802"
       y1="67.2099"
       x2="151.04201"
       y2="229.918"
       gradientUnits="userSpaceOnUse">
      <stop
         stop-color="#F3C47A"
         id="stop87" />
      <stop
         offset="1"
         stop-color="#EFB04C"
         id="stop88" />
    </linearGradient>
    <linearGradient
       inkscape:collect="always"
       xlink:href="#linearGradient2"
       id="linearGradient3"
       x1="65.928802"
       y1="67.2099"
       x2="151.04201"
       y2="229.918"
       gradientUnits="userSpaceOnUse" />
  </defs>
</svg>
