<?xml version="1.0" encoding="UTF-8" standalone="no"?>
<svg
   viewBox="0 0 341.33334 341.33334"
   version="1.1"
   id="svg15"
   sodipodi:docname="folder-templates-big.svg"
   inkscape:version="1.4.2 (f4327f4, 2025-05-13)"
   xmlns:inkscape="http://www.inkscape.org/namespaces/inkscape"
   xmlns:sodipodi="http://sodipodi.sourceforge.net/DTD/sodipodi-0.dtd"
   xmlns:xlink="http://www.w3.org/1999/xlink"
   xmlns="http://www.w3.org/2000/svg"
   xmlns:svg="http://www.w3.org/2000/svg">
  <sodipodi:namedview
     id="namedview15"
     pagecolor="#ffffff"
     bordercolor="#000000"
     borderopacity="0.25"
     inkscape:showpageshadow="2"
     inkscape:pageopacity="0.0"
     inkscape:pagecheckerboard="0"
     inkscape:deskcolor="#d1d1d1"
     inkscape:zoom="2.3642577"
     inkscape:cx="170.45519"
     inkscape:cy="170.66667"
     inkscape:window-width="1920"
     inkscape:window-height="1009"
     inkscape:window-x="-8"
     inkscape:window-y="-8"
     inkscape:window-maximized="1"
     inkscape:current-layer="svg15" />
  <defs
     id="defs10">
    <linearGradient
       id="linearGradient1">
      <stop
         style="stop-color:#3a2812;stop-opacity:1;"
         offset="0"
         id="stop1" />
      <stop
         style="stop-color:#5e411d;stop-opacity:1;"
         offset="1"
         id="stop2" />
    </linearGradient>
    <linearGradient
       x1="0.78923047"
       y1="-0.13212466"
       x2="0.21087478"
       y2="0.078379586"
       gradientUnits="userSpaceOnUse"
       gradientTransform="matrix(223.99998,-147.99998,147.99998,223.99998,16.999996,194)"
       spreadMethod="pad"
       id="linearGradient85">
      <stop
         style="stop-color:#ffcb3a;stop-opacity:1;"
         offset="0"
         id="stop3" />
      <stop
         style="stop-color:#ffe69e;stop-opacity:1;"
         offset="1"
         id="stop4" />
    </linearGradient>
    <linearGradient
       x1="0.87531334"
       y1="-0.082107842"
       x2="0.30785841"
       y2="0.20139237"
       gradientUnits="userSpaceOnUse"
       gradientTransform="matrix(298.66663,197.3333,197.3333,-298.66663,21.450558,82.66667)"
       spreadMethod="pad"
       id="linearGradient12"
       xlink:href="#linearGradient85">
      <stop
         style="stop-color:#9c6c30;stop-opacity:1;"
         offset="0"
         id="stop5" />
      <stop
         style="stop-color:#cf9f63;stop-opacity:1;"
         offset="1"
         id="stop6" />
    </linearGradient>
    <linearGradient
       x1="0"
       y1="0"
       x2="1"
       y2="0"
       gradientUnits="userSpaceOnUse"
       gradientTransform="matrix(298.68998,3.3336072,3.3336072,-298.68998,21.351119,267.57677)"
       spreadMethod="pad"
       id="linearGradient14">
      <stop
         style="stop-color:#8a6128;stop-opacity:1;"
         offset="0"
         id="stop7" />
      <stop
         style="stop-color:#5e411d;stop-opacity:1;"
         offset="1"
         id="stop8" />
    </linearGradient>
    <linearGradient
       x1="0"
       y1="0"
       x2="1"
       y2="0"
       gradientUnits="userSpaceOnUse"
       gradientTransform="matrix(298.66666,0,0,-298.66666,21.450563,101.33334)"
       spreadMethod="pad"
       id="linearGradient16">
      <stop
         style="stop-color:#e1c39e;stop-opacity:1;"
         offset="0"
         id="stop9" />
      <stop
         style="stop-color:#d4ac77;stop-opacity:1;"
         offset="1"
         id="stop10" />
    </linearGradient>
    <filter
       style="color-interpolation-filters:sRGB;"
       id="filter123"
       x="-0.064285714"
       y="-0.097297297"
       width="1.1285714"
       height="1.2013514">
      <feFlood
         result="flood"
         in="SourceGraphic"
         flood-opacity="1.000000"
         flood-color="#ad7900"
         id="feFlood122" />
      <feGaussianBlur
         result="blur"
         in="SourceGraphic"
         stdDeviation="6.000000"
         id="feGaussianBlur122" />
      <feOffset
         result="offset"
         in="blur"
         dx="0.000000"
         dy="1.000000"
         id="feOffset122" />
      <feComposite
         result="comp1"
         operator="in"
         in="flood"
         in2="offset"
         id="feComposite122" />
      <feComposite
         result="comp2"
         operator="over"
         in="SourceGraphic"
         in2="comp1"
         id="feComposite123" />
    </filter>
    <mask
       maskUnits="userSpaceOnUse"
       id="shadow-mask">
      <path
         d="m 116.459,194 -9.873,-7.402 C 102.605,183.613 97.764002,182 92.788997,182 v 0 H 87.000002 29 c -6.628,0 -12,-5.372 -12,-12 v 0 -22 -90.000001 c 0,-6.627 5.372,-12 12,-12 v 0 h 200 c 6.627,0 12,5.373 12,12 v 0 V 148 182 c 0,6.627 -5.373,12 -12,12 v 0 z m -12.034,19.6216 c -4.369,5.305 -10.881,8.378 -17.754,8.378 H 29 c -6.627,0 -12,-5.372 -12,-12 v -12.137 -10.063 -91.799995 c 0,-6.627 5.373,-12 12,-12 h 200 c 6.627,0 12,5.373 12,12 V 185.8626 c 0,6.628 -5.373,12 -12,12 H 117.404 Z"
         fill="#efb122"
         id="path10" />
    </mask>
    <linearGradient
       xlink:href="#linearGradient1"
       id="linearGradient2"
       x1="180.11719"
       y1="45.462238"
       x2="78.204208"
       y2="221.9807"
       gradientUnits="userSpaceOnUse"
       gradientTransform="matrix(1.3333333,0,0,-1.3333333,-1.2161031,341.33333)" />
    <filter
       style="color-interpolation-filters:sRGB;"
       inkscape:label="Blur"
       id="filter41"
       x="-8.0466241e-05"
       y="-0.2226813"
       width="1.0001609"
       height="1.4453626">
      <feGaussianBlur
         stdDeviation="0.01 10"
         result="blur"
         id="feGaussianBlur41" />
    </filter>
    <filter
       style="color-interpolation-filters:sRGB"
       inkscape:label="Drop Shadow"
       id="filter97"
       x="-0.94961376"
       y="-1.1095256"
       width="2.8992275"
       height="3.3731519">
      <feFlood
         result="flood"
         in="SourceGraphic"
         flood-opacity="0.749020"
         flood-color="rgb(0,0,0)"
         id="feFlood96" />
      <feGaussianBlur
         result="blur"
         in="SourceGraphic"
         stdDeviation="6.000000"
         id="feGaussianBlur96" />
      <feOffset
         result="offset"
         in="blur"
         dx="0.000000"
         dy="2.000000"
         id="feOffset96" />
      <feComposite
         result="comp1"
         operator="in"
         in="flood"
         in2="offset"
         id="feComposite96" />
      <feComposite
         result="comp2"
         operator="over"
         in="SourceGraphic"
         in2="comp1"
         id="feComposite97" />
    </filter>
    <filter
       style="color-interpolation-filters:sRGB;"
       inkscape:label="Drop Shadow"
       id="filter26"
       x="-0.081798671"
       y="-0.070891625"
       width="1.1635973"
       height="1.1565523">
      <feFlood
         result="flood"
         in="SourceGraphic"
         flood-opacity="0.670588"
         flood-color="rgb(0,0,0)"
         id="feFlood25" />
      <feGaussianBlur
         result="blur"
         in="SourceGraphic"
         stdDeviation="4.000000"
         id="feGaussianBlur25" />
      <feOffset
         result="offset"
         in="blur"
         dx="0.000000"
         dy="2.000000"
         id="feOffset25" />
      <feComposite
         result="comp1"
         operator="in"
         in="flood"
         in2="offset"
         id="feComposite25" />
      <feComposite
         result="comp2"
         operator="over"
         in="SourceGraphic"
         in2="comp1"
         id="feComposite26" />
    </filter>
  </defs>
  <path
     style="display:inline;fill:url(#linearGradient2)"
     d="m 154.06256,82.66667 -13.164,9.869333 c -5.308,3.98 -11.76267,6.130666 -18.396,6.130666 v 0 h -7.71867 -77.333327 c -8.837334,0 -16,7.162671 -16,16.000001 v 0 V 144 264 c 0,8.836 7.162666,16 16,16 v 0 H 304.11722 c 8.836,0 16,-7.164 16,-16 v 0 -120 -45.333331 c 0,-8.835999 -7.164,-15.999999 -16,-15.999999 v 0 z M 138.01722,56.504537 c -5.82533,-7.073333 -14.508,-11.170666 -23.672,-11.170666 H 37.450563 c -8.836,0 -16,7.162666 -16,15.999999 V 77.516537 90.93387 213.33386 c 0,8.836 7.164,16 16,16 H 304.11722 c 8.836,0 16,-7.164 16,-16 V 93.516536 c 0,-8.837333 -7.164,-15.999999 -16,-15.999999 H 155.32256 Z"
     id="path11"
     inkscape:label="back" />
  <path
     d="M 319.73572,103 H 34.046266 C 26.857241,104.56025 21.474,110.9586 21.474,118.61524 v 29.29297 62.86914 h 298.26172 v -62.86914 z"
     style="display:inline;fill:#000000;filter:url(#filter41);fill-opacity:1"
     id="path42"
     inkscape:label="shadow" />
  <path
     d="m 154.06256,82.66667 -13.164,9.869333 c -5.308,3.98 -11.76267,6.130666 -18.396,6.130666 v 0 h -7.71867 -77.333327 c -8.837334,0 -16,7.162671 -16,16.000001 v 0 V 144 264 c 0,8.836 7.162666,16 16,16 v 0 H 304.11722 c 8.836,0 16,-7.164 16,-16 v 0 -120 -45.333331 c 0,-8.835999 -7.164,-15.999999 -16,-15.999999 v 0 z"
     style="display:inline;fill:url(#linearGradient12)"
     id="path13"
     inkscape:label="front" />
  <path
     d="M 304.11722,274.66666 H 37.450563 c -8.837334,0 -16,-7.16266 -16,-15.99999 v 0 V 264 c 0,8.836 7.162666,16 16,16 v 0 H 304.11722 c 8.836,0 16,-7.164 16,-16 v 0 -5.33333 c 0,8.83733 -7.164,15.99999 -16,15.99999"
     style="display:inline;fill:url(#linearGradient14)"
     id="path14"
     inkscape:label="bottom" />
  <path
     d="m 154.06256,82.66667 -13.164,9.869333 c -5.308,3.98 -11.76267,6.130666 -18.396,6.130666 v 0 h -7.71867 -77.333327 c -8.837334,0 -16,7.162671 -16,16.000001 v 0 V 120 c 0,-8.836 7.162666,-16 16,-16 v 0 h 77.333327 7.71867 c 6.63333,0 13.088,-2.15066 18.396,-6.129331 v 0 l 13.164,-9.870666 h 150.05466 c 8.836,0 16,7.162666 16,15.999997 v 0 -5.333331 c 0,-8.835999 -7.164,-15.999999 -16,-15.999999 v 0 z"
     style="display:inline;fill:url(#linearGradient16)"
     id="path15"
     inkscape:label="top" />
  <path
     id="path17"
     style="display:inline;fill:#ffffff;stroke-width:8;filter:url(#filter26)"
     d="m 125.63672,116.01172 c -6.69667,0 -12.32513,4.76163 -13.54297,11.08398 l -0.0312,0.15821 v 1.43554 c -0.0297,0.32635 -0.0469,0.65527 -0.0469,0.98828 V 146.5 h 117.30079 v -1.98047 h 0.0605 v -17.10742 c -0.0306,-0.12227 -0.0629,-0.24458 -0.0976,-0.36523 v -0.3125 l -0.0449,-0.1875 c -1.4223,-6.05044 -6.92287,-10.53516 -13.41993,-10.53516 z M 112.01562,148.5 v 78.15039 12.77344 c 0,3.1167 1.23008,5.9493 3.25782,8.07812 0.25049,0.2855 0.5241,0.54771 0.82031,0.78907 2.21005,1.95354 5.1263,3.13867 8.36133,3.13867 h 2.72461 v -12.97852 h -14.36524 v -0.37305 -1.49218 h 14.36524 v -13.76172 h -14.36133 v -0.37305 -1.49023 h 14.36133 v -13.75782 h -14.36133 v -0.37304 -1.49024 h 14.36133 v -13.75781 h -14.36133 v -0.37305 -1.49023 h 14.36133 v -13.75586 h -14.36133 v -0.37305 -1.49218 h 14.36133 v -13.75782 h -14.36133 v -0.37109 -1.49219 h 14.36133 V 148.5 Z m 19.49219,0 v 9.97656 h 96.99414 v 1.49219 0.37109 h -96.99414 v 13.75782 h 96.99414 v 1.49218 0.37305 h -96.99414 v 13.75586 h 96.99414 v 1.49023 0.37305 h -96.99414 v 13.75781 h 96.99414 v 1.49024 0.37304 h -96.99414 v 13.75782 h 96.99414 v 1.49023 0.37305 h -96.99414 v 13.76172 h 73.15039 v -9.11719 h 24.65821 V 226.65039 148.5 Z m 97.8086,79.9082 -11.22852,10.82032 -12.6875,12.20117 h 11.47852 c 3.23502,0 6.15127,-1.18513 8.36132,-3.13867 0.29621,-0.24136 0.56982,-0.50357 0.82032,-0.78907 2.02773,-2.12882 3.25586,-4.96142 3.25586,-8.07812 z m -97.8086,10.04297 v 12.97852 h 6.25196 65.81445 1.08398 v -12.97852 z" />
</svg>
