<?xml version="1.0" encoding="UTF-8" standalone="no"?>
<svg
   viewBox="0 0 341.33334 341.33334"
   version="1.1"
   id="svg15"
   sodipodi:docname="folder-azure-big.svg"
   inkscape:version="1.4.2 (f4327f4, 2025-05-13)"
   xmlns:inkscape="http://www.inkscape.org/namespaces/inkscape"
   xmlns:sodipodi="http://sodipodi.sourceforge.net/DTD/sodipodi-0.dtd"
   xmlns:xlink="http://www.w3.org/1999/xlink"
   xmlns="http://www.w3.org/2000/svg"
   xmlns:svg="http://www.w3.org/2000/svg">
  <sodipodi:namedview
     id="namedview15"
     pagecolor="#ffffff"
     bordercolor="#000000"
     borderopacity="0.25"
     inkscape:showpageshadow="2"
     inkscape:pageopacity="0.0"
     inkscape:pagecheckerboard="0"
     inkscape:deskcolor="#d1d1d1"
     inkscape:zoom="2.3642577"
     inkscape:cx="170.45519"
     inkscape:cy="170.66667"
     inkscape:window-width="1920"
     inkscape:window-height="1009"
     inkscape:window-x="-8"
     inkscape:window-y="-8"
     inkscape:window-maximized="1"
     inkscape:current-layer="g24" />
  <defs
     id="defs10">
    <linearGradient
       id="linearGradient1">
      <stop
         style="stop-color:#104b8c;stop-opacity:1;"
         offset="0"
         id="stop1" />
      <stop
         style="stop-color:#0765b6;stop-opacity:1;"
         offset="1"
         id="stop2" />
    </linearGradient>
    <linearGradient
       x1="0.78923047"
       y1="-0.13212466"
       x2="0.21087478"
       y2="0.078379586"
       gradientUnits="userSpaceOnUse"
       gradientTransform="matrix(223.99998,-147.99998,147.99998,223.99998,16.999996,194)"
       spreadMethod="pad"
       id="linearGradient85">
      <stop
         style="stop-color:#ffcb3a;stop-opacity:1;"
         offset="0"
         id="stop3" />
      <stop
         style="stop-color:#ffe69e;stop-opacity:1;"
         offset="1"
         id="stop4" />
    </linearGradient>
    <linearGradient
       x1="0.87531334"
       y1="-0.082107842"
       x2="0.30785841"
       y2="0.20139237"
       gradientUnits="userSpaceOnUse"
       gradientTransform="matrix(298.66663,197.3333,197.3333,-298.66663,21.450558,82.66667)"
       spreadMethod="pad"
       id="linearGradient12"
       xlink:href="#linearGradient85">
      <stop
         style="stop-color:#0078d4;stop-opacity:1;"
         offset="0"
         id="stop5" />
      <stop
         style="stop-color:#3ccbf4;stop-opacity:1;"
         offset="1"
         id="stop6" />
    </linearGradient>
    <linearGradient
       x1="0"
       y1="0"
       x2="1"
       y2="0"
       gradientUnits="userSpaceOnUse"
       gradientTransform="matrix(298.68998,3.3336072,3.3336072,-298.68998,21.351119,267.57677)"
       spreadMethod="pad"
       id="linearGradient14">
      <stop
         style="stop-color:#0091ff;stop-opacity:1;"
         offset="0"
         id="stop7" />
      <stop
         style="stop-color:#0760ac;stop-opacity:1;"
         offset="1"
         id="stop8" />
    </linearGradient>
    <linearGradient
       x1="0"
       y1="0"
       x2="1"
       y2="0"
       gradientUnits="userSpaceOnUse"
       gradientTransform="matrix(298.66666,0,0,-298.66666,21.450563,101.33334)"
       spreadMethod="pad"
       id="linearGradient16">
      <stop
         style="stop-color:#9ecef0;stop-opacity:1;"
         offset="0"
         id="stop9" />
      <stop
         style="stop-color:#3ccaf4;stop-opacity:1;"
         offset="1"
         id="stop10" />
    </linearGradient>
    <filter
       style="color-interpolation-filters:sRGB;"
       id="filter123"
       x="-0.064285714"
       y="-0.097297297"
       width="1.1285714"
       height="1.2013514">
      <feFlood
         result="flood"
         in="SourceGraphic"
         flood-opacity="1.000000"
         flood-color="#ad7900"
         id="feFlood122" />
      <feGaussianBlur
         result="blur"
         in="SourceGraphic"
         stdDeviation="6.000000"
         id="feGaussianBlur122" />
      <feOffset
         result="offset"
         in="blur"
         dx="0.000000"
         dy="1.000000"
         id="feOffset122" />
      <feComposite
         result="comp1"
         operator="in"
         in="flood"
         in2="offset"
         id="feComposite122" />
      <feComposite
         result="comp2"
         operator="over"
         in="SourceGraphic"
         in2="comp1"
         id="feComposite123" />
    </filter>
    <mask
       maskUnits="userSpaceOnUse"
       id="shadow-mask">
      <path
         d="m 116.459,194 -9.873,-7.402 C 102.605,183.613 97.764002,182 92.788997,182 v 0 H 87.000002 29 c -6.628,0 -12,-5.372 -12,-12 v 0 -22 -90.000001 c 0,-6.627 5.372,-12 12,-12 v 0 h 200 c 6.627,0 12,5.373 12,12 v 0 V 148 182 c 0,6.627 -5.373,12 -12,12 v 0 z m -12.034,19.6216 c -4.369,5.305 -10.881,8.378 -17.754,8.378 H 29 c -6.627,0 -12,-5.372 -12,-12 v -12.137 -10.063 -91.799995 c 0,-6.627 5.373,-12 12,-12 h 200 c 6.627,0 12,5.373 12,12 V 185.8626 c 0,6.628 -5.373,12 -12,12 H 117.404 Z"
         fill="#efb122"
         id="path10" />
    </mask>
    <linearGradient
       xlink:href="#linearGradient1"
       id="linearGradient2"
       x1="180.11719"
       y1="45.462238"
       x2="78.204208"
       y2="221.9807"
       gradientUnits="userSpaceOnUse"
       gradientTransform="matrix(1.3333333,0,0,-1.3333333,-1.2161031,341.33333)" />
    <filter
       style="color-interpolation-filters:sRGB;"
       inkscape:label="Blur"
       id="filter41"
       x="0"
       y="-0.2226813"
       width="1"
       height="1.4453626">
      <feGaussianBlur
         stdDeviation="0 10"
         result="blur"
         id="feGaussianBlur41" />
    </filter>
    <linearGradient
       id="paint2_linear_2031_34559"
       x1="122.359"
       y1="92.495903"
       x2="89.3741"
       y2="189.944"
       gradientUnits="userSpaceOnUse">
      <stop
         stop-color="#114A8B"
         id="stop16"
         offset="0"
         style="stop-color:#d9d9d9;stop-opacity:1;" />
      <stop
         offset="1"
         stop-color="#0669BC"
         id="stop17"
         style="stop-color:#f2f2f2;stop-opacity:1;" />
    </linearGradient>
    <linearGradient
       id="paint3_linear_2031_34559"
       x1="132.66299"
       y1="137.91"
       x2="125.033"
       y2="140.49001"
       gradientUnits="userSpaceOnUse">
      <stop
         stop-opacity="0.3"
         id="stop18" />
      <stop
         offset="0.071"
         stop-opacity="0.2"
         id="stop19" />
      <stop
         offset="0.321"
         stop-opacity="0.1"
         id="stop20" />
      <stop
         offset="0.623"
         stop-opacity="0.05"
         id="stop21" />
      <stop
         offset="1"
         stop-opacity="0"
         id="stop22" />
    </linearGradient>
    <linearGradient
       id="paint4_linear_2031_34559"
       x1="128.468"
       y1="89.654404"
       x2="164.67599"
       y2="186.12"
       gradientUnits="userSpaceOnUse">
      <stop
         stop-color="#3CCBF4"
         id="stop23"
         offset="0"
         style="stop-color:#ffffff;stop-opacity:1;" />
      <stop
         offset="1"
         stop-color="#2892DF"
         id="stop24"
         style="stop-color:#d9d9d9;stop-opacity:1;" />
    </linearGradient>
    <filter
       style="color-interpolation-filters:sRGB;"
       inkscape:label="Drop Shadow"
       id="filter18"
       x="-0.043580085"
       y="-0.04471865"
       width="1.0871602"
       height="1.1080701">
      <feFlood
         result="flood"
         in="SourceGraphic"
         flood-opacity="0.329412"
         flood-color="rgb(0,0,0)"
         id="feFlood17" />
      <feGaussianBlur
         result="blur"
         in="SourceGraphic"
         stdDeviation="2.000000"
         id="feGaussianBlur17" />
      <feOffset
         result="offset"
         in="blur"
         dx="0.000000"
         dy="2.000000"
         id="feOffset17" />
      <feComposite
         result="comp1"
         operator="in"
         in="flood"
         in2="offset"
         id="feComposite17" />
      <feComposite
         result="comp2"
         operator="over"
         in="SourceGraphic"
         in2="comp1"
         id="feComposite18" />
    </filter>
    <filter
       style="color-interpolation-filters:sRGB;"
       inkscape:label="Drop Shadow"
       id="filter20"
       x="-0.18033996"
       y="-0.21624437"
       width="1.3606851"
       height="1.4886487">
      <feFlood
         result="flood"
         in="SourceGraphic"
         flood-opacity="0.329412"
         flood-color="rgb(0,0,0)"
         id="feFlood18" />
      <feGaussianBlur
         result="blur"
         in="SourceGraphic"
         stdDeviation="2.000000"
         id="feGaussianBlur18" />
      <feOffset
         result="offset"
         in="blur"
         dx="0.000000"
         dy="2.000000"
         id="feOffset18" />
      <feComposite
         result="comp1"
         operator="in"
         in="flood"
         in2="offset"
         id="feComposite19" />
      <feComposite
         result="comp2"
         operator="over"
         in="SourceGraphic"
         in2="comp1"
         id="feComposite20" />
    </filter>
  </defs>
  <path
     style="display:inline;fill:url(#linearGradient2)"
     d="m 154.06256,82.66667 -13.164,9.869333 c -5.308,3.98 -11.76267,6.130666 -18.396,6.130666 v 0 h -7.71867 -77.333327 c -8.837334,0 -16,7.162671 -16,16.000001 v 0 V 144 264 c 0,8.836 7.162666,16 16,16 v 0 H 304.11722 c 8.836,0 16,-7.164 16,-16 v 0 -120 -45.333331 c 0,-8.835999 -7.164,-15.999999 -16,-15.999999 v 0 z M 138.01722,56.504537 c -5.82533,-7.073333 -14.508,-11.170666 -23.672,-11.170666 H 37.450563 c -8.836,0 -16,7.162666 -16,15.999999 V 77.516537 90.93387 213.33386 c 0,8.836 7.164,16 16,16 H 304.11722 c 8.836,0 16,-7.164 16,-16 V 93.516536 c 0,-8.837333 -7.164,-15.999999 -16,-15.999999 H 155.32256 Z"
     id="path11"
     inkscape:label="back" />
  <path
     d="M 319.73572,103 H 34.046266 C 26.857241,104.56025 21.474,110.9586 21.474,118.61524 v 29.29297 62.86914 h 298.26172 v -62.86914 z"
     style="display:inline;fill:#08284a;filter:url(#filter41);fill-opacity:1"
     id="path42"
     inkscape:label="shadow" />
  <path
     d="m 154.06256,82.66667 -13.164,9.869333 c -5.308,3.98 -11.76267,6.130666 -18.396,6.130666 v 0 h -7.71867 -77.333327 c -8.837334,0 -16,7.162671 -16,16.000001 v 0 V 144 264 c 0,8.836 7.162666,16 16,16 v 0 H 304.11722 c 8.836,0 16,-7.164 16,-16 v 0 -120 -45.333331 c 0,-8.835999 -7.164,-15.999999 -16,-15.999999 v 0 z"
     style="display:inline;fill:url(#linearGradient12)"
     id="path13"
     inkscape:label="front" />
  <path
     d="M 304.11722,274.66666 H 37.450563 c -8.837334,0 -16,-7.16266 -16,-15.99999 v 0 V 264 c 0,8.836 7.162666,16 16,16 v 0 H 304.11722 c 8.836,0 16,-7.164 16,-16 v 0 -5.33333 c 0,8.83733 -7.164,15.99999 -16,15.99999"
     style="display:inline;fill:url(#linearGradient14)"
     id="path14"
     inkscape:label="bottom" />
  <path
     d="m 154.06256,82.66667 -13.164,9.869333 c -5.308,3.98 -11.76267,6.130666 -18.396,6.130666 v 0 h -7.71867 -77.333327 c -8.837334,0 -16,7.162671 -16,16.000001 v 0 V 120 c 0,-8.836 7.162666,-16 16,-16 v 0 h 77.333327 7.71867 c 6.63333,0 13.088,-2.15066 18.396,-6.129331 v 0 l 13.164,-9.870666 h 150.05466 c 8.836,0 16,7.162666 16,15.999997 v 0 -5.333331 c 0,-8.835999 -7.164,-15.999999 -16,-15.999999 v 0 z"
     style="display:inline;fill:url(#linearGradient16)"
     id="path15"
     inkscape:label="top" />
  <g
     id="g24"
     transform="matrix(1.304294,0,0,1.304294,0.88967852,7.0133882)"
     inkscape:label="A"
     style="stroke:#ffffff;stroke-width:5.80204;stroke-dasharray:none;stroke-opacity:1">
    <path
       id="path9"
       style="stroke:none;stroke-width:5.80204;stroke-dasharray:none;stroke-opacity:1;baseline-shift:baseline;display:inline;overflow:visible;vector-effect:none;fill:#ffffff;enable-background:accumulate;stop-color:#000000;stop-opacity:1;opacity:1;filter:url(#filter18)"
       d="M 110.87998 82.026454 C 109.81998 82.026556 108.78649 82.379517 107.92549 83.03574 C 107.06449 83.691816 106.41962 84.618996 106.08062 85.684743 L 75.361778 182.28424 C 75.105178 183.09084 75.033234 183.94984 75.152134 184.79248 C 75.271034 185.63516 75.576419 186.43505 76.044619 187.12702 C 76.512819 187.819 77.130263 188.38323 77.844563 188.77272 C 78.558863 189.16116 79.349345 189.36422 80.152145 189.36422 L 104.87218 189.36422 C 105.93118 189.36422 106.96366 189.01186 107.82366 188.35493 C 108.68466 187.70011 109.32953 186.77297 109.66853 185.70743 L 115.78864 166.46659 L 105.07583 155.8571 C 104.73383 155.51859 104.49449 155.07685 104.39149 154.59175 C 104.28749 154.10677 104.32429 153.60183 104.49631 153.13922 C 104.66831 152.67755 104.96885 152.28033 105.35585 152.00115 C 105.74285 151.72093 106.20112 151.57138 106.66912 151.57138 L 120.5251 151.57138 L 127.15884 130.7118 L 143.92587 180.39445 C 144.03551 180.71911 144.06642 181.06422 144.01572 181.40223 C 143.96482 181.74155 143.83321 182.06391 143.63237 182.34414 C 143.43097 182.62263 143.17136 182.84538 142.86717 183.00152 L 142.86567 183.00152 C 142.56346 183.15686 142.22475 183.23962 141.88334 183.23962 L 141.88334 189.04376 L 177.28174 189.04376 C 178.54412 189.04376 179.79021 188.74234 180.91457 188.16475 C 182.03872 187.58774 183.00862 186.75029 183.74477 185.72689 L 183.74626 185.7239 L 183.74776 185.7224 C 184.48206 184.69782 184.96446 183.51135 185.15088 182.26178 C 185.33812 181.01244 185.22382 179.7359 184.81994 178.5391 L 184.81994 178.5376 L 154.1011 87.516134 C 153.56928 85.938456 152.55376 84.565479 151.20052 83.594292 C 149.84907 82.624548 148.22471 82.101422 146.5599 82.101327 L 112.07495 82.101327 C 112.07209 82.100825 112.07032 82.10032 112.06746 82.099829 C 111.97826 82.084509 111.88642 82.083275 111.79642 82.072875 C 111.61758 82.052665 111.43844 82.027951 111.25734 82.027951 L 110.87998 82.027951 L 110.87998 82.026454 z M 118.83447 87.902478 L 146.5599 87.902478 C 147.0124 87.902392 147.44974 88.044212 147.81776 88.308289 C 148.18452 88.571502 148.45974 88.940767 148.60393 89.368489 L 179.32427 180.39445 C 179.43391 180.71911 179.46327 181.06422 179.41262 181.40223 L 179.41262 181.40373 L 179.41262 181.40673 C 179.36252 181.74355 179.23161 182.06391 179.03077 182.34414 C 178.82937 182.62263 178.56977 182.84538 178.26557 183.00152 L 178.26407 183.00152 C 177.96088 183.15736 177.62472 183.23962 177.28174 183.23962 L 149.35715 183.23962 C 149.45625 182.89882 149.70107 182.61475 149.75398 182.26178 C 149.94122 181.01244 149.82538 179.7359 149.42154 178.5391 L 149.42154 178.5376 L 118.83447 87.902478 z " />
    <path
       d="m 141.88309,186.14052 c 0.802,0 1.5935,-0.19111 2.3075,-0.55811 0.715,-0.367 1.33139,-0.89766 1.80039,-1.54966 0.468,-0.653 0.7734,-1.40727 0.8924,-2.20127 0.119,-0.794 0.0474,-1.60457 -0.20964,-2.36557 l -9.76545,-28.93655 h -30.33606 c -0.468,0 -0.92611,0.1397 -1.31311,0.4037 -0.387,0.263 -0.68641,0.6373 -0.85841,1.0723 -0.172,0.436 -0.20882,0.91277 -0.10482,1.36977 0.103,0.457 0.34217,0.87229 0.68417,1.19129 l 32.36452,30.20716 c 0.942,0.879 2.18387,1.36836 3.47187,1.36836 z"
       style="stroke:#ffffff;stroke-width:5.80204;stroke-dasharray:none;stroke-opacity:1;display:inline;fill:none;filter:url(#filter20)"
       id="path5"
       sodipodi:nodetypes="cccsccscccccsc" />
    <path
       d="m 151.352,88.4419 c -0.338,-1.0027 -0.982,-1.8739 -1.842,-2.4911 -0.86,-0.6171 -1.891,-0.949 -2.95,-0.9488 h -35.398 c 1.058,0 2.09,0.3319 2.949,0.9491 0.86,0.6171 1.504,1.4882 1.843,2.4908 l 30.72,91.0241 c 0.257,0.761 0.329,1.572 0.21,2.366 -0.119,0.794 -0.425,1.548 -0.893,2.201 -0.469,0.652 -1.085,1.183 -1.8,1.55 -0.714,0.367 -1.506,0.558 -2.308,0.558 h 35.399 c 0.803,0 1.594,-0.191 2.308,-0.558 0.715,-0.367 1.331,-0.898 1.8,-1.55 0.468,-0.653 0.774,-1.407 0.892,-2.201 0.119,-0.794 0.047,-1.605 -0.21,-2.366 z"
       fill="url(#paint4_linear_2031_34559)"
       id="path8"
       style="display:inline;fill:none;stroke:#ffffff;stroke-width:5.80204;stroke-dasharray:none;stroke-opacity:1" />
  </g>
  <g
     id="g16"
     transform="matrix(1.304294,0,0,1.304294,0.88967852,7.0133882)"
     inkscape:label="A"
     style="stroke:#ffffff;stroke-width:5.80204;stroke-dasharray:none;stroke-opacity:1" />
</svg>
