<?xml version="1.0" encoding="UTF-8" standalone="no"?>
<svg
   width="512"
   height="512"
   fill="none"
   version="1.1"
   id="svg1"
   sodipodi:docname="folder-.net-small.svg"
   inkscape:version="1.4.2 (f4327f4, 2025-05-13)"
   xmlns:inkscape="http://www.inkscape.org/namespaces/inkscape"
   xmlns:sodipodi="http://sodipodi.sourceforge.net/DTD/sodipodi-0.dtd"
   xmlns="http://www.w3.org/2000/svg"
   xmlns:svg="http://www.w3.org/2000/svg">
  <defs
     id="defs1">
    <filter
       style="color-interpolation-filters:sRGB;"
       inkscape:label="Drop Shadow"
       id="filter7"
       x="-0.02972127"
       y="-0.079778614"
       width="1.0594425"
       height="1.1927983">
      <feFlood
         result="flood"
         in="SourceGraphic"
         flood-opacity="0.666667"
         flood-color="rgb(0,0,0)"
         id="feFlood6" />
      <feGaussianBlur
         result="blur"
         in="SourceGraphic"
         stdDeviation="4.000000"
         id="feGaussianBlur6" />
      <feOffset
         result="offset"
         in="blur"
         dx="0.000000"
         dy="4.000000"
         id="feOffset6" />
      <feComposite
         result="comp1"
         operator="in"
         in="flood"
         in2="offset"
         id="feComposite6" />
      <feComposite
         result="comp2"
         operator="over"
         in="SourceGraphic"
         in2="comp1"
         id="feComposite7" />
    </filter>
  </defs>
  <sodipodi:namedview
     id="namedview1"
     pagecolor="#ffffff"
     bordercolor="#000000"
     borderopacity="0.25"
     inkscape:showpageshadow="2"
     inkscape:pageopacity="0.0"
     inkscape:pagecheckerboard="0"
     inkscape:deskcolor="#d1d1d1"
     inkscape:zoom="1.5761719"
     inkscape:cx="255.68278"
     inkscape:cy="256"
     inkscape:window-width="1920"
     inkscape:window-height="1009"
     inkscape:window-x="-8"
     inkscape:window-y="-8"
     inkscape:window-maximized="1"
     inkscape:current-layer="svg1" />
  <g
     fill="#512bd4"
     id="g1"
     transform="matrix(1.4860635,0,0,1.4860635,-87.528098,-87.528098)"
     style="filter:url(#filter7)">
    <path
       d="m 81.274,291.333 c -3.224,0 -5.965,-1.074 -8.222,-3.223 -2.257,-2.204 -3.386,-4.821 -3.386,-7.851 0,-3.086 1.129,-5.73 3.386,-7.934 2.257,-2.204 4.998,-3.306 8.222,-3.306 3.278,0 6.045,1.102 8.302,3.306 2.311,2.204 3.466,4.848 3.466,7.934 0,3.03 -1.155,5.647 -3.466,7.851 -2.257,2.149 -5.024,3.223 -8.302,3.223 z m 128.893,-1.818 h -20.958 l -55.215,-87.109 a 38.977,38.977 0 0 1 -3.466,-6.86 h -0.484 c 0.43,2.535 0.645,7.962 0.645,16.281 v 77.688 h -18.54 V 171 h 22.328 l 53.362,85.043 c 2.257,3.527 3.708,5.951 4.353,7.273 h 0.322 c -0.537,-3.14 -0.806,-8.457 -0.806,-15.951 V 171 h 18.459 z m 90.282,0 H 235.561 V 171 h 62.309 v 16.695 h -43.124 v 33.554 h 39.739 v 16.612 h -39.739 v 35.042 h 45.703 z m 92.218,-101.82 h -33.21 v 101.82 H 340.272 V 187.695 H 307.143 V 171 h 85.524 z"
       id="path1" />
  </g>
</svg>
