<?xml version="1.0" encoding="UTF-8" standalone="no"?>
<svg
   viewBox="0 0 341.33334 341.33334"
   version="1.1"
   id="svg15"
   sodipodi:docname="folder-favorites-big.svg"
   inkscape:version="1.4.2 (f4327f4, 2025-05-13)"
   xmlns:inkscape="http://www.inkscape.org/namespaces/inkscape"
   xmlns:sodipodi="http://sodipodi.sourceforge.net/DTD/sodipodi-0.dtd"
   xmlns:xlink="http://www.w3.org/1999/xlink"
   xmlns="http://www.w3.org/2000/svg"
   xmlns:svg="http://www.w3.org/2000/svg">
  <sodipodi:namedview
     id="namedview15"
     pagecolor="#ffffff"
     bordercolor="#000000"
     borderopacity="0.25"
     inkscape:showpageshadow="2"
     inkscape:pageopacity="0.0"
     inkscape:pagecheckerboard="0"
     inkscape:deskcolor="#d1d1d1"
     inkscape:zoom="2.3642577"
     inkscape:cx="170.66667"
     inkscape:cy="170.66667"
     inkscape:window-width="1920"
     inkscape:window-height="1009"
     inkscape:window-x="-8"
     inkscape:window-y="-8"
     inkscape:window-maximized="1"
     inkscape:current-layer="svg15" />
  <defs
     id="defs10">
    <linearGradient
       id="linearGradient3"
       inkscape:collect="always">
      <stop
         style="stop-color:#804000;stop-opacity:1;"
         offset="0"
         id="stop11" />
      <stop
         style="stop-color:#ffff80;stop-opacity:1;"
         offset="1"
         id="stop12" />
    </linearGradient>
    <linearGradient
       id="linearGradient1">
      <stop
         style="stop-color:#e0a42c;stop-opacity:1;"
         offset="0"
         id="stop1" />
      <stop
         style="stop-color:#febe18;stop-opacity:1;"
         offset="1"
         id="stop2" />
    </linearGradient>
    <linearGradient
       x1="0.78923047"
       y1="-0.13212466"
       x2="0.21087478"
       y2="0.078379586"
       gradientUnits="userSpaceOnUse"
       gradientTransform="matrix(223.99998,-147.99998,147.99998,223.99998,16.999996,194)"
       spreadMethod="pad"
       id="linearGradient85">
      <stop
         style="stop-color:#ffcb3a;stop-opacity:1;"
         offset="0"
         id="stop3" />
      <stop
         style="stop-color:#ffe69e;stop-opacity:1;"
         offset="1"
         id="stop4" />
    </linearGradient>
    <linearGradient
       x1="0.87531334"
       y1="-0.082107842"
       x2="0.30785841"
       y2="0.20139237"
       gradientUnits="userSpaceOnUse"
       gradientTransform="matrix(298.66663,197.3333,197.3333,-298.66663,21.450558,82.66667)"
       spreadMethod="pad"
       id="linearGradient12"
       xlink:href="#linearGradient85">
      <stop
         style="stop-color:#ffca38;stop-opacity:1;"
         offset="0"
         id="stop5" />
      <stop
         style="stop-color:#ffe38f;stop-opacity:1;"
         offset="1"
         id="stop6" />
    </linearGradient>
    <linearGradient
       x1="0"
       y1="0"
       x2="1"
       y2="0"
       gradientUnits="userSpaceOnUse"
       gradientTransform="matrix(298.68998,3.3336072,3.3336072,-298.68998,21.351119,267.57677)"
       spreadMethod="pad"
       id="linearGradient14">
      <stop
         style="stop-color:#ecae24;stop-opacity:1;"
         offset="0"
         id="stop7" />
      <stop
         style="stop-color:#e0a32c;stop-opacity:1;"
         offset="1"
         id="stop8" />
    </linearGradient>
    <linearGradient
       x1="0"
       y1="0"
       x2="1"
       y2="0"
       gradientUnits="userSpaceOnUse"
       gradientTransform="matrix(298.66666,0,0,-298.66666,21.450563,101.33334)"
       spreadMethod="pad"
       id="linearGradient16">
      <stop
         style="stop-color:#fff1c7;stop-opacity:1;"
         offset="0"
         id="stop9" />
      <stop
         style="stop-color:#ffdc79;stop-opacity:1;"
         offset="1"
         id="stop10" />
    </linearGradient>
    <filter
       style="color-interpolation-filters:sRGB;"
       id="filter123"
       x="-0.064285714"
       y="-0.097297297"
       width="1.1285714"
       height="1.2013514">
      <feFlood
         result="flood"
         in="SourceGraphic"
         flood-opacity="1.000000"
         flood-color="#ad7900"
         id="feFlood122" />
      <feGaussianBlur
         result="blur"
         in="SourceGraphic"
         stdDeviation="6.000000"
         id="feGaussianBlur122" />
      <feOffset
         result="offset"
         in="blur"
         dx="0.000000"
         dy="1.000000"
         id="feOffset122" />
      <feComposite
         result="comp1"
         operator="in"
         in="flood"
         in2="offset"
         id="feComposite122" />
      <feComposite
         result="comp2"
         operator="over"
         in="SourceGraphic"
         in2="comp1"
         id="feComposite123" />
    </filter>
    <mask
       maskUnits="userSpaceOnUse"
       id="shadow-mask">
      <path
         d="m 116.459,194 -9.873,-7.402 C 102.605,183.613 97.764002,182 92.788997,182 v 0 H 87.000002 29 c -6.628,0 -12,-5.372 -12,-12 v 0 -22 -90.000001 c 0,-6.627 5.372,-12 12,-12 v 0 h 200 c 6.627,0 12,5.373 12,12 v 0 V 148 182 c 0,6.627 -5.373,12 -12,12 v 0 z m -12.034,19.6216 c -4.369,5.305 -10.881,8.378 -17.754,8.378 H 29 c -6.627,0 -12,-5.372 -12,-12 v -12.137 -10.063 -91.799995 c 0,-6.627 5.373,-12 12,-12 h 200 c 6.627,0 12,5.373 12,12 V 185.8626 c 0,6.628 -5.373,12 -12,12 H 117.404 Z"
         fill="#efb122"
         id="path10" />
    </mask>
    <linearGradient
       xlink:href="#linearGradient1"
       id="linearGradient2"
       x1="180.11719"
       y1="45.462238"
       x2="78.204208"
       y2="221.9807"
       gradientUnits="userSpaceOnUse"
       gradientTransform="matrix(1.3333333,0,0,-1.3333333,-1.2161031,341.33333)" />
    <filter
       style="color-interpolation-filters:sRGB;"
       inkscape:label="Blur"
       id="filter41"
       x="-8.0466241e-05"
       y="-0.2226813"
       width="1.0001609"
       height="1.4453626">
      <feGaussianBlur
         stdDeviation="0.01 10"
         result="blur"
         id="feGaussianBlur41" />
    </filter>
    <radialGradient
       inkscape:collect="always"
       xlink:href="#linearGradient2-0"
       id="radialGradient3"
       cx="7.8842616"
       cy="3.5362394"
       fx="7.8842616"
       fy="3.5362394"
       r="7.1999998"
       gradientTransform="matrix(0,13.777486,-12.411099,0,213.90059,61.883061)"
       gradientUnits="userSpaceOnUse" />
    <linearGradient
       id="linearGradient2-0"
       inkscape:collect="always">
      <stop
         style="stop-color:#663300;stop-opacity:0.40000001;"
         offset="0"
         id="stop2-9" />
      <stop
         style="stop-color:#331a00;stop-opacity:0.5;"
         offset="1"
         id="stop3-4" />
    </linearGradient>
    <filter
       style="color-interpolation-filters:sRGB"
       inkscape:label="Drop Shadow"
       id="filter47"
       x="-0.060656946"
       y="-0.060593248"
       width="1.1213105"
       height="1.1424981">
      <feFlood
         result="flood"
         in="SourceGraphic"
         flood-opacity="0.501961"
         flood-color="rgb(0,0,0)"
         id="feFlood46" />
      <feGaussianBlur
         result="blur"
         in="SourceGraphic"
         stdDeviation="0.300000"
         id="feGaussianBlur46" />
      <feOffset
         result="offset"
         in="blur"
         dx="0.000000"
         dy="0.300000"
         id="feOffset46" />
      <feComposite
         result="comp1"
         operator="in"
         in="flood"
         in2="offset"
         id="feComposite46" />
      <feComposite
         result="comp2"
         operator="over"
         in="SourceGraphic"
         in2="comp1"
         id="feComposite47" />
    </filter>
    <linearGradient
       inkscape:collect="always"
       xlink:href="#linearGradient3"
       id="linearGradient13"
       x1="166.77113"
       y1="-60.122101"
       x2="166.77113"
       y2="410.75549"
       gradientUnits="userSpaceOnUse"
       gradientTransform="matrix(0.26933565,0,0,0.26933565,125.74936,136.77846)" />
  </defs>
  <path
     style="display:inline;fill:url(#linearGradient2)"
     d="m 154.06256,82.66667 -13.164,9.869333 c -5.308,3.98 -11.76267,6.130666 -18.396,6.130666 v 0 h -7.71867 -77.333327 c -8.837334,0 -16,7.162671 -16,16.000001 v 0 V 144 264 c 0,8.836 7.162666,16 16,16 v 0 H 304.11722 c 8.836,0 16,-7.164 16,-16 v 0 -120 -45.333331 c 0,-8.835999 -7.164,-15.999999 -16,-15.999999 v 0 z M 138.01722,56.504537 c -5.82533,-7.073333 -14.508,-11.170666 -23.672,-11.170666 H 37.450563 c -8.836,0 -16,7.162666 -16,15.999999 V 77.516537 90.93387 213.33386 c 0,8.836 7.164,16 16,16 H 304.11722 c 8.836,0 16,-7.164 16,-16 V 93.516536 c 0,-8.837333 -7.164,-15.999999 -16,-15.999999 H 155.32256 Z"
     id="path11"
     inkscape:label="back" />
  <path
     d="M 319.73572,103 H 34.046266 C 26.857241,104.56025 21.474,110.9586 21.474,118.61524 v 29.29297 62.86914 h 298.26172 v -62.86914 z"
     style="display:inline;fill:#a27500;filter:url(#filter41)"
     id="path42"
     inkscape:label="shadow" />
  <path
     d="m 154.06256,82.66667 -13.164,9.869333 c -5.308,3.98 -11.76267,6.130666 -18.396,6.130666 v 0 h -7.71867 -77.333327 c -8.837334,0 -16,7.162671 -16,16.000001 v 0 V 144 264 c 0,8.836 7.162666,16 16,16 v 0 H 304.11722 c 8.836,0 16,-7.164 16,-16 v 0 -120 -45.333331 c 0,-8.835999 -7.164,-15.999999 -16,-15.999999 v 0 z"
     style="display:inline;fill:url(#linearGradient12)"
     id="path13"
     inkscape:label="front" />
  <path
     d="M 304.11722,274.66666 H 37.450563 c -8.837334,0 -16,-7.16266 -16,-15.99999 v 0 V 264 c 0,8.836 7.162666,16 16,16 v 0 H 304.11722 c 8.836,0 16,-7.164 16,-16 v 0 -5.33333 c 0,8.83733 -7.164,15.99999 -16,15.99999"
     style="display:inline;fill:url(#linearGradient14)"
     id="path14"
     inkscape:label="bottom" />
  <path
     d="m 154.06256,82.66667 -13.164,9.869333 c -5.308,3.98 -11.76267,6.130666 -18.396,6.130666 v 0 h -7.71867 -77.333327 c -8.837334,0 -16,7.162671 -16,16.000001 v 0 V 120 c 0,-8.836 7.162666,-16 16,-16 v 0 h 77.333327 7.71867 c 6.63333,0 13.088,-2.15066 18.396,-6.129331 v 0 l 13.164,-9.870666 h 150.05466 c 8.836,0 16,7.162666 16,15.999997 v 0 -5.333331 c 0,-8.835999 -7.164,-15.999999 -16,-15.999999 v 0 z"
     style="display:inline;fill:url(#linearGradient16)"
     id="path15"
     inkscape:label="top" />
  <path
     style="display:inline;fill:url(#radialGradient3);fill-opacity:1;stroke:url(#linearGradient13);stroke-width:2;stroke-linecap:round;stroke-linejoin:round;stroke-dasharray:none;paint-order:stroke markers fill"
     d="m 132.65924,247.36247 c -0.4063,-0.0937 -0.99313,-0.47093 -1.36655,-0.8784 -1.10697,-1.20792 -1.33758,-2.35574 -1.44386,-7.18665 -0.1025,-4.65913 0.0399,-6.83297 1.29906,-19.82516 1.12285,-11.58603 1.00252,-14.23391 -0.80927,-17.80905 -1.12043,-2.21089 -2.35616,-3.81338 -8.41053,-10.90677 -9.06159,-10.61667 -12.05652,-14.50082 -13.67987,-17.74159 -1.81812,-3.62961 -1.21324,-5.44708 2.41468,-7.25527 3.0951,-1.54263 7.41576,-2.75915 19.74488,-5.55936 11.54382,-2.62186 12.76884,-2.99804 15.349,-4.71332 2.82153,-1.87576 3.9373,-3.44809 9.49022,-13.37361 7.48052,-13.371 9.80015,-17.06292 12.33542,-19.633 2.55376,-2.58883 3.62385,-2.58883 6.17762,0 2.53526,2.57008 4.8549,6.262 12.33542,19.633 2.10678,3.76576 4.31204,7.58261 4.90057,8.48189 1.956,2.98881 3.59658,4.50936 6.36375,5.89808 1.92853,0.96788 3.56764,1.42241 12.2464,3.39604 13.49731,3.0694 17.93423,4.3054 21.07275,5.87028 3.60853,1.79923 4.22552,3.65268 2.41364,7.25062 -1.67749,3.33103 -4.5544,7.0648 -13.67375,17.74624 -6.06312,7.10171 -7.29739,8.70147 -8.41498,10.90677 -1.84532,3.64127 -1.93664,6.07496 -0.71051,18.93314 1.21284,12.71831 1.31199,14.27195 1.20274,18.84652 -0.11159,4.67084 -0.35328,5.84959 -1.4431,7.03597 -0.82937,0.90284 -1.76394,1.12045 -3.67896,0.85658 -3.22594,-0.44449 -7.56574,-2.15244 -20.21222,-7.95457 -4.192,-1.92328 -8.40493,-3.80249 -9.36206,-4.17604 -3.46248,-1.35135 -6.70393,-1.61507 -9.85409,-0.80167 -1.73869,0.44897 -3.33288,1.12571 -11.9795,5.08561 -4.08516,1.8709 -8.72976,3.95687 -10.32134,4.6355 -6.06807,2.58736 -10.09298,3.67479 -11.98556,3.23822 z"
     id="path2" />
</svg>
