<?xml version="1.0" encoding="UTF-8" standalone="no"?>
<svg
   viewBox="0 0 341.33334 341.33334"
   version="1.1"
   id="svg15"
   sodipodi:docname="folder-vite-big.svg"
   inkscape:version="1.4.2 (f4327f4, 2025-05-13)"
   xmlns:inkscape="http://www.inkscape.org/namespaces/inkscape"
   xmlns:sodipodi="http://sodipodi.sourceforge.net/DTD/sodipodi-0.dtd"
   xmlns:xlink="http://www.w3.org/1999/xlink"
   xmlns="http://www.w3.org/2000/svg"
   xmlns:svg="http://www.w3.org/2000/svg">
  <sodipodi:namedview
     id="namedview15"
     pagecolor="#ffffff"
     bordercolor="#000000"
     borderopacity="0.25"
     inkscape:showpageshadow="2"
     inkscape:pageopacity="0.0"
     inkscape:pagecheckerboard="0"
     inkscape:deskcolor="#d1d1d1"
     inkscape:zoom="1.6717827"
     inkscape:cx="155.22353"
     inkscape:cy="206.06746"
     inkscape:window-width="1920"
     inkscape:window-height="1009"
     inkscape:window-x="-8"
     inkscape:window-y="-8"
     inkscape:window-maximized="1"
     inkscape:current-layer="svg15" />
  <defs
     id="defs10">
    <linearGradient
       id="linearGradient1">
      <stop
         style="stop-color:#8801e5;stop-opacity:1;"
         offset="0"
         id="stop1" />
      <stop
         style="stop-color:#3349ff;stop-opacity:1;"
         offset="1"
         id="stop2" />
    </linearGradient>
    <linearGradient
       x1="0.78923047"
       y1="-0.13212466"
       x2="0.21087478"
       y2="0.078379586"
       gradientUnits="userSpaceOnUse"
       gradientTransform="matrix(223.99998,-147.99998,147.99998,223.99998,16.999996,194)"
       spreadMethod="pad"
       id="linearGradient85">
      <stop
         style="stop-color:#ffcb3a;stop-opacity:1;"
         offset="0"
         id="stop3" />
      <stop
         style="stop-color:#ffe69e;stop-opacity:1;"
         offset="1"
         id="stop4" />
    </linearGradient>
    <linearGradient
       x1="0.87531334"
       y1="-0.082107842"
       x2="0.30785841"
       y2="0.20139237"
       gradientUnits="userSpaceOnUse"
       gradientTransform="matrix(298.66663,197.3333,197.3333,-298.66663,21.450558,82.66667)"
       spreadMethod="pad"
       id="linearGradient12"
       xlink:href="#linearGradient85">
      <stop
         style="stop-color:#bd34fe;stop-opacity:1;"
         offset="0"
         id="stop5" />
      <stop
         style="stop-color:#48c9ff;stop-opacity:1;"
         offset="1"
         id="stop6" />
    </linearGradient>
    <linearGradient
       x1="0"
       y1="0"
       x2="1"
       y2="0"
       gradientUnits="userSpaceOnUse"
       gradientTransform="matrix(298.68998,3.3336072,3.3336072,-298.68998,21.351119,267.57677)"
       spreadMethod="pad"
       id="linearGradient14">
      <stop
         style="stop-color:#577cff;stop-opacity:1;"
         offset="0"
         id="stop7" />
      <stop
         style="stop-color:#ad01fe;stop-opacity:1;"
         offset="1"
         id="stop8" />
    </linearGradient>
    <linearGradient
       x1="0"
       y1="0"
       x2="1"
       y2="0"
       gradientUnits="userSpaceOnUse"
       gradientTransform="matrix(298.66666,0,0,-298.66666,21.450563,101.33334)"
       spreadMethod="pad"
       id="linearGradient16">
      <stop
         style="stop-color:#80d9ff;stop-opacity:1;"
         offset="0"
         id="stop9" />
      <stop
         style="stop-color:#8f9fff;stop-opacity:1;"
         offset="1"
         id="stop10" />
    </linearGradient>
    <filter
       style="color-interpolation-filters:sRGB;"
       id="filter123"
       x="-0.064285714"
       y="-0.097297297"
       width="1.1285714"
       height="1.2013514">
      <feFlood
         result="flood"
         in="SourceGraphic"
         flood-opacity="1.000000"
         flood-color="#ad7900"
         id="feFlood122" />
      <feGaussianBlur
         result="blur"
         in="SourceGraphic"
         stdDeviation="6.000000"
         id="feGaussianBlur122" />
      <feOffset
         result="offset"
         in="blur"
         dx="0.000000"
         dy="1.000000"
         id="feOffset122" />
      <feComposite
         result="comp1"
         operator="in"
         in="flood"
         in2="offset"
         id="feComposite122" />
      <feComposite
         result="comp2"
         operator="over"
         in="SourceGraphic"
         in2="comp1"
         id="feComposite123" />
    </filter>
    <mask
       maskUnits="userSpaceOnUse"
       id="shadow-mask">
      <path
         d="m 116.459,194 -9.873,-7.402 C 102.605,183.613 97.764002,182 92.788997,182 v 0 H 87.000002 29 c -6.628,0 -12,-5.372 -12,-12 v 0 -22 -90.000001 c 0,-6.627 5.372,-12 12,-12 v 0 h 200 c 6.627,0 12,5.373 12,12 v 0 V 148 182 c 0,6.627 -5.373,12 -12,12 v 0 z m -12.034,19.6216 c -4.369,5.305 -10.881,8.378 -17.754,8.378 H 29 c -6.627,0 -12,-5.372 -12,-12 v -12.137 -10.063 -91.799995 c 0,-6.627 5.373,-12 12,-12 h 200 c 6.627,0 12,5.373 12,12 V 185.8626 c 0,6.628 -5.373,12 -12,12 H 117.404 Z"
         fill="#efb122"
         id="path10" />
    </mask>
    <linearGradient
       xlink:href="#linearGradient1"
       id="linearGradient2"
       x1="180.11719"
       y1="45.462238"
       x2="78.204208"
       y2="221.9807"
       gradientUnits="userSpaceOnUse"
       gradientTransform="matrix(1.3333333,0,0,-1.3333333,-1.2161031,341.33333)" />
    <filter
       style="color-interpolation-filters:sRGB;"
       inkscape:label="Blur"
       id="filter41"
       x="-8.0466241e-05"
       y="-0.2226813"
       width="1.0001609"
       height="1.4453626">
      <feGaussianBlur
         stdDeviation="0.01 10"
         result="blur"
         id="feGaussianBlur41" />
    </filter>
    <linearGradient
       id="paint2_linear_2043_35907"
       x1="70.063103"
       y1="91.1063"
       x2="136.209"
       y2="180.937"
       gradientUnits="userSpaceOnUse">
      <stop
         stop-color="#41D1FF"
         id="stop14" />
      <stop
         offset="1"
         stop-color="#BD34FE"
         id="stop15" />
    </linearGradient>
    <linearGradient
       id="paint3_linear_2043_35907"
       x1="124.558"
       y1="84.120201"
       x2="136.52299"
       y2="166.202"
       gradientUnits="userSpaceOnUse"
       gradientTransform="matrix(0.95278885,0,0,0.95278856,6.4195605,5.5552711)">
      <stop
         stop-color="#FFEA83"
         id="stop16" />
      <stop
         offset="0.0833333"
         stop-color="#FFDD35"
         id="stop17" />
      <stop
         offset="1"
         stop-color="#FFA800"
         id="stop18" />
    </linearGradient>
    <filter
       style="color-interpolation-filters:sRGB;"
       inkscape:label="Drop Shadow"
       id="filter17"
       x="-0.042425814"
       y="-0.043011168"
       width="1.0848516"
       height="1.1039437">
      <feFlood
         result="flood"
         in="SourceGraphic"
         flood-opacity="0.329412"
         flood-color="rgb(0,0,0)"
         id="feFlood16" />
      <feGaussianBlur
         result="blur"
         in="SourceGraphic"
         stdDeviation="2.000000"
         id="feGaussianBlur16" />
      <feOffset
         result="offset"
         in="blur"
         dx="0.000000"
         dy="2.000000"
         id="feOffset16" />
      <feComposite
         result="comp1"
         operator="in"
         in="flood"
         in2="offset"
         id="feComposite16" />
      <feComposite
         result="comp2"
         operator="over"
         in="SourceGraphic"
         in2="comp1"
         id="feComposite17" />
    </filter>
  </defs>
  <path
     style="display:inline;fill:url(#linearGradient2)"
     d="m 154.06256,82.66667 -13.164,9.869333 c -5.308,3.98 -11.76267,6.130666 -18.396,6.130666 v 0 h -7.71867 -77.333327 c -8.837334,0 -16,7.162671 -16,16.000001 v 0 V 144 264 c 0,8.836 7.162666,16 16,16 v 0 H 304.11722 c 8.836,0 16,-7.164 16,-16 v 0 -120 -45.333331 c 0,-8.835999 -7.164,-15.999999 -16,-15.999999 v 0 z M 138.01722,56.504537 c -5.82533,-7.073333 -14.508,-11.170666 -23.672,-11.170666 H 37.450563 c -8.836,0 -16,7.162666 -16,15.999999 V 77.516537 90.93387 213.33386 c 0,8.836 7.164,16 16,16 H 304.11722 c 8.836,0 16,-7.164 16,-16 V 93.516536 c 0,-8.837333 -7.164,-15.999999 -16,-15.999999 H 155.32256 Z"
     id="path11"
     inkscape:label="back" />
  <path
     d="M 319.73572,103 H 34.046266 C 26.857241,104.56025 21.474,110.9586 21.474,118.61524 v 29.29297 62.86914 h 298.26172 v -62.86914 z"
     style="display:inline;fill:#0308c9;filter:url(#filter41);fill-opacity:1"
     id="path42"
     inkscape:label="shadow" />
  <path
     d="m 154.06256,82.66667 -13.164,9.869333 c -5.308,3.98 -11.76267,6.130666 -18.396,6.130666 v 0 h -7.71867 -77.333327 c -8.837334,0 -16,7.162671 -16,16.000001 v 0 V 144 264 c 0,8.836 7.162666,16 16,16 v 0 H 304.11722 c 8.836,0 16,-7.164 16,-16 v 0 -120 -45.333331 c 0,-8.835999 -7.164,-15.999999 -16,-15.999999 v 0 z"
     style="display:inline;fill:url(#linearGradient12)"
     id="path13"
     inkscape:label="front" />
  <path
     d="M 304.11722,274.66666 H 37.450563 c -8.837334,0 -16,-7.16266 -16,-15.99999 v 0 V 264 c 0,8.836 7.162666,16 16,16 v 0 H 304.11722 c 8.836,0 16,-7.164 16,-16 v 0 -5.33333 c 0,8.83733 -7.164,15.99999 -16,15.99999"
     style="display:inline;fill:url(#linearGradient14)"
     id="path14"
     inkscape:label="bottom" />
  <path
     d="m 154.06256,82.66667 -13.164,9.869333 c -5.308,3.98 -11.76267,6.130666 -18.396,6.130666 v 0 h -7.71867 -77.333327 c -8.837334,0 -16,7.162671 -16,16.000001 v 0 V 120 c 0,-8.836 7.162666,-16 16,-16 v 0 h 77.333327 7.71867 c 6.63333,0 13.088,-2.15066 18.396,-6.129331 v 0 l 13.164,-9.870666 h 150.05466 c 8.836,0 16,7.162666 16,15.999997 v 0 -5.333331 c 0,-8.835999 -7.164,-15.999999 -16,-15.999999 v 0 z"
     style="display:inline;fill:url(#linearGradient16)"
     id="path15"
     inkscape:label="top" />
  <g
     id="g18"
     transform="matrix(1.3064668,0,0,1.3064668,4.0013669,0.86969542)">
    <path
       d="m 114.59716,101.68724 -1.66091,28.071 8.87861,-2.0496 a 3.1772126,3.1772126 0 0 0 0.002,0 c 3.17158,-0.73026 6.23932,2.26311 5.58968,5.45215 a 3.1772126,3.1772126 0 0 0 0,0.001 l -2.72383,13.34557 4.11116,-1.24979 c 3.23391,-0.98126 6.57862,2.07268 5.89465,5.38188 l -2.69243,13.01967 25.64167,-51.16674 -7.99807,1.5443 a 3.1772126,3.1772126 0 0 1 -0.003,0 c -3.29783,0.63524 -6.30366,-2.66191 -5.3759,-5.88718 a 3.1772126,3.1772126 0 0 0 0,-0.002 l 2.12734,-7.37467 -17.75423,3.2366 c -0.339,0.062 -0.68655,0.063 -1.02555,0.003 z"
       style="display:none;fill:url(#paint2_linear_2043_35907)"
       id="path16" />
    <path
       d="m 153.36913,99.501602 -2.24394,7.778318 8.9982,-1.73865 c 0.63947,-0.12498 1.30148,-0.11361 1.91207,0.0224 a 3.1772126,3.1772126 0 0 1 0.51726,0.16295 c 2.38077,0.97974 3.60507,3.93913 2.38447,6.37604 v 0.003 l -32.51404,64.88457 a 3.1772126,3.1772126 0 0 1 -0.17342,0.30198 l -0.58752,0.90894 h 0.001 c -1.23589,1.91065 -3.85094,2.51348 -5.65845,1.77303 -1.80751,-0.74045 -3.24481,-3.00548 -2.78512,-5.23388 l 4.6643,-22.56503 -4.10518,1.2468 a 3.1772126,3.1772126 0 0 0 -0.002,0 c -3.22823,0.98048 -6.5726,-2.06645 -5.89465,-5.37291 l -10e-4,0.001 2.76719,-13.55188 -8.51384,1.96439 c -2.93719,0.6789 -5.85702,-1.78843 -5.67789,-4.79735 l 1.84031,-31.10429 -33.893899,-6.059099 c -2.4113,-0.4311 -4.230244,2.146211 -3.016844,4.274111 l 54.200033,95.048518 c 1.114,1.953 3.93406,1.94107 5.03206,-0.0209 l 53.14609,-95.036557 c 1.191,-2.132 -0.63527,-4.689687 -3.03927,-4.251687 z"
       style="display:none;fill:url(#paint2_linear_2043_35907)"
       id="path9" />
    <path
       d="m 114.59716,101.68724 13.0107,2.32617 c 0.339,0.06 0.68655,0.059 1.02555,-0.003 l 17.75423,-3.2366 4.57908,-15.873563 -35.79101,7.014386 z"
       style="baseline-shift:baseline;display:none;overflow:visible;opacity:1;vector-effect:none;stroke-linecap:round;stroke-linejoin:round;paint-order:stroke markers fill;enable-background:accumulate;stop-color:#000000;stop-opacity:1"
       id="path12" />
  </g>
  <path
     id="path6"
     style="display:inline;fill:#ffffff;stroke-width:0.952798;stroke:none;fill-opacity:1;filter:url(#filter17)"
     d="M 152.3406 83.686344 C 152.27883 83.690084 152.2169 83.697894 152.15372 83.710263 L 114.68088 91.053542 C 114.06437 91.174262 113.60869 91.69631 113.57161 92.322769 L 111.26637 131.2547 C 111.21257 132.17128 112.05368 132.88318 112.94821 132.67642 L 123.38159 130.26803 C 124.358 130.04322 125.23958 130.90328 125.0395 131.88558 L 121.94044 147.06398 C 121.7307 148.0863 122.69064 148.95908 123.68805 148.65612 L 130.13286 146.69772 C 131.13151 146.39476 132.09192 147.26954 131.88047 148.29285 L 126.95306 172.13458 C 126.64513 173.62665 128.6286 174.44027 129.45564 173.16162 L 130.00878 172.308 L 160.54498 111.36865 C 161.05659 110.34821 160.17356 109.18505 159.053 109.40127 L 148.31465 111.4733 C 147.30564 111.66769 146.44754 110.72781 146.73148 109.74063 L 153.74138 85.44293 C 154.00849 84.515673 153.26705 83.630233 152.3406 83.686344 z M 73.959466 94.456087 C 71.777224 94.391816 70.249064 96.781636 71.386627 98.776542 L 125.58666 193.82506 C 126.70066 195.77806 129.52072 195.7661 130.61872 193.80413 L 183.76481 98.767573 C 184.95581 96.635573 183.12954 94.077886 180.72554 94.515886 L 153.28541 99.516551 L 150.93682 107.65964 L 159.6166 105.98378 C 163.09235 105.31286 166.08466 109.26198 164.49767 112.42709 L 164.50066 112.42709 L 132.37531 176.53726 L 131.70257 177.57477 C 130.50165 179.43149 127.96638 180.0162 126.21156 179.29697 C 124.45673 178.57775 123.06054 176.38094 123.50716 174.21558 L 128.12661 151.85685 L 123.96911 153.12159 C 120.83673 154.07297 117.59185 151.11678 118.24637 147.90864 L 118.24637 147.90565 L 118.24637 147.90415 L 120.99412 134.44347 L 112.49822 136.40188 C 109.64662 137.06088 106.81319 134.66777 106.98628 131.74655 L 108.82509 100.65572 L 74.403471 94.502431 C 74.252765 94.475488 74.104948 94.460372 73.959466 94.456087 z "
     transform="matrix(1.3064668,0,0,1.3064668,4.0013669,0.86969542)" />
</svg>
