<?xml version="1.0" encoding="UTF-8" standalone="no"?>
<svg
   viewBox="0 0 341.33334 341.33334"
   version="1.1"
   id="svg15"
   sodipodi:docname="folder-azure-big-t.svg"
   inkscape:version="1.4.2 (f4327f4, 2025-05-13)"
   xmlns:inkscape="http://www.inkscape.org/namespaces/inkscape"
   xmlns:sodipodi="http://sodipodi.sourceforge.net/DTD/sodipodi-0.dtd"
   xmlns:xlink="http://www.w3.org/1999/xlink"
   xmlns="http://www.w3.org/2000/svg"
   xmlns:svg="http://www.w3.org/2000/svg">
  <sodipodi:namedview
     id="namedview15"
     pagecolor="#ffffff"
     bordercolor="#000000"
     borderopacity="0.25"
     inkscape:showpageshadow="2"
     inkscape:pageopacity="0.0"
     inkscape:pagecheckerboard="0"
     inkscape:deskcolor="#d1d1d1"
     inkscape:zoom="2.3642577"
     inkscape:cx="172.14705"
     inkscape:cy="127.52417"
     inkscape:window-width="1920"
     inkscape:window-height="1009"
     inkscape:window-x="-8"
     inkscape:window-y="-8"
     inkscape:window-maximized="1"
     inkscape:current-layer="svg15" />
  <defs
     id="defs10">
    <linearGradient
       id="linearGradient1">
      <stop
         style="stop-color:#104b8c;stop-opacity:1;"
         offset="0"
         id="stop1" />
      <stop
         style="stop-color:#0765b6;stop-opacity:1;"
         offset="1"
         id="stop2" />
    </linearGradient>
    <linearGradient
       x1="0.78923047"
       y1="-0.13212466"
       x2="0.21087478"
       y2="0.078379586"
       gradientUnits="userSpaceOnUse"
       gradientTransform="matrix(223.99998,-147.99998,147.99998,223.99998,16.999996,194)"
       spreadMethod="pad"
       id="linearGradient85">
      <stop
         style="stop-color:#ffcb3a;stop-opacity:1;"
         offset="0"
         id="stop3" />
      <stop
         style="stop-color:#ffe69e;stop-opacity:1;"
         offset="1"
         id="stop4" />
    </linearGradient>
    <linearGradient
       x1="0.87531334"
       y1="-0.082107842"
       x2="0.30785841"
       y2="0.20139237"
       gradientUnits="userSpaceOnUse"
       gradientTransform="matrix(298.66663,197.3333,197.3333,-298.66663,21.450558,82.66667)"
       spreadMethod="pad"
       id="linearGradient12"
       xlink:href="#linearGradient85">
      <stop
         style="stop-color:#0078d4;stop-opacity:1;"
         offset="0"
         id="stop5" />
      <stop
         style="stop-color:#3ccbf4;stop-opacity:1;"
         offset="1"
         id="stop6" />
    </linearGradient>
    <linearGradient
       x1="0"
       y1="0"
       x2="1"
       y2="0"
       gradientUnits="userSpaceOnUse"
       gradientTransform="matrix(298.68998,3.3336072,3.3336072,-298.68998,21.351119,267.57677)"
       spreadMethod="pad"
       id="linearGradient14">
      <stop
         style="stop-color:#0091ff;stop-opacity:1;"
         offset="0"
         id="stop7" />
      <stop
         style="stop-color:#0760ac;stop-opacity:1;"
         offset="1"
         id="stop8" />
    </linearGradient>
    <linearGradient
       x1="0"
       y1="0"
       x2="1"
       y2="0"
       gradientUnits="userSpaceOnUse"
       gradientTransform="matrix(298.66666,0,0,-298.66666,21.450563,101.33334)"
       spreadMethod="pad"
       id="linearGradient16">
      <stop
         style="stop-color:#9ecef0;stop-opacity:1;"
         offset="0"
         id="stop9" />
      <stop
         style="stop-color:#3ccaf4;stop-opacity:1;"
         offset="1"
         id="stop10" />
    </linearGradient>
    <filter
       style="color-interpolation-filters:sRGB;"
       id="filter123"
       x="-0.064285714"
       y="-0.097297297"
       width="1.1285714"
       height="1.2013514">
      <feFlood
         result="flood"
         in="SourceGraphic"
         flood-opacity="1.000000"
         flood-color="#ad7900"
         id="feFlood122" />
      <feGaussianBlur
         result="blur"
         in="SourceGraphic"
         stdDeviation="6.000000"
         id="feGaussianBlur122" />
      <feOffset
         result="offset"
         in="blur"
         dx="0.000000"
         dy="1.000000"
         id="feOffset122" />
      <feComposite
         result="comp1"
         operator="in"
         in="flood"
         in2="offset"
         id="feComposite122" />
      <feComposite
         result="comp2"
         operator="over"
         in="SourceGraphic"
         in2="comp1"
         id="feComposite123" />
    </filter>
    <mask
       maskUnits="userSpaceOnUse"
       id="shadow-mask">
      <path
         d="m 116.459,194 -9.873,-7.402 C 102.605,183.613 97.764002,182 92.788997,182 v 0 H 87.000002 29 c -6.628,0 -12,-5.372 -12,-12 v 0 -22 -90.000001 c 0,-6.627 5.372,-12 12,-12 v 0 h 200 c 6.627,0 12,5.373 12,12 v 0 V 148 182 c 0,6.627 -5.373,12 -12,12 v 0 z m -12.034,19.6216 c -4.369,5.305 -10.881,8.378 -17.754,8.378 H 29 c -6.627,0 -12,-5.372 -12,-12 v -12.137 -10.063 -91.799995 c 0,-6.627 5.373,-12 12,-12 h 200 c 6.627,0 12,5.373 12,12 V 185.8626 c 0,6.628 -5.373,12 -12,12 H 117.404 Z"
         fill="#efb122"
         id="path10" />
    </mask>
    <linearGradient
       xlink:href="#linearGradient1"
       id="linearGradient2"
       x1="180.11719"
       y1="45.462238"
       x2="78.204208"
       y2="221.9807"
       gradientUnits="userSpaceOnUse"
       gradientTransform="matrix(1.3333333,0,0,-1.3333333,-1.2161031,341.33333)" />
    <filter
       style="color-interpolation-filters:sRGB;"
       inkscape:label="Blur"
       id="filter41"
       x="0"
       y="-0.2226813"
       width="1"
       height="1.4453626">
      <feGaussianBlur
         stdDeviation="0 10"
         result="blur"
         id="feGaussianBlur41" />
    </filter>
    <linearGradient
       id="paint2_linear_2031_34559"
       x1="122.359"
       y1="92.495903"
       x2="89.3741"
       y2="189.944"
       gradientUnits="userSpaceOnUse">
      <stop
         stop-color="#114A8B"
         id="stop16"
         offset="0"
         style="stop-color:#d9d9d9;stop-opacity:1;" />
      <stop
         offset="1"
         stop-color="#0669BC"
         id="stop17"
         style="stop-color:#f2f2f2;stop-opacity:1;" />
    </linearGradient>
    <linearGradient
       id="paint3_linear_2031_34559"
       x1="132.66299"
       y1="137.91"
       x2="125.033"
       y2="140.49001"
       gradientUnits="userSpaceOnUse">
      <stop
         stop-opacity="0.3"
         id="stop18" />
      <stop
         offset="0.071"
         stop-opacity="0.2"
         id="stop19" />
      <stop
         offset="0.321"
         stop-opacity="0.1"
         id="stop20" />
      <stop
         offset="0.623"
         stop-opacity="0.05"
         id="stop21" />
      <stop
         offset="1"
         stop-opacity="0"
         id="stop22" />
    </linearGradient>
    <linearGradient
       id="paint4_linear_2031_34559"
       x1="128.468"
       y1="89.654404"
       x2="164.67599"
       y2="186.12"
       gradientUnits="userSpaceOnUse">
      <stop
         stop-color="#3CCBF4"
         id="stop23"
         offset="0"
         style="stop-color:#ffffff;stop-opacity:1;" />
      <stop
         offset="1"
         stop-color="#2892DF"
         id="stop24"
         style="stop-color:#d9d9d9;stop-opacity:1;" />
    </linearGradient>
    <filter
       style="color-interpolation-filters:sRGB;"
       inkscape:label="Drop Shadow"
       id="filter60"
       x="-0.089597122"
       y="-29.514289"
       width="1.179036"
       height="72.3264">
      <feFlood
         result="flood"
         in="SourceGraphic"
         flood-opacity="0.329412"
         flood-color="rgb(0,0,0)"
         id="feFlood59" />
      <feGaussianBlur
         result="blur"
         in="SourceGraphic"
         stdDeviation="2.000000"
         id="feGaussianBlur59" />
      <feOffset
         result="offset"
         in="blur"
         dx="0.000000"
         dy="2.000000"
         id="feOffset59" />
      <feComposite
         result="comp1"
         operator="in"
         in="flood"
         in2="offset"
         id="feComposite59" />
      <feComposite
         result="comp2"
         operator="over"
         in="SourceGraphic"
         in2="comp1"
         id="feComposite60" />
    </filter>
    <filter
       inkscape:collect="always"
       style="color-interpolation-filters:sRGB"
       id="filter61"
       x="-0.0038210586"
       y="-0.0037070671"
       width="1.0076421"
       height="1.0074141">
      <feGaussianBlur
         inkscape:collect="always"
         stdDeviation="0.03270887"
         id="feGaussianBlur61" />
    </filter>
  </defs>
  <path
     style="display:inline;fill:url(#linearGradient2)"
     d="m 154.06256,82.66667 -13.164,9.869333 c -5.308,3.98 -11.76267,6.130666 -18.396,6.130666 v 0 h -7.71867 -77.333327 c -8.837334,0 -16,7.162671 -16,16.000001 v 0 V 144 264 c 0,8.836 7.162666,16 16,16 v 0 H 304.11722 c 8.836,0 16,-7.164 16,-16 v 0 -120 -45.333331 c 0,-8.835999 -7.164,-15.999999 -16,-15.999999 v 0 z M 138.01722,56.504537 c -5.82533,-7.073333 -14.508,-11.170666 -23.672,-11.170666 H 37.450563 c -8.836,0 -16,7.162666 -16,15.999999 V 77.516537 90.93387 213.33386 c 0,8.836 7.164,16 16,16 H 304.11722 c 8.836,0 16,-7.164 16,-16 V 93.516536 c 0,-8.837333 -7.164,-15.999999 -16,-15.999999 H 155.32256 Z"
     id="path11"
     inkscape:label="back" />
  <path
     d="M 319.73572,103 H 34.046266 C 26.857241,104.56025 21.474,110.9586 21.474,118.61524 v 29.29297 62.86914 h 298.26172 v -62.86914 z"
     style="display:inline;fill:#08284a;filter:url(#filter41);fill-opacity:1"
     id="path42"
     inkscape:label="shadow" />
  <path
     d="m 154.06256,82.66667 -13.164,9.869333 c -5.308,3.98 -11.76267,6.130666 -18.396,6.130666 v 0 h -7.71867 -77.333327 c -8.837334,0 -16,7.162671 -16,16.000001 v 0 V 144 264 c 0,8.836 7.162666,16 16,16 v 0 H 304.11722 c 8.836,0 16,-7.164 16,-16 v 0 -120 -45.333331 c 0,-8.835999 -7.164,-15.999999 -16,-15.999999 v 0 z"
     style="display:inline;fill:url(#linearGradient12)"
     id="path13"
     inkscape:label="front" />
  <path
     d="M 304.11722,274.66666 H 37.450563 c -8.837334,0 -16,-7.16266 -16,-15.99999 v 0 V 264 c 0,8.836 7.162666,16 16,16 v 0 H 304.11722 c 8.836,0 16,-7.164 16,-16 v 0 -5.33333 c 0,8.83733 -7.164,15.99999 -16,15.99999"
     style="display:inline;fill:url(#linearGradient14)"
     id="path14"
     inkscape:label="bottom" />
  <path
     d="m 154.06256,82.66667 -13.164,9.869333 c -5.308,3.98 -11.76267,6.130666 -18.396,6.130666 v 0 h -7.71867 -77.333327 c -8.837334,0 -16,7.162671 -16,16.000001 v 0 V 120 c 0,-8.836 7.162666,-16 16,-16 v 0 h 77.333327 7.71867 c 6.63333,0 13.088,-2.15066 18.396,-6.129331 v 0 l 13.164,-9.870666 h 150.05466 c 8.836,0 16,7.162666 16,15.999997 v 0 -5.333331 c 0,-8.835999 -7.164,-15.999999 -16,-15.999999 v 0 z"
     style="display:inline;fill:url(#linearGradient16)"
     id="path15"
     inkscape:label="top" />
  <g
     id="g24"
     transform="matrix(1.378825,0,0,1.378825,-6.7452303,-3.200125)"
     inkscape:label="A"
     style="display:inline;stroke:#ffffff;stroke-width:5.80204;stroke-dasharray:none;stroke-opacity:1;filter:url(#filter60)">
    <path
       d="m 110.87973,82.026454 c -1.06,1.02e-4 -2.09385,0.352531 -2.95485,1.008754 -0.861,0.656076 -1.5053,1.583093 -1.8443,2.64884 L 75.362071,182.28354 c -0.2566,0.8066 -0.32855,1.66642 -0.20965,2.50906 0.1189,0.84268 0.42421,1.64271 0.89241,2.33468 0.4682,0.69198 1.08609,1.25666 1.80039,1.64615 0.7143,0.38844 1.5047,0.59079 2.3075,0.59079 H 104.8723 c 1.059,0 2.09201,-0.35178 2.95201,-1.00871 0.861,-0.65482 1.5053,-1.58184 1.8443,-2.64738 l 6.11934,-19.24113 -10.71168,-10.61052 c -0.342,-0.33851 -0.58117,-0.77925 -0.68417,-1.26435 -0.104,-0.48498 -0.0672,-0.99101 0.10482,-1.45362 0.172,-0.46167 0.47141,-0.85889 0.85841,-1.13807 0.387,-0.28022 0.84511,-0.42847 1.31311,-0.42847 h 13.85634 l 8.23986,-25.90999 -12.71463,-39.982445 c -0.1695,-0.532002 -0.41438,-1.028769 -0.72526,-1.474746 -0.31064,-0.445302 -0.68817,-0.842537 -1.11763,-1.169581 -0.2125,-0.162063 -0.43573,-0.304236 -0.66717,-0.428472 -0.0704,-0.03772 -0.14625,-0.06193 -0.21815,-0.09609 -0.16414,-0.07795 -0.3278,-0.157455 -0.49861,-0.216467 -0.0833,-0.02883 -0.1703,-0.04351 -0.25497,-0.06784 -0.16582,-0.04724 -0.33154,-0.09715 -0.50145,-0.126266 -0.0892,-0.01532 -0.18055,-0.01674 -0.27055,-0.02714 -0.17884,-0.02021 -0.35718,-0.04508 -0.53828,-0.04508 h -0.37821 z"
       style="display:inline;fill:#ffffff;stroke:none;stroke-width:5.9772;stroke-dasharray:none;stroke-opacity:1"
       id="path19" />
    <path
       style="baseline-shift:baseline;display:inline;overflow:visible;opacity:1;vector-effect:none;fill:#000000;fill-opacity:1;stroke:none;filter:url(#filter61);enable-background:accumulate;stop-color:#000000;stop-opacity:1"
       d="m 106.57227,147.62891 c -2.96184,-0.0938 -5.59567,2.7784 -5.21221,5.72685 0.11282,1.50344 2.09408,3.78997 2.09408,3.78997 l 11.60248,11.65706 6.81055,-21.17382 z m 1.36914,5.80078 11.94662,-0.0225 -3.01328,9.8844 z"
       id="path58"
       sodipodi:nodetypes="cccccccccc" />
    <path
       d="m 110.87973,82.026454 c -1.06,1.02e-4 -2.09385,0.352531 -2.95485,1.008754 -0.861,0.656076 -1.5053,1.583093 -1.8443,2.64884 L 75.362071,182.28354 c -0.2566,0.8066 -0.32855,1.66642 -0.20965,2.50906 0.1189,0.84268 0.42421,1.64271 0.89241,2.33468 0.4682,0.69198 1.08609,1.25666 1.80039,1.64615 0.7143,0.38844 1.5047,0.59079 2.3075,0.59079 H 104.8723 c 1.059,0 2.09201,-0.35178 2.95201,-1.00871 0.861,-0.65482 1.5053,-1.58184 1.8443,-2.64738 l 6.11934,-19.24113 -10.71168,-10.61052 c -0.342,-0.33851 -0.58117,-0.77925 -0.68417,-1.26435 -0.104,-0.48498 -0.0672,-0.99101 0.10482,-1.45362 0.172,-0.46167 0.47141,-0.85889 0.85841,-1.13807 0.387,-0.28022 0.84511,-0.42847 1.31311,-0.42847 h 13.85634 l 8.23986,-25.90999 -12.71463,-39.982445 c -0.1695,-0.532002 -0.41438,-1.028769 -0.72526,-1.474746 -0.31064,-0.445302 -0.68817,-0.842537 -1.11763,-1.169581 -0.2125,-0.162063 -0.43573,-0.304236 -0.66717,-0.428472 -0.0704,-0.03772 -0.14625,-0.06193 -0.21815,-0.09609 -0.16414,-0.07795 -0.3278,-0.157455 -0.49861,-0.216467 -0.0833,-0.02883 -0.1703,-0.04351 -0.25497,-0.06784 -0.16582,-0.04724 -0.33154,-0.09715 -0.50145,-0.126266 -0.0892,-0.01532 -0.18055,-0.01674 -0.27055,-0.02714 -0.17884,-0.02021 -0.35718,-0.04508 -0.53828,-0.04508 h -0.37821 z"
       style="display:inline;fill:#ffffff;stroke:none;stroke-width:5.9772;stroke-dasharray:none;stroke-opacity:1;filter:url(#filter60)"
       id="path61" />
    <path
       d="m 141.88309,186.14052 c 0.802,0 1.5935,-0.19111 2.3075,-0.55811 0.715,-0.367 1.33139,-0.89766 1.80039,-1.54966 0.468,-0.653 0.7734,-1.40727 0.8924,-2.20127 0.119,-0.794 0.0474,-1.60457 -0.20964,-2.36557 l -9.76545,-28.93655 h -30.33606 c -0.468,0 -0.92611,0.1397 -1.31311,0.4037 -0.387,0.263 -0.68641,0.6373 -0.85841,1.0723 -0.172,0.436 -0.20882,0.91277 -0.10482,1.36977 0.103,0.457 0.34217,0.87229 0.68417,1.19129 l 32.36452,30.20716 c 0.942,0.879 2.18387,1.36836 3.47187,1.36836 z"
       style="display:none;fill:none;stroke:#ffffff;stroke-width:5.80204;stroke-dasharray:none;stroke-opacity:1"
       id="path5"
       sodipodi:nodetypes="cccsccscccccsc" />
    <path
       d="m 151.352,88.4419 c -0.338,-1.0027 -0.982,-1.8739 -1.842,-2.4911 -0.86,-0.6171 -1.891,-0.949 -2.95,-0.9488 h -35.398 c 1.058,0 2.09,0.3319 2.949,0.9491 0.86,0.6171 1.504,1.4882 1.843,2.4908 l 30.72,91.0241 c 0.257,0.761 0.329,1.572 0.21,2.366 -0.119,0.794 -0.425,1.548 -0.893,2.201 -0.469,0.652 -1.085,1.183 -1.8,1.55 -0.714,0.367 -1.506,0.558 -2.308,0.558 h 35.399 c 0.803,0 1.594,-0.191 2.308,-0.558 0.715,-0.367 1.331,-0.898 1.8,-1.55 0.468,-0.653 0.774,-1.407 0.892,-2.201 0.119,-0.794 0.047,-1.605 -0.21,-2.366 z"
       fill="url(#paint4_linear_2031_34559)"
       id="path8"
       style="display:inline;fill:none;stroke:#ffffff;stroke-width:5.80204;stroke-dasharray:none;stroke-opacity:1" />
  </g>
</svg>
