<?xml version="1.0" encoding="UTF-8" standalone="no"?>
<!-- Created with Inkscape (http://www.inkscape.org/) -->

<svg
   width="512"
   height="512"
   viewBox="0 0 135.46667 135.46667"
   version="1.1"
   id="svg1"
   inkscape:version="1.4.2 (f4327f4, 2025-05-13)"
   sodipodi:docname="folder-games-small.svg"
   xmlns:inkscape="http://www.inkscape.org/namespaces/inkscape"
   xmlns:sodipodi="http://sodipodi.sourceforge.net/DTD/sodipodi-0.dtd"
   xmlns:xlink="http://www.w3.org/1999/xlink"
   xmlns="http://www.w3.org/2000/svg"
   xmlns:svg="http://www.w3.org/2000/svg">
  <sodipodi:namedview
     id="namedview1"
     pagecolor="#ffffff"
     bordercolor="#000000"
     borderopacity="0.25"
     inkscape:showpageshadow="2"
     inkscape:pageopacity="0.0"
     inkscape:pagecheckerboard="0"
     inkscape:deskcolor="#d1d1d1"
     inkscape:document-units="mm"
     inkscape:zoom="1.5761719"
     inkscape:cx="255.68278"
     inkscape:cy="256"
     inkscape:window-width="1920"
     inkscape:window-height="1009"
     inkscape:window-x="-8"
     inkscape:window-y="-8"
     inkscape:window-maximized="1"
     inkscape:current-layer="g31" />
  <defs
     id="defs1">
    <linearGradient
       id="linearGradient36"
       inkscape:collect="always">
      <stop
         style="stop-color:#4d4d4d;stop-opacity:1;"
         offset="0"
         id="stop37" />
      <stop
         style="stop-color:#333333;stop-opacity:1;"
         offset="1"
         id="stop38" />
    </linearGradient>
    <linearGradient
       id="linearGradient34"
       inkscape:collect="always">
      <stop
         style="stop-color:#4d4d4d;stop-opacity:1;"
         offset="0"
         id="stop35" />
      <stop
         style="stop-color:#333333;stop-opacity:1;"
         offset="1"
         id="stop36" />
    </linearGradient>
    <linearGradient
       id="linearGradient33"
       inkscape:collect="always">
      <stop
         style="stop-color:#4d4d4d;stop-opacity:1;"
         offset="0"
         id="stop33" />
      <stop
         style="stop-color:#333333;stop-opacity:1;"
         offset="1"
         id="stop34" />
    </linearGradient>
    <linearGradient
       id="linearGradient27"
       inkscape:collect="always">
      <stop
         style="stop-color:#ffffff;stop-opacity:1;"
         offset="0.07536232"
         id="stop27" />
      <stop
         style="stop-color:#000000;stop-opacity:1;"
         offset="0.39420289"
         id="stop32" />
    </linearGradient>
    <linearGradient
       id="linearGradient25"
       inkscape:collect="always">
      <stop
         style="stop-color:#ffee99;stop-opacity:1;"
         offset="0"
         id="stop25" />
      <stop
         style="stop-color:#e5c100;stop-opacity:1;"
         offset="1"
         id="stop26" />
    </linearGradient>
    <linearGradient
       id="linearGradient23"
       inkscape:collect="always">
      <stop
         style="stop-color:#66acff;stop-opacity:1;"
         offset="0"
         id="stop23" />
      <stop
         style="stop-color:#004fb2;stop-opacity:1;"
         offset="1"
         id="stop24" />
    </linearGradient>
    <linearGradient
       id="linearGradient21"
       inkscape:collect="always">
      <stop
         style="stop-color:#ff9c99;stop-opacity:1;"
         offset="0"
         id="stop21" />
      <stop
         style="stop-color:#990500;stop-opacity:1;"
         offset="1"
         id="stop22" />
    </linearGradient>
    <linearGradient
       id="linearGradient19"
       inkscape:collect="always">
      <stop
         style="stop-color:#a2f6c2;stop-opacity:1;"
         offset="0"
         id="stop19" />
      <stop
         style="stop-color:#066027;stop-opacity:1;"
         offset="1"
         id="stop20" />
    </linearGradient>
    <linearGradient
       id="linearGradient15"
       inkscape:collect="always">
      <stop
         style="stop-color:#ffffff;stop-opacity:1;"
         offset="0"
         id="stop15" />
      <stop
         style="stop-color:#000000;stop-opacity:1;"
         offset="1"
         id="stop16" />
    </linearGradient>
    <linearGradient
       id="linearGradient12"
       inkscape:collect="always">
      <stop
         style="stop-color:#ffffff;stop-opacity:1;"
         offset="0"
         id="stop13" />
      <stop
         style="stop-color:#000000;stop-opacity:1;"
         offset="1"
         id="stop14" />
    </linearGradient>
    <linearGradient
       id="linearGradient11"
       inkscape:collect="always">
      <stop
         style="stop-color:#ffffff;stop-opacity:1;"
         offset="0.43415087"
         id="stop11" />
      <stop
         style="stop-color:#e5e5e5;stop-opacity:1;"
         offset="1"
         id="stop12" />
    </linearGradient>
    <linearGradient
       id="linearGradient6"
       inkscape:collect="always">
      <stop
         style="stop-color:#808080;stop-opacity:0.25;"
         offset="0"
         id="stop6" />
      <stop
         style="stop-color:#000000;stop-opacity:1;"
         offset="1"
         id="stop7" />
    </linearGradient>
    <linearGradient
       id="linearGradient4"
       inkscape:collect="always">
      <stop
         style="stop-color:#808080;stop-opacity:0.25;"
         offset="0"
         id="stop4" />
      <stop
         style="stop-color:#000000;stop-opacity:1;"
         offset="1"
         id="stop5" />
    </linearGradient>
    <linearGradient
       id="linearGradient2"
       inkscape:collect="always">
      <stop
         style="stop-color:#808080;stop-opacity:0.25;"
         offset="0"
         id="stop2" />
      <stop
         style="stop-color:#000000;stop-opacity:1;"
         offset="1"
         id="stop3" />
    </linearGradient>
    <filter
       id="filter2_ii_57_2069"
       x="61"
       y="80"
       width="135.27299"
       height="101"
       filterUnits="userSpaceOnUse"
       color-interpolation-filters="sRGB">
      <feFlood
         flood-opacity="0"
         result="BackgroundImageFix"
         id="feFlood17" />
      <feBlend
         mode="normal"
         in="SourceGraphic"
         in2="BackgroundImageFix"
         result="shape"
         id="feBlend18" />
      <feColorMatrix
         in="SourceAlpha"
         type="matrix"
         values="0 0 0 0 0 0 0 0 0 0 0 0 0 0 0 0 0 0 127 0"
         result="hardAlpha"
         id="feColorMatrix18" />
      <feOffset
         dy="-11"
         id="feOffset18" />
      <feGaussianBlur
         stdDeviation="8.5"
         id="feGaussianBlur18" />
      <feComposite
         in2="hardAlpha"
         operator="arithmetic"
         k2="-1"
         k3="1"
         id="feComposite18"
         k1="0"
         k4="0" />
      <feColorMatrix
         type="matrix"
         values="0 0 0 0 0 0 0 0 0 0 0 0 0 0 0 0 0 0 0.2 0"
         id="feColorMatrix19" />
      <feBlend
         mode="normal"
         in2="shape"
         result="effect1_innerShadow_57_2069"
         id="feBlend19" />
      <feColorMatrix
         in="SourceAlpha"
         type="matrix"
         values="0 0 0 0 0 0 0 0 0 0 0 0 0 0 0 0 0 0 127 0"
         result="hardAlpha"
         id="feColorMatrix20" />
      <feOffset
         dy="-4"
         id="feOffset20" />
      <feGaussianBlur
         stdDeviation="8"
         id="feGaussianBlur20" />
      <feComposite
         in2="hardAlpha"
         operator="arithmetic"
         k2="-1"
         k3="1"
         id="feComposite20"
         k1="0"
         k4="0" />
      <feColorMatrix
         type="matrix"
         values="0 0 0 0 0 0 0 0 0 0 0 0 0 0 0 0 0 0 0.15 0"
         id="feColorMatrix21" />
      <feBlend
         mode="normal"
         in2="effect1_innerShadow_57_2069"
         result="effect2_innerShadow_57_2069"
         id="feBlend21" />
    </filter>
    <linearGradient
       id="paint2_linear_57_2069"
       x1="61.000801"
       y1="135.5"
       x2="196.274"
       y2="135.5"
       gradientUnits="userSpaceOnUse">
      <stop
         stop-color="#E8EFF8"
         id="stop28" />
      <stop
         offset="0.99900794"
         stop-color="#F5FAFF"
         id="stop29"
         style="stop-color:#0066cc;stop-opacity:1;" />
    </linearGradient>
    <filter
       id="filter3_d_57_2069"
       x="98.3349"
       y="126.834"
       width="31.1845"
       height="31.1845"
       filterUnits="userSpaceOnUse"
       color-interpolation-filters="sRGB">
      <feFlood
         flood-opacity="0"
         result="BackgroundImageFix"
         id="feFlood21" />
      <feColorMatrix
         in="SourceAlpha"
         type="matrix"
         values="0 0 0 0 0 0 0 0 0 0 0 0 0 0 0 0 0 0 127 0"
         result="hardAlpha"
         id="feColorMatrix22" />
      <feOffset
         dy="2.49943"
         id="feOffset22" />
      <feGaussianBlur
         stdDeviation="3.33257"
         id="feGaussianBlur22" />
      <feComposite
         in2="hardAlpha"
         operator="out"
         id="feComposite22" />
      <feColorMatrix
         type="matrix"
         values="0 0 0 0 0 0 0 0 0 0 0 0 0 0 0 0 0 0 0.1 0"
         id="feColorMatrix23" />
      <feBlend
         mode="normal"
         in2="BackgroundImageFix"
         result="effect1_dropShadow_57_2069"
         id="feBlend23" />
      <feBlend
         mode="normal"
         in="SourceGraphic"
         in2="effect1_dropShadow_57_2069"
         result="shape"
         id="feBlend24" />
    </filter>
    <linearGradient
       id="paint3_linear_57_2069"
       x1="128.55"
       y1="89.944702"
       x2="128.55"
       y2="109.741"
       gradientUnits="userSpaceOnUse">
      <stop
         stop-color="#505050"
         id="stop30" />
      <stop
         offset="1"
         stop-color="#191919"
         id="stop31" />
    </linearGradient>
    <linearGradient
       inkscape:collect="always"
       xlink:href="#linearGradient2"
       id="linearGradient3"
       x1="94.813904"
       y1="113.2524"
       x2="94.813904"
       y2="128.0486"
       gradientUnits="userSpaceOnUse" />
    <linearGradient
       inkscape:collect="always"
       xlink:href="#linearGradient4"
       id="linearGradient5"
       x1="141.31799"
       y1="132.27701"
       x2="141.31799"
       y2="147.073"
       gradientUnits="userSpaceOnUse" />
    <linearGradient
       inkscape:collect="always"
       xlink:href="#linearGradient6"
       id="linearGradient7"
       x1="113.927"
       y1="131"
       x2="113.927"
       y2="148.854"
       gradientUnits="userSpaceOnUse" />
    <radialGradient
       inkscape:collect="always"
       xlink:href="#linearGradient11"
       id="radialGradient12"
       cx="128.6366"
       cy="136"
       fx="128.6366"
       fy="136"
       r="67.636587"
       gradientTransform="matrix(1,0,0,0.47435789,0,71.487326)"
       gradientUnits="userSpaceOnUse" />
    <linearGradient
       inkscape:collect="always"
       xlink:href="#linearGradient12"
       id="linearGradient14"
       x1="128.6366"
       y1="68.363411"
       x2="128.6366"
       y2="203.6366"
       gradientUnits="userSpaceOnUse" />
    <filter
       inkscape:collect="always"
       style="color-interpolation-filters:sRGB"
       id="filter14"
       x="-0.078811284"
       y="-0.13429439"
       width="1.1571448"
       height="1.2684707">
      <feGaussianBlur
         inkscape:collect="always"
         stdDeviation="3.5198934"
         id="feGaussianBlur14" />
    </filter>
    <linearGradient
       inkscape:collect="always"
       xlink:href="#linearGradient15"
       id="linearGradient16"
       x1="128.63687"
       y1="68.070892"
       x2="128.63687"
       y2="203.92822"
       gradientUnits="userSpaceOnUse" />
    <linearGradient
       id="paint3_linear_57_2069-3"
       x1="128.55"
       y1="89.944702"
       x2="128.55"
       y2="109.741"
       gradientUnits="userSpaceOnUse"
       gradientTransform="translate(-2.8065902e-5,5.7942503e-4)">
      <stop
         stop-color="#505050"
         id="stop30-2" />
      <stop
         offset="1"
         stop-color="#191919"
         id="stop31-2" />
    </linearGradient>
    <filter
       inkscape:collect="always"
       style="color-interpolation-filters:sRGB"
       id="filter19"
       x="-0.0084193193"
       y="-0.013349247"
       width="1.0168418"
       height="1.0266983">
      <feGaussianBlur
         inkscape:collect="always"
         stdDeviation="0.35293664"
         id="feGaussianBlur19" />
    </filter>
    <linearGradient
       inkscape:collect="always"
       xlink:href="#linearGradient19"
       id="linearGradient20"
       x1="160.87201"
       y1="125.93551"
       x2="160.87201"
       y2="133.3335"
       gradientUnits="userSpaceOnUse" />
    <linearGradient
       inkscape:collect="always"
       xlink:href="#linearGradient21"
       id="linearGradient22"
       x1="169.3275"
       y1="117.47951"
       x2="169.3275"
       y2="124.87849"
       gradientUnits="userSpaceOnUse" />
    <linearGradient
       inkscape:collect="always"
       xlink:href="#linearGradient23"
       id="linearGradient24"
       x1="152.4165"
       y1="117.4795"
       x2="152.4165"
       y2="124.8785"
       gradientUnits="userSpaceOnUse" />
    <linearGradient
       inkscape:collect="always"
       xlink:href="#linearGradient25"
       id="linearGradient26"
       x1="160.87201"
       y1="109.025"
       x2="160.87201"
       y2="116.423"
       gradientUnits="userSpaceOnUse" />
    <linearGradient
       inkscape:collect="always"
       xlink:href="#linearGradient27"
       id="linearGradient32"
       x1="128.55"
       y1="89.944702"
       x2="128.55"
       y2="109.741"
       gradientUnits="userSpaceOnUse" />
    <filter
       inkscape:collect="always"
       style="color-interpolation-filters:sRGB"
       id="filter32"
       x="-0.019686627"
       y="-0.081397412"
       width="1.0391193"
       height="1.1627449">
      <feGaussianBlur
         inkscape:collect="always"
         stdDeviation="0.41197912"
         id="feGaussianBlur32" />
    </filter>
    <radialGradient
       inkscape:collect="always"
       xlink:href="#linearGradient33"
       id="radialGradient34"
       cx="94.813904"
       cy="120.6505"
       fx="94.813904"
       fy="120.6505"
       r="7.8980999"
       gradientTransform="matrix(1,0,0,1.0000506,0,-0.00611036)"
       gradientUnits="userSpaceOnUse" />
    <radialGradient
       inkscape:collect="always"
       xlink:href="#linearGradient34"
       id="radialGradient36"
       cx="113.927"
       cy="139.927"
       fx="113.927"
       fy="139.927"
       r="9.427"
       gradientUnits="userSpaceOnUse" />
    <radialGradient
       inkscape:collect="always"
       xlink:href="#linearGradient36"
       id="radialGradient38"
       cx="141.318"
       cy="139.675"
       fx="141.318"
       fy="139.675"
       r="7.898"
       gradientUnits="userSpaceOnUse" />
  </defs>
  <g
     inkscape:label="Capa 1"
     inkscape:groupmode="layer"
     id="layer1">
    <g
       id="g31"
       transform="matrix(0.91541397,0,0,0.91541397,-50.397607,-59.106432)"
       inkscape:label="gamepad">
      <path
         d="m 175.75161,101.4442 0.0495,0.18215 -4.43792,-1.61763 c -17.363,-7.008004 -19.8709,-3.487776 -20.3989,-3.065176 -0.317,0.5285 -3.46409,3.556766 -6.65809,8.398766 -4.122,4.227 -6.1301,3.96747 -7.0821,3.96747 h -18.60093 c -0.846,0 -2.85405,0.36553 -7.18705,-3.96747 -3.936,-5.342 -6.44685,-7.976066 -6.76485,-8.398766 -0.423,-0.3172 -4.67099,-3.442881 -19.341586,2.536819 l -4.535635,2.196647 -0.03679,0.0543 -1.479509,0.84501 c -0.4226,0.212 -0.739656,0.52936 -0.951156,0.95236 -0.5284,1.162 -13.74042,27.90176 -16.91092,52.42276 -1.1626,9.195 0.105475,15.95914 3.910175,20.29214 3.6993,4.122 8.561579,4.75578 10.570079,4.75578 h 1.585059 c 2.748,0 6.658789,-2.11355 19.553289,-15.95855 1.2683,-1.374 2.219369,-2.11453 2.853469,-2.74853 1.902295,-1.903 5.813555,-2.53681 8.666555,-2.53681 h 40.37378 c 2.854,0 6.86996,0.63381 8.66596,2.53681 0.635,0.634 1.58607,1.37453 2.85407,2.74853 12.894,13.845 16.80529,15.95855 19.55329,15.95855 h 1.58566 c 1.902,0 6.86888,-0.52778 10.56888,-4.75578 3.593,-4.333 4.86107,-11.20414 3.69907,-20.29214 -3.171,-24.521 -16.38292,-51.25976 -16.91092,-52.42276 -0.212,-0.423 -0.63371,-0.84631 -1.05671,-1.05731 l -2.00846,-0.84561 z"
         style="display:inline;mix-blend-mode:normal;fill:#f2f2f2;stroke:none;stroke-width:0.583576;stroke-linecap:round;stroke-linejoin:round;paint-order:stroke markers fill;fill-opacity:1"
         id="path38"
         inkscape:label="surfaceBack"
         transform="translate(1.3199857e-6)" />
      <path
         d="m 192.5182,144.49946 c -3.88989,-14.3398 -7.62901,-23.23809 -12.72446,-36.75929 l -6.29817,-5.42702 c -17.45696,-2.2453 -17.59095,-2.90411 -31.22924,12.41968 -12.97388,-0.96876 -19.76088,-0.26483 -32.92247,-3.64542 -9.638212,-2.4756 -3.41198,-3.45301 -12.678737,-9.79535 -7.608569,-0.91192 -8.583504,0.50554 -15.907823,0.43994 l -1.4797,0.845 c -0.4226,0.212 -0.7398,0.529 -0.9513,0.952 -0.5284,1.162 -13.501857,23.32098 -16.672357,47.84198 -1.1626,9.195 -2.516071,18.93666 1.288629,23.26966 3.6993,4.122 7.544552,7.53246 9.139544,6.35936 l 11.834239,-8.70393 c 2.182244,-1.60501 -0.491883,1.55081 12.402617,-12.29419 4.099328,-5.47892 6.495528,-1.54399 12.473368,-1.62018 l 17.96978,-0.22906 c 2.85375,-0.0364 29.98925,-0.96935 31.78525,0.93365 0.635,0.634 6.82954,4.35166 8.09754,5.72566 12.894,13.845 9.60184,9.88772 11.68769,11.60703 l 4.44611,3.66482 c 1.4437,1.19 8.5374,-0.528 12.2374,-4.756 4.30802,-14.18218 1.76255,-20.36604 -2.49791,-30.82834 z"
         fill="url(#paint2_linear_57_2069)"
         id="path5"
         style="display:inline;mix-blend-mode:normal;fill:url(#radialGradient12);stroke:url(#linearGradient14);stroke-width:4.66861;stroke-linecap:round;stroke-linejoin:round;stroke-dasharray:none;paint-order:stroke markers fill;filter:url(#filter14)"
         inkscape:label="surfaceBevel"
         transform="matrix(0.93432895,0,0,0.97223212,8.6982718,2.0222902)"
         sodipodi:nodetypes="ccccsccccccsscssccsscc" />
      <path
         d="m 175.75161,101.4442 0.0495,0.18215 -4.43792,-1.61763 c -17.363,-7.008004 -19.8709,-3.487776 -20.3989,-3.065176 -0.317,0.5285 -3.46409,3.556766 -6.65809,8.398766 -4.122,4.227 -6.1301,3.96747 -7.0821,3.96747 h -18.60093 c -0.846,0 -2.85405,0.36553 -7.18705,-3.96747 -3.936,-5.342 -6.44685,-7.976066 -6.76485,-8.398766 -0.423,-0.3172 -4.67099,-3.442881 -19.341586,2.536819 l -4.535635,2.196647 -0.03679,0.0543 -1.479509,0.84501 c -0.4226,0.212 -0.739656,0.52936 -0.951156,0.95236 -0.5284,1.162 -13.74042,27.90176 -16.91092,52.42276 -1.1626,9.195 0.105475,15.95914 3.910175,20.29214 3.6993,4.122 8.561579,4.75578 10.570079,4.75578 h 1.585059 c 2.748,0 6.658789,-2.11355 19.553289,-15.95855 1.2683,-1.374 2.219369,-2.11453 2.853469,-2.74853 1.902295,-1.903 5.813555,-2.53681 8.666555,-2.53681 h 40.37378 c 2.854,0 6.86996,0.63381 8.66596,2.53681 0.635,0.634 1.58607,1.37453 2.85407,2.74853 12.894,13.845 16.80529,15.95855 19.55329,15.95855 h 1.58566 c 1.902,0 6.86888,-0.52778 10.56888,-4.75578 3.593,-4.333 4.86107,-11.20414 3.69907,-20.29214 -3.171,-24.521 -16.38292,-51.25976 -16.91092,-52.42276 -0.212,-0.423 -0.63371,-0.84631 -1.05671,-1.05731 l -2.00846,-0.84561 z"
         style="display:inline;mix-blend-mode:normal;fill:none;stroke:url(#linearGradient16);stroke-width:0.583576;stroke-linecap:round;stroke-linejoin:round;paint-order:stroke markers fill;filter:url(#filter19)"
         id="path19"
         inkscape:label="surfaceBorder" />
      <g
         id="g1"
         inkscape:label="buttons">
        <path
           d="m 160.872,125.935 c -2.008,0 -3.699,1.691 -3.699,3.699 0,2.008 1.691,3.7 3.699,3.7 2.008,0 3.699,-1.692 3.699,-3.7 0,-2.008 -1.691,-3.699 -3.699,-3.699 z"
           fill="#5ab179"
           id="path7"
           inkscape:label="green"
           style="fill:#0fbd4d;fill-opacity:1;stroke:url(#linearGradient20);stroke-width:0.875365;stroke-dasharray:none" />
        <path
           d="m 169.327,117.48 c -2.008,0 -3.699,1.691 -3.699,3.699 0,2.008 1.691,3.699 3.699,3.699 2.008,0 3.7,-1.691 3.7,-3.699 0,-2.008 -1.692,-3.699 -3.7,-3.699 z"
           fill="#d73732"
           id="path6"
           inkscape:label="red"
           style="fill:#ff120a;fill-opacity:1;stroke:url(#linearGradient22);stroke-width:0.933722;stroke-dasharray:none" />
        <path
           d="m 152.417,117.48 c -2.009,0 -3.7,1.691 -3.7,3.699 0,2.008 1.691,3.699 3.7,3.699 2.008,0 3.699,-1.691 3.699,-3.699 0,-2.008 -1.691,-3.699 -3.699,-3.699 z"
           fill="#3277ca"
           id="path8"
           inkscape:label="blue"
           style="fill:#0077fc;fill-opacity:1;stroke:url(#linearGradient24);stroke-width:0.933722;stroke-dasharray:none" />
        <path
           d="m 160.872,109.025 c -2.008,0 -3.699,1.691 -3.699,3.699 0,2.008 1.691,3.699 3.699,3.699 2.008,0 3.699,-1.691 3.699,-3.699 0,-2.008 -1.691,-3.699 -3.699,-3.699 z"
           fill="#f7db4e"
           id="path9"
           inkscape:label="yellow"
           style="fill:#ffe146;fill-opacity:1;stroke:url(#linearGradient26);stroke-width:0.933722;stroke-dasharray:none" />
      </g>
      <g
         id="g2"
         inkscape:label="controls">
        <path
           d="m 141.318,132.277 c 4.122,0 7.398,3.276 7.398,7.398 0,4.122 -3.276,7.398 -7.398,7.398 -4.122,0 -7.398,-3.276 -7.398,-7.398 0,-4.016 3.276,-7.398 7.398,-7.398 z"
           fill="#505050"
           id="path10"
           inkscape:label="rightPad"
           style="fill:url(#radialGradient38);stroke:url(#linearGradient5)" />
        <path
           fill-rule="evenodd"
           clip-rule="evenodd"
           d="m 116.427,131.833 c 0,-0.46 -0.373,-0.833 -0.833,-0.833 h -3.333 c -0.46,0 -0.833,0.373 -0.833,0.833 v 4.761 c 0,0.461 -0.373,0.834 -0.834,0.834 h -4.761 c -0.46,0 -0.833,0.373 -0.833,0.833 v 3.333 c 0,0.46 0.373,0.833 0.833,0.833 h 4.761 c 0.461,0 0.834,0.373 0.834,0.833 v 4.761 c 0,0.46 0.373,0.833 0.833,0.833 h 3.333 c 0.46,0 0.833,-0.373 0.833,-0.833 v -4.761 c 0,-0.46 0.373,-0.833 0.833,-0.833 h 4.761 c 0.46,0 0.833,-0.373 0.833,-0.833 v -3.333 c 0,-0.46 -0.373,-0.833 -0.833,-0.833 h -4.761 c -0.46,0 -0.833,-0.373 -0.833,-0.834 z"
           fill="#494949"
           id="path12"
           inkscape:label="cross"
           style="fill:url(#radialGradient36);stroke:url(#linearGradient7)" />
        <path
           d="m 94.8141,113.252 c 4.122,0 7.3979,3.277 7.3979,7.399 0,4.121 -3.2759,7.398 -7.3979,7.398 -4.1219,0 -7.3983,-3.277 -7.3983,-7.398 0,-4.017 3.2764,-7.399 7.3983,-7.399 z"
           fill="#505050"
           id="path11"
           inkscape:label="leftPad"
           style="fill:url(#radialGradient34);stroke:url(#linearGradient3)" />
        <path
           d="m 175.167,99.3009 0.634,2.3251 -4.438,-1.618 C 154,93 151.492,96.5206 150.964,96.9432 c -0.317,0.5285 -3.464,3.5568 -6.658,8.3988 -4.122,4.227 -6.13,3.967 -7.082,3.967 h -18.601 c -0.846,0 -2.854,0.366 -7.187,-3.967 C 107.5,100 104.989,97.3659 104.671,96.9432 104.248,96.626 100,93.5 85.3294,99.4797 l -4.6504,2.2523 0.6341,-2.4311 c 0.1057,-0.2112 0.1057,-0.4226 0.2114,-0.5284 0.1058,-0.2114 1.4797,-2.8537 5.2845,-4.3334 C 90.2971,93.0652 99.0692,90 104.354,90 c 1.797,0 3.171,0.3169 4.227,1.0568 0.74,0.4227 4.017,3.1706 6.976,3.1706 h 25.366 c 3.065,0 6.235,-2.8534 6.975,-3.1706 C 148.85,90.3172 150.329,90 152.126,90 c 5.284,0 14.057,3.0651 17.545,4.4391 3.804,1.4797 5.178,4.122 5.284,4.3334 0.106,0.2112 0.212,0.317 0.212,0.5284 z"
           fill="url(#paint3_linear_57_2069)"
           id="path13"
           style="display:inline;mix-blend-mode:normal;fill:url(#paint3_linear_57_2069);stroke:url(#linearGradient32);stroke-width:1.16715;stroke-dasharray:none;stroke-opacity:1;filter:url(#filter32)"
           inkscape:label="triggers" />
      </g>
    </g>
  </g>
</svg>
