<?xml version="1.0" encoding="UTF-8" standalone="no"?>
<!-- Created with Inkscape (http://www.inkscape.org/) -->

<svg
   width="512"
   height="512"
   viewBox="0 0 135.46666 135.46667"
   version="1.1"
   id="svg1"
   inkscape:version="1.4.2 (f4327f4, 2025-05-13)"
   sodipodi:docname="folder-debian-small.svg"
   xmlns:inkscape="http://www.inkscape.org/namespaces/inkscape"
   xmlns:sodipodi="http://sodipodi.sourceforge.net/DTD/sodipodi-0.dtd"
   xmlns="http://www.w3.org/2000/svg"
   xmlns:svg="http://www.w3.org/2000/svg">
  <sodipodi:namedview
     id="namedview1"
     pagecolor="#ffffff"
     bordercolor="#000000"
     borderopacity="0.25"
     inkscape:showpageshadow="2"
     inkscape:pageopacity="0.0"
     inkscape:pagecheckerboard="0"
     inkscape:deskcolor="#d1d1d1"
     inkscape:document-units="mm"
     inkscape:zoom="1.3867188"
     inkscape:cx="256"
     inkscape:cy="255.63944"
     inkscape:window-width="1920"
     inkscape:window-height="1009"
     inkscape:window-x="-8"
     inkscape:window-y="-8"
     inkscape:window-maximized="1"
     inkscape:current-layer="layer1" />
  <defs
     id="defs1" />
  <g
     inkscape:label="Capa 1"
     inkscape:groupmode="layer"
     id="layer1">
    <path
       id="path5"
       d="m 75.31204,2.733337 c -0.61062,0.05148 -1.218722,0.09568 -1.826277,0.1404975 -1.398763,0.1033175 -2.789271,0.208065 -4.169658,0.385567 l 0.872783,0.116545 C 71.012225,3.074314 72.047935,3.0228312 73.073282,2.969443 73.859884,2.928363 74.640209,2.886048 75.31204,2.7333305 Z m -8.796627,0.9265917 c -1.242651,0.075428 -2.670581,0.3664162 -3.8857,0.6157274 -1.983345,0.4073745 -3.399454,0.6997278 -2.528677,-0.263055 -0.996273,0.4447365 -2.138202,0.9218236 -3.368615,1.4377128 -5.370059,2.2517802 -12.458257,5.2250671 -16.789194,9.2868141 l -0.167408,-1.120875 c -0.791197,0.94883 -2.188972,2.206192 -3.739235,3.595765 -3.226016,2.895457 -7.109468,6.381245 -7.550213,8.943083 l -0.6516,0.152425 c -0.852415,1.441607 -1.503416,3.012539 -2.143111,4.558211 -0.313722,0.759065 -0.624388,1.510306 -0.956483,2.238761 -1.368143,2.330745 -2.135213,1.56102 -2.229788,1.464605 -0.0031,-0.0031 -0.0042,-0.0075 -0.0058,-0.0091 h -0.0031 c 0.001,0.0016 0.0032,0.0091 0.0091,0.01788 0.0069,0.01203 0.01918,0.03354 0.03296,0.0598 -3.065787,6.216354 -4.682696,11.5002 -6.028802,15.898472 -0.0874,0.286195 -0.174493,0.567366 -0.260066,0.845882 0.578,0.863126 0.493845,3.739533 0.394531,7.170614 -0.07224,2.496028 -0.153042,5.285141 0.0059,7.810243 -1.640253,29.614121 20.783376,58.367526 45.295276,65.004736 3.134179,1.12023 7.598936,1.2277 11.704894,1.32411 h 0.0028 c 0.599913,0.0146 1.19249,0.025 1.772495,0.0416 -2.433294,-0.69478 -3.905915,-0.92601 -5.275596,-1.1418 -1.648205,-0.2586 -3.149287,-0.4968 -6.001886,-1.4915 -2.518982,-1.18605 -3.723265,-2.48338 -5.04244,-3.90662 -0.653464,-0.7055 -1.337812,-1.44063 -2.220837,-2.20886 l 1.058117,1.86512 c -2.699571,-0.95495 -3.425055,-1.53457 -4.076995,-2.05642 -0.613679,-0.48974 -1.165198,-0.93072 -3.228128,-1.58418 l 1.129551,-1.47017 c -1.69565,-0.12854 -4.492453,-2.85792 -5.257637,-4.36992 l -1.856172,0.0718 c -2.229742,-2.7516 -3.416986,-4.73444 -3.329749,-6.27092 l -0.600782,1.07006 c -0.153043,-0.2617 -0.653084,-0.92903 -1.291243,-1.78145 -2.196076,-2.93371 -6.033931,-8.0567 -3.009932,-6.40543 -0.169877,-0.15454 -0.351149,-0.29835 -0.543989,-0.44832 -0.6351,-0.49124 -1.386035,-1.07631 -2.187949,-2.53168 l 0.792086,-0.905668 c -1.877761,-2.416457 -3.456623,-5.51744 -3.335726,-6.548878 1.002389,1.354358 1.698097,1.607125 2.385232,1.838218 -2.388905,-5.927108 -3.64439,-6.048677 -4.758492,-6.157338 -1.098806,-0.105625 -2.060977,-0.198445 -3.843851,-5.82258 l 0.759208,-0.0598 C 25.290485,81.818633 25.001803,81.184056 24.70797,80.545886 24.571763,80.24749 24.432013,79.947626 24.283536,79.649211 l 0.331773,-3.296883 c -2.686257,-3.105106 -1.737838,-11.709166 -0.971428,-18.669273 0.208098,-1.890005 0.404076,-3.659185 0.508131,-5.162003 0.197405,-1.648205 1.109934,-3.357575 2.214858,-5.42204 0.814151,-1.52425 1.734073,-3.238811 2.543641,-5.269594 l -1.162734,-0.203255 c 2.223627,-3.876415 12.689785,-15.567333 17.536444,-14.965901 0.688623,-0.865039 0.933068,-1.227356 0.923611,-1.321148 v -0.0031 -0.0031 l -0.0031,-0.0031 v -0.0031 l -0.0031,-0.0031 -0.0031,-0.0031 h -0.0031 l -0.0031,-0.0031 h -0.0031 -0.0031 c -0.0626,-0.01105 -0.241898,0.09597 -0.46631,0.230134 -0.474409,0.284635 -1.15339,0.690781 -1.359993,0.35867 3.799907,-3.933042 5.67874,-4.118415 7.798292,-4.328076 0.756004,-0.07345 1.546254,-0.151027 2.462943,-0.403497 0.789592,-0.468741 1.104981,-0.705879 1.126858,-0.798056 1.95e-4,-0.0015 -1.8e-5,-0.0074 0,-0.0091 -2.04e-4,-0.0014 -0.0028,-0.0074 -0.0028,-0.0091 l -0.0028,-0.0031 v -0.0031 l -0.0028,-0.0031 c -9.28e-4,-10e-4 -0.0074,-0.0046 -0.0093,-0.0065 -0.0019,-8e-4 -0.0074,-0.0046 -0.0093,-0.0065 -0.114298,-0.03932 -0.563021,0.08249 -1.070058,0.218172 -1.054425,0.281578 -2.367318,0.629991 -1.473582,-0.233155 2.750071,-0.702439 3.995861,-1.483265 5.162007,-2.217842 1.585462,-0.997795 3.027078,-1.906068 7.905885,-2.391193 0.508078,0.28769 -0.232245,0.503734 -1.099939,0.756212 -0.661124,0.191295 -1.397314,0.404307 -1.718693,0.690457 5.406793,-2.646007 17.111715,-2.044587 24.713038,1.467607 8.822571,4.122805 18.73482,16.30826 19.1266,27.77377 l 0.44237,0.119507 c -0.0689,1.412534 -0.0267,2.896698 0.0146,4.411764 0.0933,3.374457 0.18873,6.917449 -0.91465,10.258235 l 1.09697,-2.289578 c 0.098,2.647533 -0.54104,4.257379 -1.30621,6.190229 -0.24332,0.612151 -0.49933,1.257972 -0.74724,1.975721 l -1.85913,0.929574 c -0.81874,1.590049 -0.71829,2.013793 -0.61575,2.430072 0.0873,0.359654 0.17625,0.712743 -0.32877,1.802357 -0.31986,0.284635 -0.68565,0.614844 -1.08201,0.971425 -2.541932,2.284834 -6.344118,5.702125 -7.684724,6.058706 -0.75907,-0.0169 -0.151933,-0.614919 0.403557,-1.15973 0.270855,-0.266305 0.528608,-0.519109 0.609747,-0.687477 -1.072798,0.737638 -1.71444,1.348833 -2.277619,1.889048 -1.10799,1.062063 -1.919497,1.838488 -5.147044,2.71999 l -0.14034,-0.316514 C 75.718086,87.35203 59.033384,76.155213 59.253752,60.879089 c -0.08719,0.658051 -0.223377,0.759395 -0.385561,0.878763 -0.07652,0.05497 -0.15639,0.11661 -0.242125,0.242125 -0.619822,-7.859958 3.629535,-15.757189 10.796249,-18.98014 7.010603,-3.470873 15.227792,-2.043556 20.250454,2.636298 -2.75925,-3.613193 -8.24955,-7.445012 -14.756672,-7.086911 -6.375507,0.100977 -12.335264,4.151795 -14.326261,8.548538 -1.98795,1.251845 -2.907487,3.919315 -3.643593,6.055707 -0.471343,1.371203 -0.867249,2.524842 -1.422767,2.944166 -1.914493,14.070188 3.601288,20.148645 12.930404,27.298515 0.740694,0.498875 0.838287,0.784606 0.78014,1.040167 l 0.0065,-0.0065 c 11.007926,4.113618 22.378089,3.115627 31.90157,-4.519376 1.10799,-0.863116 2.26314,-2.001898 3.26398,-2.988988 1.18604,-1.170715 2.15581,-2.12758 2.57053,-2.152075 -0.60601,0.910575 -0.51917,1.093968 -0.43038,1.285263 0.0797,0.172937 0.16217,0.353637 -0.25705,1.079037 1.10034,-1.775233 0.97872,-2.26316 0.85784,-2.75287 -0.14544,-0.584611 -0.29182,-1.176408 1.63798,-3.972383 l 1.30917,1.802357 c -0.22187,-1.47068 0.58853,-3.085689 1.4945,-4.889987 1.08656,-2.159356 2.31033,-4.591581 2.0624,-7.37685 1.03147,-1.56403 1.15109,1.682209 0.0538,5.278576 0.95647,-2.508276 0.87064,-3.694127 0.77116,-5.04544 -0.0596,-0.79885 -0.12155,-1.655643 0.0238,-2.878404 0.11635,0.304525 0.24206,0.615847 0.37065,0.929574 0.32292,0.791199 0.65117,1.604024 0.86084,2.415113 -0.66571,-2.722516 0.16137,-4.834468 0.8638,-6.629592 0.27856,-0.710088 0.53625,-1.370655 0.67554,-1.999642 -0.11635,-0.05033 -0.25932,0.01625 -0.41849,0.0897 -0.5142,0.238718 -1.16592,0.543419 -1.34803,-2.938176 0.023,-1.326836 0.26247,-1.338787 0.47823,-1.351025 0.10562,-0.0065 0.20621,-0.01207 0.27196,-0.173355 -0.38868,-0.223433 -1.40673,-1.738667 -2.02653,-4.647888 0.2479,-0.377991 0.58786,0.205268 0.94751,0.81897 0.28925,0.494306 0.59142,1.009218 0.86382,1.055126 -0.15307,-0.901383 -0.34688,-1.7186 -0.53207,-2.486845 -0.28769,-1.201338 -0.54654,-2.279129 -0.56493,-3.362626 -0.96872,-2.026205 -1.07317,-1.706654 -1.1956,-1.327121 -0.104,0.32136 -0.2221,0.686077 -0.88473,-0.274983 -1.1187,-3.487703 -0.37713,-3.349864 0.47225,-3.192235 0.59533,0.110175 1.24267,0.230717 1.33909,-0.878769 2.65671,3.848874 4.26094,9.648808 5.08429,12.631498 0.0704,0.252525 0.13617,0.485336 0.19428,0.693448 -0.5754,-3.267337 -1.50374,-6.432251 -2.63928,-9.496046 0.34889,0.146932 0.19481,-0.898463 0.0452,-1.906977 -0.22345,-1.512 -0.43786,-2.938501 1.09097,-0.119502 C 115.7291,25.155663 106.80307,15.79972 98.592646,11.410773 l 0.03027,0.0273 c 0.999329,0.914536 2.238884,2.047743 1.787424,2.226795 -3.267325,-1.945549 -3.459967,-2.456157 -3.706363,-3.108552 -0.06268,-0.162825 -0.125775,-0.33594 -0.242125,-0.540984 C 94.354533,9.1580171 93.492633,9.4315603 92.585131,9.7194193 92.060228,9.8859493 91.520515,10.057325 90.714013,10.018354 86.520807,7.7941137 84.589388,7.2152106 82.04591,6.4524774 80.786424,6.0749509 79.375208,5.6541492 77.463781,4.963956 l 0.26299,1.2254924 C 75.418974,5.4210462 74.182089,5.667958 72.768033,5.9503459 71.637088,6.1763834 70.396703,6.4266659 68.4011,6.1954284 68.127153,5.9817734 69.837164,5.4226387 71.246633,5.2180252 69.38417,5.4637902 68.424816,5.3108731 67.540268,5.170018 66.517985,5.0074855 65.597502,4.8618855 63.490174,5.364303 c 0.656537,-0.459602 1.334821,-0.8144305 2.026551,-1.1746809 0.330553,-0.172315 0.6647,-0.34502 0.998317,-0.5320166 z m 2.719999,80.7985703 c -0.03705,0.03343 -0.04977,0.07782 -0.0416,0.13455 0.0169,-0.04568 0.0312,-0.08858 0.0416,-0.13455 z m -0.0416,0.13455 c -0.01207,0.03055 -0.02498,0.06351 -0.03872,0.09572 -0.07503,0.17602 -0.155545,0.364567 -0.08664,0.624715 -3.100528,-1.452332 -5.939737,-3.644995 -8.273544,-6.327722 1.239588,1.813482 2.576368,3.575307 4.304152,4.958757 -1.750738,-0.592252 -3.854472,-3.014653 -5.505742,-4.916897 -1.103393,-1.273266 -2.006875,-2.312663 -2.462924,-2.412131 5.037965,9.021517 20.439501,15.819115 28.506057,12.4462 -3.73255,0.1378 -8.471171,0.0767 -12.664377,-1.473578 -1.593104,-0.820291 -3.707693,-2.434891 -3.778088,-2.994996 z M 69.761745,4.4102089 c 0.20202,0.036428 0.41067,0.070497 0.615727,0.10465 0.958007,0.1603875 1.837373,0.3085225 1.682813,0.5350253 0.461333,-0.10127 0.790428,-0.2005901 0.833922,-0.2899651 0.0046,-0.013325 0.0065,-0.03185 -0.0028,-0.04511 -0.110472,-0.131235 -0.969651,-0.2435225 -3.129471,-0.3048825 z m 2.29854,0.6396455 -0.813011,0.167375 0.75621,-0.065752 z M 19.05643,30.566912 c -0.0012,0.07196 0.0031,0.13481 0.01495,0.185315 -0.0046,-0.0612 -0.0088,-0.124117 -0.01495,-0.185315 z m 0.01495,0.185315 c 0.133446,1.851696 -0.789517,2.983998 -0.810015,3.087634 v 0.0031 c 0.02243,0.02145 0.36295,-0.29406 1.386891,-1.010273 0.95786,-2.156286 0.519178,-2.047337 0.03584,-1.924906 -0.263998,0.06734 -0.542952,0.138353 -0.612743,-0.155415 z m -2.403154,9.681374 c -1.30142,1.665036 -1.204464,2.414548 -1.093977,3.266963 0.048,0.368791 0.09821,0.756693 0.03874,1.246412 0.496275,-1.522718 0.694494,-2.599327 0.866815,-3.538979 0.06201,-0.33669 0.120185,-0.657612 0.188338,-0.974396 z m 76.766418,14.40098 c -0.266073,0.0074 -0.607954,0.685815 -0.78013,1.425747 0.148367,0.078 0.28678,0.476553 0.421432,0.866813 0.226488,0.656537 0.441155,1.284316 0.684497,0.304887 0.130167,-1.939749 -0.05961,-2.604337 -0.325808,-2.597456 z m 23.553296,6.536948 v 0.0093 l 0.004,-0.0093 z m 0,0.0093 -0.31386,0.786101 c -0.57999,4.121269 -1.83355,8.196909 -3.75417,11.9769 2.11957,-3.986599 3.49261,-8.344839 4.06803,-12.763001 z m -24.946163,1.443669 c -0.252525,1.254917 -0.883108,2.361673 -1.527388,3.494149 -0.08877,0.157625 -0.180245,0.311638 -0.268998,0.469254 -2.728635,1.717077 -1.932859,0.416167 -1.019237,-1.079028 0.434608,-0.71162 0.895347,-1.466475 1.016247,-1.960781 -2.915352,3.669816 -2.17256,3.877761 -1.425747,4.088955 0.362718,0.100982 0.727526,0.203617 0.675498,0.699419 1.283992,-1.769105 2.219073,-3.708733 2.549625,-5.711987 z m -8.781676,8.321365 c -1.75227,0.42848 -3.532722,0.438722 -5.329378,0.274978 -2.153227,0.03055 0.407838,1.109243 3.219143,1.54232 0.777428,-0.606005 1.48279,-1.220468 2.110235,-1.817307 z m -27.181943,0.277968 c 0.419343,1.548736 1.23046,2.903541 2.038493,4.25334 0.104065,0.17446 0.209793,0.348604 0.313858,0.523055 l -0.663493,-1.954652 c -0.656527,-0.725382 -1.08094,-1.581729 -1.509448,-2.450974 -0.05971,-0.123955 -0.11817,-0.246712 -0.179363,-0.370649 z m -1.658892,2.953126 -0.30186,1.509449 c 0.384122,0.520325 0.74477,1.05313 1.105928,1.58418 0.968732,1.424763 1.922422,2.8288 3.240074,3.924533 -0.609087,-1.190624 -1.146099,-2.052403 -1.727635,-2.988988 -0.65806,-1.057485 -1.373775,-2.208041 -2.31647,-4.029174 z"
       style="fill:#a80030;fill-opacity:1;stroke-width:1.53037"
       inkscape:label="debian" />
  </g>
</svg>
