<?xml version="1.0" encoding="UTF-8" standalone="no"?>
<svg
   width="256"
   height="256"
   viewBox="0 0 256 256"
   fill="none"
   version="1.1"
   id="svg22"
   sodipodi:docname="folder-system-performance-small.svg"
   inkscape:version="1.4.2 (f4327f4, 2025-05-13)"
   xmlns:inkscape="http://www.inkscape.org/namespaces/inkscape"
   xmlns:sodipodi="http://sodipodi.sourceforge.net/DTD/sodipodi-0.dtd"
   xmlns="http://www.w3.org/2000/svg"
   xmlns:svg="http://www.w3.org/2000/svg">
  <sodipodi:namedview
     id="namedview22"
     pagecolor="#ffffff"
     bordercolor="#000000"
     borderopacity="0.25"
     inkscape:showpageshadow="2"
     inkscape:pageopacity="0.0"
     inkscape:pagecheckerboard="0"
     inkscape:deskcolor="#d1d1d1"
     inkscape:zoom="3.1523438"
     inkscape:cx="127.84139"
     inkscape:cy="128"
     inkscape:window-width="1920"
     inkscape:window-height="1009"
     inkscape:window-x="-8"
     inkscape:window-y="-8"
     inkscape:window-maximized="1"
     inkscape:current-layer="svg22" />
  <mask
     id="mask0_853_21681"
     style="mask-type:alpha"
     maskUnits="userSpaceOnUse"
     x="17"
     y="34"
     width="224"
     height="138">
    <path
       fill-rule="evenodd"
       clip-rule="evenodd"
       d="M104.425 42.3784C100.056 37.0733 93.5437 34 86.6712 34H29C22.3726 34 17 39.3726 17 46V58.1371V68.2V160C17 166.627 22.3726 172 29 172H229C235.627 172 241 166.627 241 160V70.1371C241 63.5097 235.627 58.1371 229 58.1371H117.404L104.425 42.3784Z"
       fill="url(#paint0_linear_853_21681)"
       id="path2" />
  </mask>
  <g
     id="g22"
     transform="matrix(1.0323938,0,0,1.1571359,-5.1788002,-33.999026)">
    <g
       filter="url(#filter1_d_853_21681)"
       id="g6">
      <g
         filter="url(#filter2_ii_853_21681)"
         id="g5">
        <path
           fill-rule="evenodd"
           clip-rule="evenodd"
           d="m 229,62 c 6.627,0 12,5.3726 12,12 v 34 90 c 0,6.627 -5.373,12 -12,12 H 29 c -6.6274,0 -12,-5.373 -12,-12 V 108 80.952113 c 0,-6.6274 -0.396414,-18.92733 12,-18.92733 C 98.317207,62.024783 158.94756,62 229,62 Z"
           fill="url(#paint1_linear_853_21681)"
           id="path4"
           sodipodi:nodetypes="sscsssscsss"
           style="fill:url(#paint1_linear_853_21681)" />
      </g>
    </g>
    <path
       d="m 222.054,73 c 5.598,0 10.135,4.5377 10.135,10.1351 V 187.865 c 0,5.597 -4.537,10.135 -10.135,10.135 H 36.1351 C 30.5376,198 26,193.462 26,187.865 V 88.222413 c 0,-5.5975 0.391221,-15.228158 10.1351,-15.228158 33.685362,0 120.20881,0.0057 185.9189,0.0057 z"
       fill="url(#paint2_linear_853_21681)"
       id="path6"
       sodipodi:nodetypes="sssssssss"
       style="fill:url(#paint2_linear_853_21681)" />
    <path
       d="m 37.041,139.508 v 44.901 c 0,0.427 0.0814,0.844 0.2543,1.241 0.3255,0.753 0.9359,1.363 1.6988,1.679 0.3866,0.173 0.8138,0.254 1.2411,0.254 H 218.679 c 0.428,0 0.855,-0.081 1.252,-0.254 0.569,-0.234 1.058,-0.631 1.393,-1.14 0.122,-0.173 0.224,-0.356 0.306,-0.539 0.162,-0.386 0.244,-0.814 0.244,-1.241 V 147.92 H 160.55 l -8.616,-37.882 -6.48,39.927 h -6.46 l -5.564,-14.343 h -3.062 l -3.235,-8.199 -10.782,0.987 -2.513,-12.228 -9.328,-12.298 -5.1272,38.95 -4.13,6.144 -6.9681,-9.257 -51.2437,-0.203 z"
       fill="url(#paint3_linear_853_21681)"
       id="path7"
       style="fill:url(#paint3_linear_853_21681)" />
    <path
       d="m 37.041,139.721 h 51.2437 l 6.5104,8.199 4.3131,-6.155 5.3918,-38.94 8.616,12.299 3.235,13.285 10.782,-0.987 3.235,8.199 h 3.062 l 5.564,14.343 h 6.46 l 6.47,-41.981 8.626,39.937 h 61.324"
       stroke="#42d2b2"
       stroke-width="2.60415"
       stroke-linejoin="round"
       id="path8" />
  </g>
  <defs
     id="defs22">
    <filter
       id="filter0_f_853_21681"
       x="-20"
       y="25"
       width="298"
       height="184"
       filterUnits="userSpaceOnUse"
       color-interpolation-filters="sRGB">
      <feFlood
         flood-opacity="0"
         result="BackgroundImageFix"
         id="feFlood8" />
      <feBlend
         mode="normal"
         in="SourceGraphic"
         in2="BackgroundImageFix"
         result="shape"
         id="feBlend8" />
      <feGaussianBlur
         stdDeviation="18.5"
         result="effect1_foregroundBlur_853_21681"
         id="feGaussianBlur8" />
    </filter>
    <filter
       id="filter1_d_853_21681"
       x="13"
       y="62"
       width="232"
       height="156"
       filterUnits="userSpaceOnUse"
       color-interpolation-filters="sRGB">
      <feFlood
         flood-opacity="0"
         result="BackgroundImageFix"
         id="feFlood9" />
      <feColorMatrix
         in="SourceAlpha"
         type="matrix"
         values="0 0 0 0 0 0 0 0 0 0 0 0 0 0 0 0 0 0 127 0"
         result="hardAlpha"
         id="feColorMatrix9" />
      <feOffset
         dy="4"
         id="feOffset9" />
      <feGaussianBlur
         stdDeviation="2"
         id="feGaussianBlur9" />
      <feComposite
         in2="hardAlpha"
         operator="out"
         id="feComposite9" />
      <feColorMatrix
         type="matrix"
         values="0.0000000 0.0000000 0.0000000 0.0000000 0.0000000 0.0000000 0.0000000 0.0000000 0.0000000 0.0000000 0.0000000 0.0000000 0.0000000 0.0000000 0.0000000 0.0000000 0.0000000 0.0000000 0.25000000 0.0000000 "
         id="feColorMatrix10" />
      <feBlend
         mode="normal"
         in2="BackgroundImageFix"
         result="effect1_dropShadow_853_21681"
         id="feBlend10" />
      <feBlend
         mode="normal"
         in="SourceGraphic"
         in2="effect1_dropShadow_853_21681"
         result="shape"
         id="feBlend11" />
    </filter>
    <filter
       id="filter2_ii_853_21681"
       x="17"
       y="62"
       width="224"
       height="148"
       filterUnits="userSpaceOnUse"
       color-interpolation-filters="sRGB">
      <feFlood
         flood-opacity="0"
         result="BackgroundImageFix"
         id="feFlood11" />
      <feBlend
         mode="normal"
         in="SourceGraphic"
         in2="BackgroundImageFix"
         result="shape"
         id="feBlend12" />
      <feColorMatrix
         in="SourceAlpha"
         type="matrix"
         values="0 0 0 0 0 0 0 0 0 0 0 0 0 0 0 0 0 0 127 0"
         result="hardAlpha"
         id="feColorMatrix12" />
      <feOffset
         dy="4"
         id="feOffset12" />
      <feComposite
         in2="hardAlpha"
         operator="arithmetic"
         k2="-1"
         k3="1"
         id="feComposite12" />
      <feColorMatrix
         type="matrix"
         values="0 0 0 0 1 0 0 0 0 1 0 0 0 0 1 0 0 0 0.25 0"
         id="feColorMatrix13" />
      <feBlend
         mode="normal"
         in2="shape"
         result="effect1_innerShadow_853_21681"
         id="feBlend13" />
      <feColorMatrix
         in="SourceAlpha"
         type="matrix"
         values="0.0000000 0.0000000 0.0000000 0.0000000 0.0000000 0.0000000 0.0000000 0.0000000 0.0000000 0.0000000 0.0000000 0.0000000 0.0000000 0.0000000 0.0000000 0.0000000 0.0000000 0.0000000 127.00000 0.0000000 "
         result="hardAlpha"
         id="feColorMatrix14" />
      <feOffset
         dy="-4"
         id="feOffset14" />
      <feComposite
         in2="hardAlpha"
         operator="arithmetic"
         k2="-1"
         k3="1"
         id="feComposite14" />
      <feColorMatrix
         type="matrix"
         values="0.0000000 0.0000000 0.0000000 0.0000000 0.0000000 0.0000000 0.0000000 0.0000000 0.0000000 0.0000000 0.0000000 0.0000000 0.0000000 0.0000000 0.0000000 0.0000000 0.0000000 0.0000000 0.50000000 0.0000000 "
         id="feColorMatrix15" />
      <feBlend
         mode="soft-light"
         in2="effect1_innerShadow_853_21681"
         result="effect2_innerShadow_853_21681"
         id="feBlend15" />
    </filter>
    <linearGradient
       id="paint0_linear_853_21681"
       x1="17"
       y1="34"
       x2="197.768"
       y2="215.142"
       gradientUnits="userSpaceOnUse">
      <stop
         stop-color="#05815D"
         id="stop15" />
      <stop
         offset="1"
         stop-color="#0C575F"
         id="stop16" />
    </linearGradient>
    <linearGradient
       id="paint1_linear_853_21681"
       x1="17"
       y1="62"
       x2="241"
       y2="210"
       gradientUnits="userSpaceOnUse">
      <stop
         stop-color="#B7C2CC"
         id="stop17" />
      <stop
         offset="1"
         stop-color="#8A9299"
         id="stop18" />
    </linearGradient>
    <linearGradient
       id="paint2_linear_853_21681"
       x1="41.8733"
       y1="64.998"
       x2="179.744"
       y2="235.564"
       gradientUnits="userSpaceOnUse">
      <stop
         stop-color="#333333"
         id="stop19" />
      <stop
         offset="1"
         stop-color="#232223"
         id="stop20" />
    </linearGradient>
    <linearGradient
       id="paint3_linear_853_21681"
       x1="127.948"
       y1="103.902"
       x2="127.948"
       y2="187.593"
       gradientUnits="userSpaceOnUse">
      <stop
         stop-color="#83E2CD"
         id="stop21" />
      <stop
         offset="1"
         stop-color="#175F4F"
         id="stop22" />
    </linearGradient>
  </defs>
</svg>
