<?xml version="1.0" encoding="UTF-8" standalone="no"?>
<svg
   viewBox="0 0 341.33334 341.33334"
   version="1.1"
   id="svg15"
   sodipodi:docname="folder-games-big.svg"
   inkscape:version="1.4.2 (f4327f4, 2025-05-13)"
   xmlns:inkscape="http://www.inkscape.org/namespaces/inkscape"
   xmlns:sodipodi="http://sodipodi.sourceforge.net/DTD/sodipodi-0.dtd"
   xmlns:xlink="http://www.w3.org/1999/xlink"
   xmlns="http://www.w3.org/2000/svg"
   xmlns:svg="http://www.w3.org/2000/svg">
  <sodipodi:namedview
     id="namedview15"
     pagecolor="#ffffff"
     bordercolor="#000000"
     borderopacity="0.25"
     inkscape:showpageshadow="2"
     inkscape:pageopacity="0.0"
     inkscape:pagecheckerboard="0"
     inkscape:deskcolor="#d1d1d1"
     inkscape:zoom="2.0800781"
     inkscape:cx="170.66667"
     inkscape:cy="170.4263"
     inkscape:window-width="1920"
     inkscape:window-height="1009"
     inkscape:window-x="-8"
     inkscape:window-y="-8"
     inkscape:window-maximized="1"
     inkscape:current-layer="g23" />
  <defs
     id="defs10">
    <linearGradient
       id="linearGradient1">
      <stop
         style="stop-color:#095315;stop-opacity:1;"
         offset="0"
         id="stop1" />
      <stop
         style="stop-color:#227c10;stop-opacity:1;"
         offset="1"
         id="stop2" />
    </linearGradient>
    <linearGradient
       x1="0.78923047"
       y1="-0.13212466"
       x2="0.21087478"
       y2="0.078379586"
       gradientUnits="userSpaceOnUse"
       gradientTransform="matrix(223.99998,-147.99998,147.99998,223.99998,16.999996,194)"
       spreadMethod="pad"
       id="linearGradient85">
      <stop
         style="stop-color:#ffcb3a;stop-opacity:1;"
         offset="0"
         id="stop3" />
      <stop
         style="stop-color:#ffe69e;stop-opacity:1;"
         offset="1"
         id="stop4" />
    </linearGradient>
    <linearGradient
       x1="0.87531334"
       y1="-0.082107842"
       x2="0.30785841"
       y2="0.20139237"
       gradientUnits="userSpaceOnUse"
       gradientTransform="matrix(298.66663,197.3333,197.3333,-298.66663,21.450558,82.66667)"
       spreadMethod="pad"
       id="linearGradient12"
       xlink:href="#linearGradient85">
      <stop
         style="stop-color:#107c22;stop-opacity:1;"
         offset="0"
         id="stop5" />
      <stop
         style="stop-color:#40cb24;stop-opacity:1;"
         offset="1"
         id="stop6" />
    </linearGradient>
    <linearGradient
       x1="0"
       y1="0"
       x2="1"
       y2="0"
       gradientUnits="userSpaceOnUse"
       gradientTransform="matrix(298.68998,3.3336072,3.3336072,-298.68998,21.351119,267.57677)"
       spreadMethod="pad"
       id="linearGradient14">
      <stop
         style="stop-color:#298f14;stop-opacity:1;"
         offset="0"
         id="stop7" />
      <stop
         style="stop-color:#115f1e;stop-opacity:1;"
         offset="1"
         id="stop8" />
    </linearGradient>
    <linearGradient
       x1="0"
       y1="0"
       x2="1"
       y2="0"
       gradientUnits="userSpaceOnUse"
       gradientTransform="matrix(298.66666,0,0,-298.66666,21.450563,101.33334)"
       spreadMethod="pad"
       id="linearGradient16">
      <stop
         style="stop-color:#a6f297;stop-opacity:1;"
         offset="0"
         id="stop9" />
      <stop
         style="stop-color:#3ce758;stop-opacity:1;"
         offset="1"
         id="stop10" />
    </linearGradient>
    <filter
       style="color-interpolation-filters:sRGB;"
       id="filter123"
       x="-0.064285714"
       y="-0.097297297"
       width="1.1285714"
       height="1.2013514">
      <feFlood
         result="flood"
         in="SourceGraphic"
         flood-opacity="1.000000"
         flood-color="#ad7900"
         id="feFlood122" />
      <feGaussianBlur
         result="blur"
         in="SourceGraphic"
         stdDeviation="6.000000"
         id="feGaussianBlur122" />
      <feOffset
         result="offset"
         in="blur"
         dx="0.000000"
         dy="1.000000"
         id="feOffset122" />
      <feComposite
         result="comp1"
         operator="in"
         in="flood"
         in2="offset"
         id="feComposite122" />
      <feComposite
         result="comp2"
         operator="over"
         in="SourceGraphic"
         in2="comp1"
         id="feComposite123" />
    </filter>
    <mask
       maskUnits="userSpaceOnUse"
       id="shadow-mask">
      <path
         d="m 116.459,194 -9.873,-7.402 C 102.605,183.613 97.764002,182 92.788997,182 v 0 H 87.000002 29 c -6.628,0 -12,-5.372 -12,-12 v 0 -22 -90.000001 c 0,-6.627 5.372,-12 12,-12 v 0 h 200 c 6.627,0 12,5.373 12,12 v 0 V 148 182 c 0,6.627 -5.373,12 -12,12 v 0 z m -12.034,19.6216 c -4.369,5.305 -10.881,8.378 -17.754,8.378 H 29 c -6.627,0 -12,-5.372 -12,-12 v -12.137 -10.063 -91.799995 c 0,-6.627 5.373,-12 12,-12 h 200 c 6.627,0 12,5.373 12,12 V 185.8626 c 0,6.628 -5.373,12 -12,12 H 117.404 Z"
         fill="#efb122"
         id="path10" />
    </mask>
    <linearGradient
       xlink:href="#linearGradient1"
       id="linearGradient2"
       x1="180.11719"
       y1="45.462238"
       x2="78.204208"
       y2="221.9807"
       gradientUnits="userSpaceOnUse"
       gradientTransform="matrix(1.3333333,0,0,-1.3333333,-1.2161031,341.33333)" />
    <filter
       style="color-interpolation-filters:sRGB;"
       inkscape:label="Blur"
       id="filter41"
       x="-8.0466241e-05"
       y="-0.2226813"
       width="1.0001609"
       height="1.4453626">
      <feGaussianBlur
         stdDeviation="0.01 10"
         result="blur"
         id="feGaussianBlur41" />
    </filter>
    <linearGradient
       id="paint3_linear_57_2069"
       x1="128.55"
       y1="89.944702"
       x2="128.55"
       y2="109.741"
       gradientUnits="userSpaceOnUse">
      <stop
         stop-color="#505050"
         id="stop30" />
      <stop
         offset="1"
         stop-color="#191919"
         id="stop31" />
    </linearGradient>
    <filter
       inkscape:collect="always"
       style="color-interpolation-filters:sRGB"
       id="filter23"
       x="-0.063367534"
       y="-0.091863517"
       width="1.1267351"
       height="1.183727">
      <feGaussianBlur
         inkscape:collect="always"
         stdDeviation="4.8294143"
         id="feGaussianBlur23" />
    </filter>
  </defs>
  <g
     id="g1"
     style="opacity:1;mix-blend-mode:normal"
     inkscape:label="folder">
    <path
       style="display:inline;fill:url(#linearGradient2)"
       d="m 154.06256,82.66667 -13.164,9.869333 c -5.308,3.98 -11.76267,6.130666 -18.396,6.130666 v 0 h -7.71867 -77.333327 c -8.837334,0 -16,7.162671 -16,16.000001 v 0 V 144 264 c 0,8.836 7.162666,16 16,16 v 0 H 304.11722 c 8.836,0 16,-7.164 16,-16 v 0 -120 -45.333331 c 0,-8.835999 -7.164,-15.999999 -16,-15.999999 v 0 z M 138.01722,56.504537 c -5.82533,-7.073333 -14.508,-11.170666 -23.672,-11.170666 H 37.450563 c -8.836,0 -16,7.162666 -16,15.999999 V 77.516537 90.93387 213.33386 c 0,8.836 7.164,16 16,16 H 304.11722 c 8.836,0 16,-7.164 16,-16 V 93.516536 c 0,-8.837333 -7.164,-15.999999 -16,-15.999999 H 155.32256 Z"
       id="path11"
       inkscape:label="back" />
    <path
       d="M 319.73572,103 H 34.046266 C 26.857241,104.56025 21.474,110.9586 21.474,118.61524 v 29.29297 62.86914 h 298.26172 v -62.86914 z"
       style="display:inline;fill:#051f05;filter:url(#filter41);fill-opacity:1"
       id="path42"
       inkscape:label="shadow" />
    <path
       d="m 154.06256,82.66667 -13.164,9.869333 c -5.308,3.98 -11.76267,6.130666 -18.396,6.130666 v 0 h -7.71867 -77.333327 c -8.837334,0 -16,7.162671 -16,16.000001 v 0 V 144 264 c 0,8.836 7.162666,16 16,16 v 0 H 304.11722 c 8.836,0 16,-7.164 16,-16 v 0 -120 -45.333331 c 0,-8.835999 -7.164,-15.999999 -16,-15.999999 v 0 z"
       style="display:inline;fill:url(#linearGradient12)"
       id="path13"
       inkscape:label="front" />
    <path
       d="M 304.11722,274.66666 H 37.450563 c -8.837334,0 -16,-7.16266 -16,-15.99999 v 0 V 264 c 0,8.836 7.162666,16 16,16 v 0 H 304.11722 c 8.836,0 16,-7.164 16,-16 v 0 -5.33333 c 0,8.83733 -7.164,15.99999 -16,15.99999"
       style="display:inline;fill:url(#linearGradient14)"
       id="path14"
       inkscape:label="bottom" />
    <path
       d="m 154.06256,82.66667 -13.164,9.869333 c -5.308,3.98 -11.76267,6.130666 -18.396,6.130666 v 0 h -7.71867 -77.333327 c -8.837334,0 -16,7.162671 -16,16.000001 v 0 V 120 c 0,-8.836 7.162666,-16 16,-16 v 0 h 77.333327 7.71867 c 6.63333,0 13.088,-2.15066 18.396,-6.129331 v 0 l 13.164,-9.870666 h 150.05466 c 8.836,0 16,7.162666 16,15.999997 v 0 -5.333331 c 0,-8.835999 -7.164,-15.999999 -16,-15.999999 v 0 z"
       style="display:inline;fill:url(#linearGradient16)"
       id="path15"
       inkscape:label="top" />
  </g>
  <g
     id="g23"
     inkscape:label="icon">
    <path
       id="path23"
       style="display:inline;opacity:0.3;mix-blend-mode:normal;fill:#000000;fill-opacity:1;stroke-width:0.739556;stroke-linecap:round;stroke-linejoin:round;paint-order:stroke markers fill;filter:url(#filter23)"
       d="m 139.86719,128.17261 c -6.66695,0 -17.7344,3.49189 -22.13477,5.05664 -4.7999,1.68525 -6.53254,4.69283 -6.66601,4.93359 -0.13334,0.1205 -0.13228,0.36298 -0.26563,0.60352 L 110,141.53394 l 5.86719,-2.56446 c 18.50755,-6.81036 23.86676,-3.24993 24.40039,-2.88867 0.40117,0.48142 3.56778,3.48039 8.5332,9.56446 4.50476,5.05511 7.99917,7.64257 9.06641,7.64257 h 23.22656 c 1.20099,0 4.57472,-2.22743 9.17383,-7.64257 4.63029,-5.51462 8.00049,-8.96254 8.40039,-9.56446 0.66611,-0.4813 3.82835,-4.49127 25.73242,3.49024 l 5.59961,1.84179 -0.80078,-2.64648 c 0,-0.24077 -0.1319,-0.36298 -0.26563,-0.60352 -0.13371,-0.24076 -1.86711,-3.24834 -6.66601,-4.93359 -4.40022,-1.56487 -15.46881,-5.05664 -22.13477,-5.05664 -2.26698,0 -4.13301,0.36078 -5.33398,1.20312 -0.93354,0.36127 -4.93221,3.61133 -8.79883,3.61133 h -32 c -3.73289,0 -7.86724,-3.12991 -8.80078,-3.61133 -1.33218,-0.84268 -3.06504,-1.20312 -5.33203,-1.20312 z m 65.6914,10.82031 c -3.87171,0.0769 -4.89888,1.4096 -5.25586,1.69531 -0.42863,0.71462 -4.68314,4.8083 -9.00195,11.35547 -5.57361,5.71559 -8.28891,5.36524 -9.57617,5.36524 h -25.15235 c -1.14393,0 -3.85787,0.49368 -9.71679,-5.36524 -5.32211,-7.22325 -8.71845,-10.78391 -9.14844,-11.35547 -0.57196,-0.4289 -6.31531,-4.65583 -26.15234,3.42969 l -6.13282,2.9707 -0.0508,0.0723 -2,1.14258 c -0.57142,0.28666 -0.99917,0.7171 -1.28515,1.28906 -0.71449,1.57121 -18.580159,37.72644 -22.86719,70.88281 -1.572024,12.43314 0.142537,21.58054 5.287109,27.43946 5.002055,5.57361 11.577151,6.42968 14.292969,6.42968 h 2.142582 c 3.71574,0 9.00399,-2.85743 26.43945,-21.57812 1.71495,-1.85787 3.00197,-2.85953 3.85937,-3.7168 2.57222,-2.57316 7.85908,-3.42969 11.7168,-3.42969 h 54.59375 c 3.85907,0 9.28831,0.85653 11.7168,3.42969 0.85862,0.85727 2.14483,1.85893 3.85937,3.7168 17.43479,18.72069 22.72371,21.57813 26.43946,21.57812 h 2.14453 c 2.57181,0 9.28606,-0.71274 14.28906,-6.42968 4.85832,-5.85892 6.57317,-15.151 5.00195,-27.43946 -4.2877,-33.15637 -22.15129,-69.31024 -22.86523,-70.88281 -0.28666,-0.57196 -0.85772,-1.14438 -1.42969,-1.42969 l -2.71484,-1.14453 -0.17188,-0.24609 0.0664,0.24805 -6,-2.1875 c -11.7388,-4.73798 -18.45641,-5.91676 -22.32813,-5.83985 z m 8.14063,18.03125 c 2.71514,0 5.00195,2.2868 5.00195,5.00195 0,2.71514 -2.28681,5 -5.00195,5 -2.71514,0 -5,-2.28486 -5,-5 0,-2.71515 2.28486,-5.00195 5,-5.00195 z m -89.32031,5.71485 c 5.57361,0 10.0039,4.43029 10.0039,10.0039 0,5.57226 -4.43029,10.00391 -10.0039,10.00391 -5.57348,0 -10.00391,-4.43165 -10.00391,-10.00391 0,-5.43163 4.43043,-10.0039 10.00391,-10.0039 z m 77.88867,5.71679 c 2.71514,0 5.00195,2.28681 5.00195,5.00196 0,2.71514 -2.28681,5.00195 -5.00195,5.00195 -2.7165,0 -5.00391,-2.28681 -5.00391,-5.00195 0,-2.71515 2.28741,-5.00196 5.00391,-5.00196 z m 22.86523,0 c 2.71514,0 5.00195,2.28681 5.00195,5.00196 0,2.71514 -2.28681,5.00195 -5.00195,5.00195 -2.71514,0 -5.00195,-2.28681 -5.00195,-5.00195 0,-2.71515 2.28681,-5.00196 5.00195,-5.00196 z m -11.4414,11.41406 c 2.71514,0 5.00195,2.28681 5.00195,5.00196 0,2.71514 -2.28681,5.00195 -5.00195,5.00195 -2.7165,0 -5.00391,-2.28681 -5.00391,-5.00195 0,-2.71515 2.28741,-5.00196 5.00391,-5.00196 z m -65.72071,6.86719 h 4.50586 c 0.622,0 1.12695,0.50496 1.12695,1.12696 v 6.4375 c 0,0.62334 0.503,1.12695 1.125,1.12695 h 6.43946 c 0.62199,0 1.125,0.50496 1.125,1.12695 v 4.50586 c 0,0.622 -0.50301,1.12695 -1.125,1.12695 h -6.43946 c -0.622,0 -1.125,0.50496 -1.125,1.12696 v 6.4375 c 0,0.62199 -0.50495,1.12695 -1.12695,1.12695 h -4.50586 c -0.62199,0 -1.12695,-0.50496 -1.12695,-1.12695 v -6.4375 c 0,-0.622 -0.50361,-1.12696 -1.12695,-1.12696 h -6.43946 c -0.62199,0 -1.125,-0.50495 -1.125,-1.12695 v -4.50586 c 0,-0.62199 0.50301,-1.12695 1.125,-1.12695 h 6.43946 c 0.62334,0 1.12695,-0.50361 1.12695,-1.12695 v -6.4375 c 0,-0.622 0.50496,-1.12696 1.12695,-1.12696 z m 39.28906,1.72656 c 5.57361,0 10.00391,4.4303 10.00391,10.00391 0,5.57362 -4.4303,10.00391 -10.00391,10.00391 -5.57362,0 -10.0039,-4.43029 -10.0039,-10.00391 0,-5.43028 4.43028,-10.00391 10.0039,-10.00391 z"
       inkscape:label="shadow" />
    <path
       id="path12"
       style="display:inline;fill:#ffffff;stroke-width:0.739556;stroke-linecap:round;stroke-linejoin:round;paint-order:stroke markers fill"
       d="M 139.86719 124 C 133.20024 124 122.13279 127.49189 117.73242 129.05664 C 112.93252 130.74189 111.19988 133.74947 111.06641 133.99023 C 110.93307 134.11073 110.93413 134.35321 110.80078 134.59375 L 110 137.36133 L 115.86719 134.79687 C 134.37474 127.98651 139.73395 131.54694 140.26758 131.9082 C 140.66875 132.38962 143.83536 135.38859 148.80078 141.47266 C 153.30554 146.52777 156.79995 149.11523 157.86719 149.11523 L 181.09375 149.11523 C 182.29474 149.11523 185.66847 146.8878 190.26758 141.47266 C 194.89787 135.95804 198.26807 132.51012 198.66797 131.9082 C 199.33408 131.4269 202.49632 127.41693 224.40039 135.39844 L 230 137.24023 L 229.19922 134.59375 C 229.19922 134.35298 229.06732 134.23077 228.93359 133.99023 C 228.79988 133.74947 227.06648 130.74189 222.26758 129.05664 C 217.86736 127.49177 206.79877 124 200.13281 124 C 197.86583 124 195.9998 124.36078 194.79883 125.20312 C 193.86529 125.56439 189.86662 128.81445 186 128.81445 L 154 128.81445 C 150.26711 128.81445 146.13276 125.68454 145.19922 125.20312 C 143.86704 124.36044 142.13418 124 139.86719 124 z M 205.55859 134.82031 C 201.68688 134.89721 200.65971 136.22991 200.30273 136.51562 C 199.8741 137.23024 195.61959 141.32392 191.30078 147.87109 C 185.72717 153.58668 183.01187 153.23633 181.72461 153.23633 L 156.57226 153.23633 C 155.42833 153.23633 152.71439 153.73001 146.85547 147.87109 C 141.53336 140.64784 138.13702 137.08718 137.70703 136.51562 C 137.13507 136.08672 131.39172 131.85979 111.55469 139.94531 L 105.42187 142.91601 L 105.37109 142.98828 L 103.37109 144.13086 C 102.79967 144.41752 102.37192 144.84796 102.08594 145.41992 C 101.37145 146.99113 83.505781 183.14636 79.21875 216.30273 C 77.646726 228.73587 79.361287 237.88327 84.505859 243.74219 C 89.507914 249.3158 96.08301 250.17187 98.798828 250.17187 L 100.94141 250.17187 C 104.65715 250.17187 109.9454 247.31444 127.38086 228.59375 C 129.09581 226.73588 130.38283 225.73422 131.24023 224.87695 C 133.81245 222.30379 139.09931 221.44726 142.95703 221.44726 L 197.55078 221.44726 C 201.40985 221.44726 206.83909 222.30379 209.26758 224.87695 C 210.1262 225.73422 211.41241 226.73588 213.12695 228.59375 C 230.56174 247.31444 235.85066 250.17188 239.56641 250.17187 L 241.71094 250.17187 C 244.28275 250.17187 250.997 249.45913 256 243.74219 C 260.85832 237.88327 262.57317 228.59119 261.00195 216.30273 C 256.71425 183.14636 238.85066 146.99249 238.13672 145.41992 C 237.85006 144.84796 237.279 144.27554 236.70703 143.99023 L 233.99219 142.8457 L 233.82031 142.59961 L 233.88672 142.84766 L 227.88672 140.66016 C 216.14792 135.92218 209.43031 134.7434 205.55859 134.82031 z M 213.69922 152.85156 C 216.41436 152.85156 218.70117 155.13836 218.70117 157.85351 C 218.70117 160.56865 216.41436 162.85351 213.69922 162.85351 C 210.98408 162.85351 208.69922 160.56865 208.69922 157.85351 C 208.69922 155.13836 210.98408 152.85156 213.69922 152.85156 z M 124.37891 158.56641 C 129.95252 158.56641 134.38281 162.9967 134.38281 168.57031 C 134.38281 174.14257 129.95252 178.57422 124.37891 178.57422 C 118.80543 178.57422 114.375 174.14257 114.375 168.57031 C 114.375 163.13868 118.80543 158.56641 124.37891 158.56641 z M 202.26758 164.2832 C 204.98272 164.2832 207.26953 166.57001 207.26953 169.28516 C 207.26953 172.0003 204.98272 174.28711 202.26758 174.28711 C 199.55108 174.28711 197.26367 172.0003 197.26367 169.28516 C 197.26367 166.57001 199.55108 164.2832 202.26758 164.2832 z M 225.13281 164.2832 C 227.84795 164.2832 230.13476 166.57001 230.13476 169.28516 C 230.13476 172.0003 227.84795 174.28711 225.13281 174.28711 C 222.41767 174.28711 220.13086 172.0003 220.13086 169.28516 C 220.13086 166.57001 222.41767 164.2832 225.13281 164.2832 z M 213.69141 175.69726 C 216.40655 175.69726 218.69336 177.98407 218.69336 180.69922 C 218.69336 183.41436 216.40655 185.70117 213.69141 185.70117 C 210.97491 185.70117 208.6875 183.41436 208.6875 180.69922 C 208.6875 177.98407 210.97491 175.69726 213.69141 175.69726 z M 147.9707 182.56445 L 152.47656 182.56445 C 153.09856 182.56445 153.60351 183.06941 153.60351 183.69141 L 153.60351 190.12891 C 153.60351 190.75225 154.10651 191.25586 154.72851 191.25586 L 161.16797 191.25586 C 161.78996 191.25586 162.29297 191.76082 162.29297 192.38281 L 162.29297 196.88867 C 162.29297 197.51067 161.78996 198.01562 161.16797 198.01562 L 154.72851 198.01562 C 154.10651 198.01562 153.60351 198.52058 153.60351 199.14258 L 153.60351 205.58008 C 153.60351 206.20207 153.09856 206.70703 152.47656 206.70703 L 147.9707 206.70703 C 147.34871 206.70703 146.84375 206.20207 146.84375 205.58008 L 146.84375 199.14258 C 146.84375 198.52058 146.34014 198.01562 145.7168 198.01562 L 139.27734 198.01562 C 138.65535 198.01562 138.15234 197.51067 138.15234 196.88867 L 138.15234 192.38281 C 138.15234 191.76082 138.65535 191.25586 139.27734 191.25586 L 145.7168 191.25586 C 146.34014 191.25586 146.84375 190.75225 146.84375 190.12891 L 146.84375 183.69141 C 146.84375 183.06941 147.34871 182.56445 147.9707 182.56445 z M 187.25976 184.29101 C 192.83337 184.29101 197.26367 188.72131 197.26367 194.29492 C 197.26367 199.86854 192.83337 204.29883 187.25976 204.29883 C 181.68614 204.29883 177.25586 199.86854 177.25586 194.29492 C 177.25586 188.86464 181.68614 184.29101 187.25976 184.29101 z "
       inkscape:label="body" />
  </g>
</svg>
