<?xml version="1.0" encoding="UTF-8" standalone="no"?>
<svg
   viewBox="0 0 341.33334 341.33334"
   version="1.1"
   id="svg15"
   sodipodi:docname="folder-debian-big.svg"
   inkscape:version="1.4.2 (f4327f4, 2025-05-13)"
   xmlns:inkscape="http://www.inkscape.org/namespaces/inkscape"
   xmlns:sodipodi="http://sodipodi.sourceforge.net/DTD/sodipodi-0.dtd"
   xmlns:xlink="http://www.w3.org/1999/xlink"
   xmlns="http://www.w3.org/2000/svg"
   xmlns:svg="http://www.w3.org/2000/svg">
  <sodipodi:namedview
     id="namedview15"
     pagecolor="#ffffff"
     bordercolor="#000000"
     borderopacity="0.25"
     inkscape:showpageshadow="2"
     inkscape:pageopacity="0.0"
     inkscape:pagecheckerboard="0"
     inkscape:deskcolor="#d1d1d1"
     inkscape:zoom="2.3642577"
     inkscape:cx="170.87816"
     inkscape:cy="170.66667"
     inkscape:window-width="1920"
     inkscape:window-height="1009"
     inkscape:window-x="-8"
     inkscape:window-y="-8"
     inkscape:window-maximized="1"
     inkscape:current-layer="svg15" />
  <defs
     id="defs10">
    <linearGradient
       id="linearGradient1">
      <stop
         style="stop-color:#8a003f;stop-opacity:1;"
         offset="0"
         id="stop1" />
      <stop
         style="stop-color:#a80030;stop-opacity:1;"
         offset="1"
         id="stop2" />
    </linearGradient>
    <linearGradient
       x1="0.78923047"
       y1="-0.13212466"
       x2="0.21087478"
       y2="0.078379586"
       gradientUnits="userSpaceOnUse"
       gradientTransform="matrix(223.99998,-147.99998,147.99998,223.99998,16.999996,194)"
       spreadMethod="pad"
       id="linearGradient85">
      <stop
         style="stop-color:#ffcb3a;stop-opacity:1;"
         offset="0"
         id="stop3" />
      <stop
         style="stop-color:#ffe69e;stop-opacity:1;"
         offset="1"
         id="stop4" />
    </linearGradient>
    <linearGradient
       x1="0.87531334"
       y1="-0.082107842"
       x2="0.30785841"
       y2="0.20139237"
       gradientUnits="userSpaceOnUse"
       gradientTransform="matrix(298.66663,197.3333,197.3333,-298.66663,21.450558,82.66667)"
       spreadMethod="pad"
       id="linearGradient12"
       xlink:href="#linearGradient85">
      <stop
         style="stop-color:#e50041;stop-opacity:1;"
         offset="0"
         id="stop5" />
      <stop
         style="stop-color:#ff6692;stop-opacity:1;"
         offset="1"
         id="stop6" />
    </linearGradient>
    <linearGradient
       x1="0"
       y1="0"
       x2="1"
       y2="0"
       gradientUnits="userSpaceOnUse"
       gradientTransform="matrix(298.68998,3.3336072,3.3336072,-298.68998,21.351119,267.57677)"
       spreadMethod="pad"
       id="linearGradient14">
      <stop
         style="stop-color:#ff0057;stop-opacity:1;"
         offset="0"
         id="stop7" />
      <stop
         style="stop-color:#cc0033;stop-opacity:1;"
         offset="1"
         id="stop8" />
    </linearGradient>
    <linearGradient
       x1="0"
       y1="0"
       x2="1"
       y2="0"
       gradientUnits="userSpaceOnUse"
       gradientTransform="matrix(298.66666,0,0,-298.66666,21.450563,101.33334)"
       spreadMethod="pad"
       id="linearGradient16">
      <stop
         style="stop-color:#ff99b6;stop-opacity:1;"
         offset="0"
         id="stop9" />
      <stop
         style="stop-color:#ff6690;stop-opacity:1;"
         offset="1"
         id="stop10" />
    </linearGradient>
    <filter
       style="color-interpolation-filters:sRGB;"
       id="filter123"
       x="-0.064285714"
       y="-0.097297297"
       width="1.1285714"
       height="1.2013514">
      <feFlood
         result="flood"
         in="SourceGraphic"
         flood-opacity="1.000000"
         flood-color="#ad7900"
         id="feFlood122" />
      <feGaussianBlur
         result="blur"
         in="SourceGraphic"
         stdDeviation="6.000000"
         id="feGaussianBlur122" />
      <feOffset
         result="offset"
         in="blur"
         dx="0.000000"
         dy="1.000000"
         id="feOffset122" />
      <feComposite
         result="comp1"
         operator="in"
         in="flood"
         in2="offset"
         id="feComposite122" />
      <feComposite
         result="comp2"
         operator="over"
         in="SourceGraphic"
         in2="comp1"
         id="feComposite123" />
    </filter>
    <mask
       maskUnits="userSpaceOnUse"
       id="shadow-mask">
      <path
         d="m 116.459,194 -9.873,-7.402 C 102.605,183.613 97.764002,182 92.788997,182 v 0 H 87.000002 29 c -6.628,0 -12,-5.372 -12,-12 v 0 -22 -90.000001 c 0,-6.627 5.372,-12 12,-12 v 0 h 200 c 6.627,0 12,5.373 12,12 v 0 V 148 182 c 0,6.627 -5.373,12 -12,12 v 0 z m -12.034,19.6216 c -4.369,5.305 -10.881,8.378 -17.754,8.378 H 29 c -6.627,0 -12,-5.372 -12,-12 v -12.137 -10.063 -91.799995 c 0,-6.627 5.373,-12 12,-12 h 200 c 6.627,0 12,5.373 12,12 V 185.8626 c 0,6.628 -5.373,12 -12,12 H 117.404 Z"
         fill="#efb122"
         id="path10" />
    </mask>
    <linearGradient
       xlink:href="#linearGradient1"
       id="linearGradient2"
       x1="180.11719"
       y1="45.462238"
       x2="78.204208"
       y2="221.9807"
       gradientUnits="userSpaceOnUse"
       gradientTransform="matrix(1.3333333,0,0,-1.3333333,-1.2161031,341.33333)" />
    <filter
       style="color-interpolation-filters:sRGB;"
       inkscape:label="Blur"
       id="filter41"
       x="-8.0466241e-05"
       y="-0.2226813"
       width="1.0001609"
       height="1.4453626">
      <feGaussianBlur
         stdDeviation="0.01 10"
         result="blur"
         id="feGaussianBlur41" />
    </filter>
  </defs>
  <path
     style="display:inline;fill:url(#linearGradient2)"
     d="m 154.06256,82.66667 -13.164,9.869333 c -5.308,3.98 -11.76267,6.130666 -18.396,6.130666 v 0 h -7.71867 -77.333327 c -8.837334,0 -16,7.162671 -16,16.000001 v 0 V 144 264 c 0,8.836 7.162666,16 16,16 v 0 H 304.11722 c 8.836,0 16,-7.164 16,-16 v 0 -120 -45.333331 c 0,-8.835999 -7.164,-15.999999 -16,-15.999999 v 0 z M 138.01722,56.504537 c -5.82533,-7.073333 -14.508,-11.170666 -23.672,-11.170666 H 37.450563 c -8.836,0 -16,7.162666 -16,15.999999 V 77.516537 90.93387 213.33386 c 0,8.836 7.164,16 16,16 H 304.11722 c 8.836,0 16,-7.164 16,-16 V 93.516536 c 0,-8.837333 -7.164,-15.999999 -16,-15.999999 H 155.32256 Z"
     id="path11"
     inkscape:label="back" />
  <path
     d="M 319.73572,103 H 34.046266 C 26.857241,104.56025 21.474,110.9586 21.474,118.61524 v 29.29297 62.86914 h 298.26172 v -62.86914 z"
     style="display:inline;fill:#520017;filter:url(#filter41);fill-opacity:1"
     id="path42"
     inkscape:label="shadow" />
  <path
     d="m 154.06256,82.66667 -13.164,9.869333 c -5.308,3.98 -11.76267,6.130666 -18.396,6.130666 v 0 h -7.71867 -77.333327 c -8.837334,0 -16,7.162671 -16,16.000001 v 0 V 144 264 c 0,8.836 7.162666,16 16,16 v 0 H 304.11722 c 8.836,0 16,-7.164 16,-16 v 0 -120 -45.333331 c 0,-8.835999 -7.164,-15.999999 -16,-15.999999 v 0 z"
     style="display:inline;fill:url(#linearGradient12)"
     id="path13"
     inkscape:label="front" />
  <path
     d="M 304.11722,274.66666 H 37.450563 c -8.837334,0 -16,-7.16266 -16,-15.99999 v 0 V 264 c 0,8.836 7.162666,16 16,16 v 0 H 304.11722 c 8.836,0 16,-7.164 16,-16 v 0 -5.33333 c 0,8.83733 -7.164,15.99999 -16,15.99999"
     style="display:inline;fill:url(#linearGradient14)"
     id="path14"
     inkscape:label="bottom" />
  <path
     d="m 154.06256,82.66667 -13.164,9.869333 c -5.308,3.98 -11.76267,6.130666 -18.396,6.130666 v 0 h -7.71867 -77.333327 c -8.837334,0 -16,7.162671 -16,16.000001 v 0 V 120 c 0,-8.836 7.162666,-16 16,-16 v 0 h 77.333327 7.71867 c 6.63333,0 13.088,-2.15066 18.396,-6.129331 v 0 l 13.164,-9.870666 h 150.05466 c 8.836,0 16,7.162666 16,15.999997 v 0 -5.333331 c 0,-8.835999 -7.164,-15.999999 -16,-15.999999 v 0 z"
     style="display:inline;fill:url(#linearGradient16)"
     id="path15"
     inkscape:label="top" />
  <path
     id="path5"
     d="m 179.29686,112 c -0.69518,0.0584 -1.38748,0.10892 -2.07915,0.15993 -1.59242,0.11755 -3.17546,0.23688 -4.74699,0.43897 l 0.99364,0.13277 c 0.93733,-0.3434 2.11644,-0.40199 3.28377,-0.46279 0.8955,-0.0468 1.78388,-0.0949 2.54873,-0.26883 z m -10.0146,1.05489 c -1.41473,0.0858 -3.04036,0.41717 -4.42372,0.70098 -2.25795,0.46378 -3.87014,0.7966 -2.87879,-0.29945 -1.13422,0.50631 -2.43425,1.04946 -3.83503,1.63677 -6.11359,2.56356 -14.18323,5.94852 -19.11381,10.57265 l -0.19055,-1.27605 c -0.90076,1.08021 -2.49207,2.51166 -4.25697,4.09364 -3.6727,3.29635 -8.09384,7.26478 -8.59562,10.18133 l -0.74182,0.17353 c -0.97044,1.6412 -1.71158,3.42964 -2.43985,5.18934 -0.35716,0.86416 -0.71083,1.71941 -1.08891,2.54873 -1.55757,2.65345 -2.43084,1.77715 -2.53851,1.66739 -0.004,-0.004 -0.005,-0.008 -0.006,-0.0104 h -0.004 c 9.3e-4,9.2e-4 0.004,0.0104 0.0104,0.0203 0.008,0.0139 0.0216,0.0385 0.0375,0.0681 -3.49027,7.07707 -5.33105,13.09251 -6.86355,18.09977 -0.0996,0.3258 -0.19867,0.6459 -0.29606,0.96299 0.65805,0.98265 0.56225,4.2573 0.44919,8.16347 -0.0822,2.84162 -0.17424,6.0169 0.007,8.89163 -1.86737,33.71448 23.66102,66.44904 51.5668,74.00523 3.56815,1.27534 8.6511,1.3977 13.32558,1.50745 h 0.004 c 0.68297,0.0157 1.35759,0.0287 2.0179,0.0477 -2.77019,-0.79099 -4.44672,-1.05424 -6.00603,-1.29989 -1.87642,-0.29446 -3.58535,-0.56557 -6.83293,-1.69804 -2.86775,-1.35025 -4.23878,-2.82722 -5.7406,-4.4475 -0.74395,-0.8032 -1.52304,-1.64011 -2.52834,-2.51472 l 1.20462,2.12337 c -3.07334,-1.08717 -3.89928,-1.74704 -4.64148,-2.34116 -0.69864,-0.55751 -1.32652,-1.05957 -3.67509,-1.80352 l 1.28627,-1.67418 c -1.93043,-0.14635 -5.11448,-3.25361 -5.9856,-4.97497 l -2.11317,0.0818 c -2.53848,-3.13257 -3.8901,-5.38996 -3.79079,-7.13919 l -0.68395,1.21823 c -0.17425,-0.29793 -0.74353,-1.05766 -1.47003,-2.02809 -2.50015,-3.33993 -6.8694,-9.17222 -3.4267,-7.29233 -0.19338,-0.17597 -0.39978,-0.33967 -0.61932,-0.51041 -0.72303,-0.55927 -1.57793,-1.22533 -2.49088,-2.88221 l 0.90176,-1.03107 c -2.13776,-2.75104 -3.93522,-6.28137 -3.79759,-7.45564 1.14118,1.54187 1.93321,1.82967 2.71548,2.09275 -2.71967,-6.74778 -4.14899,-6.88618 -5.41734,-7.00989 -1.25095,-0.12024 -2.34633,-0.22595 -4.37607,-6.62876 l 0.86435,-0.0681 c -0.45301,-0.68121 -0.78165,-1.40367 -1.11617,-2.13019 -0.15504,-0.33974 -0.31419,-0.6811 -0.48319,-1.02083 l 0.37772,-3.75337 c -3.05819,-3.53504 -1.97845,-13.33041 -1.10593,-21.25421 0.23695,-2.15169 0.46001,-4.16582 0.57848,-5.87672 0.22475,-1.87643 1.26362,-3.82246 2.52152,-6.17278 0.92688,-1.73529 1.97417,-3.68725 2.89583,-5.99921 l -1.32372,-0.23141 c 2.5315,-4.41314 14.44682,-17.72277 19.96452,-17.03807 0.78397,-0.98482 1.06226,-1.39729 1.0515,-1.50406 v -0.004 -0.004 l -0.004,-0.004 v -0.004 l -0.004,-0.004 -0.004,-0.004 h -0.004 l -0.004,-0.004 h -0.004 -0.004 c -0.0712,-0.0124 -0.2754,0.10926 -0.53085,0.26201 -0.54011,0.32407 -1.31309,0.78643 -1.54829,0.40835 4.32603,-4.47761 6.46499,-4.68864 8.87803,-4.92734 0.86068,-0.0836 1.76035,-0.17195 2.80395,-0.45938 0.89893,-0.53362 1.25799,-0.8036 1.28287,-0.90854 2.5e-4,-9.3e-4 -1e-5,-0.008 0,-0.0104 -2.1e-4,-9.3e-4 -0.004,-0.008 -0.004,-0.0105 l -0.004,-0.004 v -0.004 l -0.004,-0.004 c -9.2e-4,-9.2e-4 -0.008,-0.005 -0.0104,-0.006 -9.2e-4,-9.1e-4 -0.008,-0.005 -0.0104,-0.007 -0.13016,-0.0446 -0.641,0.0939 -1.21822,0.24839 -1.20042,0.32058 -2.69509,0.71722 -1.67761,-0.26541 3.13085,-0.79969 4.54913,-1.68864 5.87673,-2.52493 1.80498,-1.13594 3.44621,-2.16997 9.00054,-2.72228 0.57843,0.32755 -0.26439,0.57346 -1.25226,0.86093 -0.75265,0.21778 -1.59077,0.46024 -1.95665,0.78605 6.15542,-3.01237 19.48098,-2.32768 28.1348,1.67081 10.04412,4.69365 21.32883,18.56628 21.77484,31.6193 l 0.50361,0.13607 c -0.0783,1.60811 -0.03,3.29776 0.0174,5.02261 0.10639,3.84169 0.2149,7.87525 -1.04127,11.6786 l 1.24885,-2.60661 c 0.11147,3.01412 -0.61593,4.84685 -1.48705,7.04733 -0.27702,0.69691 -0.56847,1.43216 -0.85071,2.24928 l -2.11658,1.05828 c -0.93209,1.81021 -0.81772,2.29263 -0.70098,2.76653 0.0993,0.40942 0.20064,0.81143 -0.37432,2.05192 -0.36413,0.32405 -0.78057,0.69996 -1.23182,1.10592 -2.89391,2.6012 -7.22253,6.49163 -8.74875,6.89759 -0.86416,-0.019 -0.173,-0.70007 0.45941,-1.32032 0.30836,-0.30314 0.60182,-0.59099 0.69417,-0.78264 -1.22134,0.83976 -1.95183,1.53558 -2.59298,2.15059 -1.26139,1.20912 -2.18528,2.09306 -5.85971,3.09661 l -0.15993,-0.36071 c -13.67501,6.43067 -32.66986,-6.31644 -32.41898,-23.70768 -0.0993,0.74918 -0.25427,0.86454 -0.43896,1.00044 -0.087,0.0628 -0.17808,0.13276 -0.27562,0.27566 -0.70564,-8.94825 4.13208,-17.93893 12.29109,-21.60813 7.98129,-3.95144 17.33622,-2.32652 23.05431,3.00131 -3.1413,-4.11347 -9.39177,-8.47585 -16.79987,-8.06816 -7.25826,0.11493 -14.04318,4.72665 -16.30986,9.73217 -2.2632,1.42516 -3.31006,4.46198 -4.14808,6.89417 -0.53662,1.56107 -0.98732,2.87443 -1.61976,3.35182 -2.17957,16.01834 4.09992,22.93839 14.72073,31.07823 0.84326,0.56799 0.95436,0.89323 0.88816,1.1842 l 0.006,-0.006 c 12.53209,4.68319 25.47655,3.54702 36.31864,-5.14513 1.26139,-0.98264 2.57648,-2.27908 3.71592,-3.40285 1.35025,-1.33282 2.45431,-2.42217 2.92644,-2.45005 -0.68991,1.03665 -0.59103,1.24544 -0.48999,1.46323 0.0907,0.19687 0.18473,0.40259 -0.29265,1.22842 1.25269,-2.02101 1.11425,-2.57651 0.97661,-3.13403 -0.16552,-0.66553 -0.33221,-1.33927 1.86477,-4.52238 l 1.49044,2.05191 c -0.25263,-1.67432 0.67001,-3.51293 1.70143,-5.56707 1.23702,-2.45832 2.63022,-5.22731 2.34796,-8.39822 1.17428,-1.78059 1.31045,1.91511 0.0613,6.00943 1.0889,-2.85556 0.99117,-4.2056 0.87793,-5.74401 -0.068,-0.90947 -0.13834,-1.88488 0.0272,-3.27695 0.13241,0.3467 0.2756,0.70111 0.42195,1.05828 0.36761,0.90075 0.74132,1.82612 0.98003,2.74952 -0.75789,-3.09948 0.18372,-5.50386 0.9834,-7.54752 0.31709,-0.80843 0.61052,-1.56045 0.76907,-2.27652 -0.13242,-0.0575 -0.29522,0.0185 -0.47641,0.1021 -0.58539,0.2718 -1.32736,0.61865 -1.53469,-3.345 0.0262,-1.51054 0.2988,-1.52414 0.54444,-1.53809 0.12025,-0.006 0.23475,-0.014 0.30966,-0.19737 -0.4425,-0.25439 -1.60149,-1.97938 -2.30711,-5.29143 0.28225,-0.43033 0.66926,0.23373 1.0787,0.93238 0.32929,0.56274 0.67331,1.14895 0.98342,1.20121 -0.17423,-1.02619 -0.3949,-1.95655 -0.60571,-2.83117 -0.32754,-1.36767 -0.62223,-2.59469 -0.64313,-3.82821 -1.10286,-2.30676 -1.22177,-1.94297 -1.36115,-1.51087 -0.11852,0.36587 -0.25283,0.78107 -1.00724,-0.31307 -1.27358,-3.97061 -0.42931,-3.81368 0.53765,-3.63423 0.67774,0.12544 1.41472,0.2627 1.52447,-1.00044 3.02458,4.38179 4.85093,10.98477 5.78827,14.38044 0.0801,0.28747 0.15506,0.55251 0.22118,0.78947 -0.6551,-3.71973 -1.71196,-7.32286 -3.00472,-10.81087 0.39723,0.16727 0.22178,-1.02286 0.0512,-2.17101 -0.25438,-1.72135 -0.49848,-3.34538 1.24204,-0.13607 -3.096,-11.39787 -13.25792,-22.04924 -22.60515,-27.04587 l 0.034,0.0307 c 1.13769,1.04117 2.54886,2.33127 2.0349,2.53512 -3.71972,-2.21493 -3.93903,-2.79624 -4.21954,-3.53898 -0.0714,-0.18537 -0.14322,-0.38244 -0.27563,-0.61589 -2.39909,-0.97601 -3.38033,-0.6646 -4.41349,-0.33689 -0.59759,0.18957 -1.21201,0.38472 -2.1302,0.34028 -4.77379,-2.53219 -6.97262,-3.19126 -9.86826,-4.0596 -1.43387,-0.42981 -3.04049,-0.90886 -5.21657,-1.69461 l 0.29944,1.39516 c -2.62733,-0.87477 -4.03547,-0.59366 -5.64531,-0.27222 -1.28753,0.25734 -2.69967,0.54227 -4.97159,0.27902 -0.31186,-0.24321 1.63491,-0.87979 3.23953,-1.11272 -2.12033,0.2798 -3.21252,0.10556 -4.21954,-0.0544 -1.16384,-0.18504 -2.21177,-0.35081 -4.61086,0.22117 0.74744,-0.52321 1.51963,-0.92718 2.30714,-1.3373 0.37632,-0.19618 0.75673,-0.39282 1.13654,-0.60572 z m 3.0966,91.98588 c -0.0419,0.0384 -0.0564,0.0887 -0.0477,0.15314 0.0191,-0.0523 0.0355,-0.10083 0.0477,-0.15314 z m -0.0477,0.15314 c -0.0139,0.0348 -0.0286,0.0722 -0.0443,0.10892 -0.0854,0.20035 -0.17709,0.41502 -0.0986,0.7112 -3.52981,-1.6534 -6.76214,-4.14967 -9.41908,-7.20384 1.41121,2.06458 2.93309,4.07034 4.90009,5.64534 -1.99313,-0.67424 -4.38814,-3.43207 -6.26805,-5.59768 -1.25617,-1.44957 -2.28475,-2.63288 -2.80394,-2.74612 5.73552,10.27063 23.26953,18.00943 32.45299,14.16948 -4.24937,0.15681 -9.64409,0.0873 -14.41788,-1.67759 -1.81369,-0.93386 -4.22107,-2.77201 -4.30121,-3.40968 z m 0.64656,-91.2849 c 0.22998,0.0413 0.46752,0.0802 0.70098,0.11914 1.09066,0.1826 2.09178,0.35126 1.91581,0.60913 0.52521,-0.11528 0.89988,-0.22837 0.9494,-0.33008 0.005,-0.0156 0.006,-0.0364 -0.004,-0.0511 -0.12579,-0.14949 -1.10391,-0.27722 -3.56279,-0.3471 z m 2.61679,0.72821 -0.92558,0.19056 0.86093,-0.0748 z m -60.3427,29.05015 c -9.2e-4,0.0819 0.004,0.15348 0.0174,0.21095 -0.005,-0.0697 -0.008,-0.14129 -0.0174,-0.21095 z m 0.0174,0.21095 c 0.15193,2.10809 -0.89883,3.39718 -0.92216,3.51516 v 0.004 c 0.026,0.0244 0.41318,-0.33478 1.57893,-1.15016 1.09047,-2.45484 0.59103,-2.33082 0.0408,-2.19143 -0.30054,0.0767 -0.61813,0.15749 -0.69759,-0.17697 z m -2.73588,11.02185 c -1.48162,1.89559 -1.37123,2.74887 -1.24543,3.71931 0.0545,0.41989 0.1118,0.86147 0.0443,1.41898 0.56502,-1.73354 0.79065,-2.95922 0.98682,-4.02897 0.0706,-0.38329 0.13694,-0.74868 0.21438,-1.10932 z m 87.39544,16.39493 c -0.30295,0.008 -0.69215,0.78078 -0.88815,1.62317 0.16899,0.0888 0.32647,0.54255 0.4798,0.98683 0.25786,0.74744 0.50225,1.46215 0.77926,0.3471 0.14809,-2.20832 -0.068,-2.96493 -0.37091,-2.9571 z m 26.81446,7.44205 v 0.0104 l 0.004,-0.0104 z m 0,0.0104 -0.3573,0.89495 c -0.66032,4.6919 -2.08744,9.33184 -4.27397,13.63522 2.41302,-4.53859 3.97618,-9.50025 4.63127,-14.53017 z m -28.4002,1.64355 c -0.28748,1.42869 -1.00537,2.68869 -1.73887,3.97796 -0.10106,0.17945 -0.20519,0.35478 -0.30624,0.53424 -3.10646,1.95482 -2.20049,0.47376 -1.16038,-1.22842 0.49481,-0.81016 1.01934,-1.66953 1.15698,-2.23228 -3.31901,4.17794 -2.47338,4.41468 -1.62317,4.65511 0.41293,0.11493 0.82828,0.23178 0.76904,0.79626 1.46176,-2.01404 2.52631,-4.22225 2.90264,-6.50287 z m -9.99758,9.47355 c -1.99488,0.48784 -4.02186,0.49949 -6.06727,0.31306 -2.45137,0.035 0.46433,1.26284 3.66485,1.75588 0.88509,-0.68992 1.6881,-1.38945 2.40242,-2.06894 z m -30.94553,0.31648 c 0.47738,1.76317 1.40083,3.30559 2.32074,4.84225 0.11853,0.19862 0.23883,0.39689 0.35731,0.59551 l -0.75543,-2.22547 c -0.74743,-0.82582 -1.2306,-1.80074 -1.71844,-2.79035 -0.068,-0.14112 -0.1345,-0.28082 -0.20418,-0.42194 z m -1.88859,3.36201 -0.34368,1.71844 c 0.43731,0.59237 0.84789,1.19896 1.25906,1.80351 1.10285,1.62204 2.1886,3.22048 3.68868,4.46796 -0.69341,-1.35549 -1.30478,-2.3366 -1.96683,-3.40286 -0.74919,-1.2039 -1.564,-2.51375 -2.63723,-4.58705 z"
     style="fill:#ffffff;fill-opacity:1;stroke-width:1.74226"
     inkscape:label="debian" />
</svg>
