<?xml version="1.0" encoding="UTF-8" standalone="no"?>
<svg
   viewBox="0 0 341.33334 341.33334"
   version="1.1"
   id="svg15"
   sodipodi:docname="folder-nuget-big.svg"
   inkscape:version="1.4.2 (f4327f4, 2025-05-13)"
   xmlns:inkscape="http://www.inkscape.org/namespaces/inkscape"
   xmlns:sodipodi="http://sodipodi.sourceforge.net/DTD/sodipodi-0.dtd"
   xmlns:xlink="http://www.w3.org/1999/xlink"
   xmlns="http://www.w3.org/2000/svg"
   xmlns:svg="http://www.w3.org/2000/svg">
  <sodipodi:namedview
     id="namedview15"
     pagecolor="#ffffff"
     bordercolor="#000000"
     borderopacity="0.25"
     inkscape:showpageshadow="2"
     inkscape:pageopacity="0.0"
     inkscape:pagecheckerboard="0"
     inkscape:deskcolor="#d1d1d1"
     inkscape:zoom="2.3642577"
     inkscape:cx="170.66667"
     inkscape:cy="170.66667"
     inkscape:window-width="1920"
     inkscape:window-height="1009"
     inkscape:window-x="-8"
     inkscape:window-y="-8"
     inkscape:window-maximized="1"
     inkscape:current-layer="svg15" />
  <defs
     id="defs10">
    <linearGradient
       id="linearGradient1">
      <stop
         style="stop-color:#104b8c;stop-opacity:1;"
         offset="0"
         id="stop1" />
      <stop
         style="stop-color:#0765b6;stop-opacity:1;"
         offset="1"
         id="stop2" />
    </linearGradient>
    <linearGradient
       x1="0.78923047"
       y1="-0.13212466"
       x2="0.21087478"
       y2="0.078379586"
       gradientUnits="userSpaceOnUse"
       gradientTransform="matrix(223.99998,-147.99998,147.99998,223.99998,16.999996,194)"
       spreadMethod="pad"
       id="linearGradient85">
      <stop
         style="stop-color:#ffcb3a;stop-opacity:1;"
         offset="0"
         id="stop3" />
      <stop
         style="stop-color:#ffe69e;stop-opacity:1;"
         offset="1"
         id="stop4" />
    </linearGradient>
    <linearGradient
       x1="0.87531334"
       y1="-0.082107842"
       x2="0.30785841"
       y2="0.20139237"
       gradientUnits="userSpaceOnUse"
       gradientTransform="matrix(298.66663,197.3333,197.3333,-298.66663,21.450558,82.66667)"
       spreadMethod="pad"
       id="linearGradient12"
       xlink:href="#linearGradient85">
      <stop
         style="stop-color:#0078d4;stop-opacity:1;"
         offset="0"
         id="stop5" />
      <stop
         style="stop-color:#3ccbf4;stop-opacity:1;"
         offset="1"
         id="stop6" />
    </linearGradient>
    <linearGradient
       x1="0"
       y1="0"
       x2="1"
       y2="0"
       gradientUnits="userSpaceOnUse"
       gradientTransform="matrix(298.68998,3.3336072,3.3336072,-298.68998,21.351119,267.57677)"
       spreadMethod="pad"
       id="linearGradient14">
      <stop
         style="stop-color:#0091ff;stop-opacity:1;"
         offset="0"
         id="stop7" />
      <stop
         style="stop-color:#0760ac;stop-opacity:1;"
         offset="1"
         id="stop8" />
    </linearGradient>
    <linearGradient
       x1="0"
       y1="0"
       x2="1"
       y2="0"
       gradientUnits="userSpaceOnUse"
       gradientTransform="matrix(298.66666,0,0,-298.66666,21.450563,101.33334)"
       spreadMethod="pad"
       id="linearGradient16">
      <stop
         style="stop-color:#9ecef0;stop-opacity:1;"
         offset="0"
         id="stop9" />
      <stop
         style="stop-color:#3ccaf4;stop-opacity:1;"
         offset="1"
         id="stop10" />
    </linearGradient>
    <filter
       style="color-interpolation-filters:sRGB;"
       id="filter123"
       x="-0.064285714"
       y="-0.097297297"
       width="1.1285714"
       height="1.2013514">
      <feFlood
         result="flood"
         in="SourceGraphic"
         flood-opacity="1.000000"
         flood-color="#ad7900"
         id="feFlood122" />
      <feGaussianBlur
         result="blur"
         in="SourceGraphic"
         stdDeviation="6.000000"
         id="feGaussianBlur122" />
      <feOffset
         result="offset"
         in="blur"
         dx="0.000000"
         dy="1.000000"
         id="feOffset122" />
      <feComposite
         result="comp1"
         operator="in"
         in="flood"
         in2="offset"
         id="feComposite122" />
      <feComposite
         result="comp2"
         operator="over"
         in="SourceGraphic"
         in2="comp1"
         id="feComposite123" />
    </filter>
    <mask
       maskUnits="userSpaceOnUse"
       id="shadow-mask">
      <path
         d="m 116.459,194 -9.873,-7.402 C 102.605,183.613 97.764002,182 92.788997,182 v 0 H 87.000002 29 c -6.628,0 -12,-5.372 -12,-12 v 0 -22 -90.000001 c 0,-6.627 5.372,-12 12,-12 v 0 h 200 c 6.627,0 12,5.373 12,12 v 0 V 148 182 c 0,6.627 -5.373,12 -12,12 v 0 z m -12.034,19.6216 c -4.369,5.305 -10.881,8.378 -17.754,8.378 H 29 c -6.627,0 -12,-5.372 -12,-12 v -12.137 -10.063 -91.799995 c 0,-6.627 5.373,-12 12,-12 h 200 c 6.627,0 12,5.373 12,12 V 185.8626 c 0,6.628 -5.373,12 -12,12 H 117.404 Z"
         fill="#efb122"
         id="path10" />
    </mask>
    <linearGradient
       xlink:href="#linearGradient1"
       id="linearGradient2"
       x1="180.11719"
       y1="45.462238"
       x2="78.204208"
       y2="221.9807"
       gradientUnits="userSpaceOnUse"
       gradientTransform="matrix(1.3333333,0,0,-1.3333333,-1.2161031,341.33333)" />
    <filter
       style="color-interpolation-filters:sRGB;"
       inkscape:label="Blur"
       id="filter41"
       x="0"
       y="-0.2226813"
       width="1"
       height="1.4453626">
      <feGaussianBlur
         stdDeviation="0 10"
         result="blur"
         id="feGaussianBlur41" />
    </filter>
    <linearGradient
       id="paint2_linear_2031_34559"
       x1="122.359"
       y1="92.495903"
       x2="89.3741"
       y2="189.944"
       gradientUnits="userSpaceOnUse">
      <stop
         stop-color="#114A8B"
         id="stop16"
         offset="0"
         style="stop-color:#d9d9d9;stop-opacity:1;" />
      <stop
         offset="1"
         stop-color="#0669BC"
         id="stop17"
         style="stop-color:#f2f2f2;stop-opacity:1;" />
    </linearGradient>
    <linearGradient
       id="paint3_linear_2031_34559"
       x1="132.66299"
       y1="137.91"
       x2="125.033"
       y2="140.49001"
       gradientUnits="userSpaceOnUse">
      <stop
         stop-opacity="0.3"
         id="stop18" />
      <stop
         offset="0.071"
         stop-opacity="0.2"
         id="stop19" />
      <stop
         offset="0.321"
         stop-opacity="0.1"
         id="stop20" />
      <stop
         offset="0.623"
         stop-opacity="0.05"
         id="stop21" />
      <stop
         offset="1"
         stop-opacity="0"
         id="stop22" />
    </linearGradient>
    <linearGradient
       id="paint4_linear_2031_34559"
       x1="128.468"
       y1="89.654404"
       x2="164.67599"
       y2="186.12"
       gradientUnits="userSpaceOnUse">
      <stop
         stop-color="#3CCBF4"
         id="stop23"
         offset="0"
         style="stop-color:#ffffff;stop-opacity:1;" />
      <stop
         offset="1"
         stop-color="#2892DF"
         id="stop24"
         style="stop-color:#d9d9d9;stop-opacity:1;" />
    </linearGradient>
    <filter
       style="color-interpolation-filters:sRGB;"
       inkscape:label="Drop Shadow"
       id="filter18"
       x="-0.043580085"
       y="-0.04471865"
       width="1.0871602"
       height="1.1080701">
      <feFlood
         result="flood"
         in="SourceGraphic"
         flood-opacity="0.329412"
         flood-color="rgb(0,0,0)"
         id="feFlood17" />
      <feGaussianBlur
         result="blur"
         in="SourceGraphic"
         stdDeviation="2.000000"
         id="feGaussianBlur17" />
      <feOffset
         result="offset"
         in="blur"
         dx="0.000000"
         dy="2.000000"
         id="feOffset17" />
      <feComposite
         result="comp1"
         operator="in"
         in="flood"
         in2="offset"
         id="feComposite17" />
      <feComposite
         result="comp2"
         operator="over"
         in="SourceGraphic"
         in2="comp1"
         id="feComposite18" />
    </filter>
    <filter
       style="color-interpolation-filters:sRGB;"
       inkscape:label="Drop Shadow"
       id="filter20"
       x="-0.18033996"
       y="-0.21624437"
       width="1.3606851"
       height="1.4886487">
      <feFlood
         result="flood"
         in="SourceGraphic"
         flood-opacity="0.329412"
         flood-color="rgb(0,0,0)"
         id="feFlood18" />
      <feGaussianBlur
         result="blur"
         in="SourceGraphic"
         stdDeviation="2.000000"
         id="feGaussianBlur18" />
      <feOffset
         result="offset"
         in="blur"
         dx="0.000000"
         dy="2.000000"
         id="feOffset18" />
      <feComposite
         result="comp1"
         operator="in"
         in="flood"
         in2="offset"
         id="feComposite19" />
      <feComposite
         result="comp2"
         operator="over"
         in="SourceGraphic"
         in2="comp1"
         id="feComposite20" />
    </filter>
    <filter
       style="color-interpolation-filters:sRGB;"
       inkscape:label="Drop Shadow"
       id="filter2"
       x="-0.034285714"
       y="-0.035290002"
       width="1.0685714"
       height="1.0852842">
      <feFlood
         result="flood"
         in="SourceGraphic"
         flood-opacity="0.329412"
         flood-color="rgb(0,0,0)"
         id="feFlood1" />
      <feGaussianBlur
         result="blur"
         in="SourceGraphic"
         stdDeviation="2.000000"
         id="feGaussianBlur1" />
      <feOffset
         result="offset"
         in="blur"
         dx="0.000000"
         dy="2.000000"
         id="feOffset1" />
      <feComposite
         result="comp1"
         operator="in"
         in="flood"
         in2="offset"
         id="feComposite1" />
      <feComposite
         result="comp2"
         operator="over"
         in="SourceGraphic"
         in2="comp1"
         id="feComposite2" />
    </filter>
  </defs>
  <path
     style="display:inline;fill:url(#linearGradient2)"
     d="m 154.06256,82.66667 -13.164,9.869333 c -5.308,3.98 -11.76267,6.130666 -18.396,6.130666 v 0 h -7.71867 -77.333327 c -8.837334,0 -16,7.162671 -16,16.000001 v 0 V 144 264 c 0,8.836 7.162666,16 16,16 v 0 H 304.11722 c 8.836,0 16,-7.164 16,-16 v 0 -120 -45.333331 c 0,-8.835999 -7.164,-15.999999 -16,-15.999999 v 0 z M 138.01722,56.504537 c -5.82533,-7.073333 -14.508,-11.170666 -23.672,-11.170666 H 37.450563 c -8.836,0 -16,7.162666 -16,15.999999 V 77.516537 90.93387 213.33386 c 0,8.836 7.164,16 16,16 H 304.11722 c 8.836,0 16,-7.164 16,-16 V 93.516536 c 0,-8.837333 -7.164,-15.999999 -16,-15.999999 H 155.32256 Z"
     id="path11"
     inkscape:label="back" />
  <path
     d="M 319.73572,103 H 34.046266 C 26.857241,104.56025 21.474,110.9586 21.474,118.61524 v 29.29297 62.86914 h 298.26172 v -62.86914 z"
     style="display:inline;fill:#08284a;filter:url(#filter41);fill-opacity:1"
     id="path42"
     inkscape:label="shadow" />
  <path
     d="m 154.06256,82.66667 -13.164,9.869333 c -5.308,3.98 -11.76267,6.130666 -18.396,6.130666 v 0 h -7.71867 -77.333327 c -8.837334,0 -16,7.162671 -16,16.000001 v 0 V 144 264 c 0,8.836 7.162666,16 16,16 v 0 H 304.11722 c 8.836,0 16,-7.164 16,-16 v 0 -120 -45.333331 c 0,-8.835999 -7.164,-15.999999 -16,-15.999999 v 0 z"
     style="display:inline;fill:url(#linearGradient12)"
     id="path13"
     inkscape:label="front" />
  <path
     d="M 304.11722,274.66666 H 37.450563 c -8.837334,0 -16,-7.16266 -16,-15.99999 v 0 V 264 c 0,8.836 7.162666,16 16,16 v 0 H 304.11722 c 8.836,0 16,-7.164 16,-16 v 0 -5.33333 c 0,8.83733 -7.164,15.99999 -16,15.99999"
     style="display:inline;fill:url(#linearGradient14)"
     id="path14"
     inkscape:label="bottom" />
  <path
     d="m 154.06256,82.66667 -13.164,9.869333 c -5.308,3.98 -11.76267,6.130666 -18.396,6.130666 v 0 h -7.71867 -77.333327 c -8.837334,0 -16,7.162671 -16,16.000001 v 0 V 120 c 0,-8.836 7.162666,-16 16,-16 v 0 h 77.333327 7.71867 c 6.63333,0 13.088,-2.15066 18.396,-6.129331 v 0 l 13.164,-9.870666 h 150.05466 c 8.836,0 16,7.162666 16,15.999997 v 0 -5.333331 c 0,-8.835999 -7.164,-15.999999 -16,-15.999999 v 0 z"
     style="display:inline;fill:url(#linearGradient16)"
     id="path15"
     inkscape:label="top" />
  <path
     id="path5"
     style="display:inline;fill:#ffffff;fill-opacity:1;stroke-width:1.37273;filter:url(#filter2)"
     d="m 112.31881,114 c -6.43743,0 -11.65214,5.21979 -11.65214,11.65214 0,6.43798 5.21471,11.65216 11.65214,11.65216 6.43167,0 11.65214,-5.21418 11.65214,-11.65216 0,-6.43235 -5.22047,-11.65214 -11.65214,-11.65214 z m 53.55804,25.31513 c -19.81814,0 -35.90019,16.08184 -35.90019,35.90823 v 38.88963 c 0,19.83325 16.08205,35.90287 35.90019,35.90287 h 38.89232 c 19.8305,0 35.8975,-16.06962 35.8975,-35.90287 v -38.88963 c 0,-19.82639 -16.067,-35.90823 -35.8975,-35.90823 z m -8.62247,16.33874 c 8.04558,0 14.56383,6.51825 14.56383,14.56384 0,8.04147 -6.51825,14.56653 -14.56383,14.56653 -8.04422,0 -14.56385,-6.52506 -14.56385,-14.56653 0,-8.04559 6.51963,-14.56384 14.56385,-14.56384 z m 46.48524,35.93504 c 12.868,0 23.3016,10.43903 23.3016,23.30429 0,12.87074 -10.4336,23.30697 -23.3016,23.30697 -12.86937,0 -23.30429,-10.43623 -23.30429,-23.30697 0,-12.86526 10.43492,-23.30429 23.30429,-23.30429 z"
     inkscape:label="icon" />
</svg>
