<svg viewBox="0 0 369.519 48.746" xmlns="http://www.w3.org/2000/svg"><path d="M153.28 8.043v12.104h-.083s-1.245-2.551-5.83-2.551c-2.946 0-5.3.917-7.061 3.037-1.748 2.106-2.623 4.914-2.623 8.424 0 5.294 2.35 10.27 8.754 10.27 2.155 0 5.246-.588 6.76-3.134h.083v2.692h4.947V8.043zm96.568.974h-2.222s-2.343 2.103-8.869 4.517v4.251c4.391-1.145 6.102-2.725 6.102-2.725v23.825h4.99zm14.734 0h-2.222s-2.343 2.103-8.868 4.517v4.251c4.39-1.145 6.101-2.725 6.101-2.725v23.825h4.99zm-156.384.161c-.798 0-1.487.268-2.065.805-.564.537-.846 1.205-.846 2.003 0 .785.282 1.439.846 1.962.564.523 1.253.784 2.065.784s1.5-.261 2.065-.784a2.536 2.536 0 00.867-1.962c0-.77-.282-1.432-.847-1.982-.55-.55-1.245-.826-2.085-.826zm-44.674.685l8.066 29.022h6.148l5.93-22.328 5.866 22.328h6.016l7.868-29.022H98.15l-5.523 23.222-5.969-23.222h-5.511l-6.35 23.085L68.98 9.863zm109.346 7.653c-6.869 0-11.211 3.857-11.211 11.273 0 6.482 3.624 10.715 10.695 10.715 6.502 0 10.832-3.925 10.832-11.17 0-6.795-4.023-10.818-10.316-10.818zm51.91.013c-5.012 0-8.148 2.657-8.148 6.417 0 .991.233 1.808.55 2.551.33.743.826 1.39 1.487 1.941.674.55 1.7 1.122 3.076 1.714 1.17.481 2.03.887 2.581 1.218.801.455 1.47 1.062 1.414 2.162 0 1.372-1.029 2.093-3.314 2.093-3.333-.026-5.719-2.106-5.719-2.106v4.953s2.745 1.062 5.502 1.062c4.233 0 8.456-1.814 8.456-6.47 0-1.668-.354-2.652-1.166-3.63-.812-.976-2.262-1.828-4.244-2.627-1.361-.55-3.64-1.458-3.629-3.32.024-1.444 1.35-2.082 3.102-2.082 2.446.015 4.8 1.642 4.8 1.642v-4.705s-1.435-.813-4.748-.813zm-97.53.088c-2.987 0-5.272.86-6.854 3.311h-.083V17.97h-4.77v20.914h4.77V27.096c0-2.786 1.94-5.539 4.997-5.539 3.074 0 4.02 2.632 4.02 5.683v11.645l4.906-.001V26.125c0-2.918-.544-5.093-1.782-6.524-1.225-1.432-2.96-1.984-5.204-1.984zm-21.562.352v20.915h4.876V17.969zm78.453.065l6.084 20.85h5.223l4.413-15.136 4.113 15.137h5.382l5.992-20.85h-4.68l-3.873 16.156-4.141-16.157h-4.79l-4.644 16.199-3.973-16.199zm-35.87 3.536c3.426 0 5.05 2.87 5.05 5.397v2.173c-.03 2.884-1.663 6.372-5.323 6.372-3.733-.051-5.17-3.166-5.17-6.599 0-3.932 1.522-7.343 5.442-7.343zm24.33.124c4.362 0 5.505 3.583 5.505 6.806-.03 3.76-1.434 6.907-5.535 6.907-3.827 0-5.78-2.637-5.78-6.783 0-3.816 1.626-6.93 5.81-6.93zM0 0v23.105h23.105V0zm25.64 0v23.105h23.105V0zM0 25.642v23.105h23.105V25.642zm25.64 0v23.105h23.105V25.642z" fill="#0078d4"/><path d="M353.65 35.37l2.915-2.45q1.093 1.518 2.368 2.146 1.275.627 2.874.627 1.559 0 2.51-.688.951-.688.951-1.983 0-.972-.87-1.68-.85-.709-2.712-1.053-4.008-.749-5.586-2.327-1.559-1.579-1.559-3.927 0-2.914 2.085-4.675 2.085-1.78 5.303-1.78 2.246 0 4.128.788 1.903.79 3.016 2.43l-2.874 2.367q-.87-1.032-1.902-1.518-1.033-.506-2.43-.506-1.456 0-2.306.628-.83.627-.83 1.76 0 1.012.79 1.6.809.586 3.076 1.011 3.48.607 5.2 2.186 1.721 1.579 1.721 4.29 0 3.118-2.246 4.899-2.227 1.76-5.505 1.76-2.793 0-4.858-1.032-2.064-1.032-3.258-2.874zM351.08 38.79h-4.696V26.667q0-2.57-1.033-3.907-1.032-1.356-3.056-1.356-2.206 0-3.602 1.579-1.376 1.579-1.376 3.987v11.82H332.6V18.065h4.716v2.813h.08q1.093-1.579 2.834-2.429 1.76-.87 3.805-.87 3.44 0 5.242 2.186 1.801 2.186 1.801 6.254zM318.796 39.275q-4.918 0-7.812-2.894t-2.894-7.792q.02-4.958 3.076-7.974 3.056-3.036 7.934-3.036 4.898 0 7.731 2.975 2.834 2.975 2.834 7.691 0 4.817-2.996 7.934-2.975 3.096-7.873 3.096zm.183-3.825q2.793 0 4.33-1.902 1.539-1.923 1.539-5.181 0-3.137-1.559-5.04-1.538-1.923-4.31-1.923-2.773 0-4.433 1.984-1.66 1.963-1.66 5.1 0 3.259 1.64 5.12 1.64 1.842 4.453 1.842zM306.631 34.924q-1.376 2.186-3.562 3.279-2.165 1.072-4.796 1.072-5.02 0-7.833-2.873-2.793-2.895-2.793-7.61 0-5.202 2.975-8.197 2.996-3.016 7.772-3.016 2.692 0 4.857 1.134 2.166 1.133 3.28 3.38l-3.684 1.861q-.972-1.396-2.085-1.963-1.093-.587-2.55-.587-2.51 0-4.15 1.862-1.618 1.862-1.618 5.202 0 3.299 1.599 5.1 1.619 1.801 4.33 1.801 1.377 0 2.53-.566 1.175-.587 2.106-1.964zM284.185 38.79h-4.817V9.767h4.817z"/></svg>